<?xml version="1.0" encoding="utf-8"?>
<!-- Generator: Adobe Illustrator 27.0.0, SVG Export Plug-In . SVG Version: 6.00 Build 0)  -->
<svg version="1.1" id="bookmark_added_black_24dp" xmlns="http://www.w3.org/2000/svg" xmlns:xlink="http://www.w3.org/1999/xlink"
	 x="0px" y="0px" viewBox="0 0 24 24" style="enable-background:new 0 0 24 24;" xml:space="preserve">
<style type="text/css">
	.st0{fill:none;}
	.st1{fill:#FF5757;}
</style>
<rect id="Rectangle_104" class="st0" width="24" height="24"/>
<g id="bookmark_add_black_24dp">
	<rect id="Rectangle_106" class="st0" width="24" height="24"/>
	<g id="bookmark_added_black_24dp-2">
		<rect id="Rectangle_107" class="st0" width="24" height="24"/>
		<path id="Path_383" class="st1" d="M5,5c0-1.1,0.9-2,2-2h7c-1.66,2.21-1.21,5.34,1,7c0.87,0.65,1.92,1,3,1c0.34,0,0.67-0.03,1-0.1
			v8.58c0,0.55-0.45,1-1,1c-0.13,0-0.27-0.03-0.39-0.08L12,18l-5.61,2.4c-0.5,0.22-1.09-0.01-1.31-0.52C5.03,19.76,5,19.62,5,19.48
			V5z M22.07,3.34c0.39,0.39,0.39,1.02,0,1.41l-3.54,3.54c-0.39,0.39-1.02,0.39-1.41,0l-1.41-1.41c-0.36-0.42-0.31-1.05,0.11-1.41
			c0.37-0.32,0.93-0.32,1.3,0l0.71,0.71l2.83-2.83c0.38-0.39,1-0.4,1.4-0.02C22.06,3.33,22.07,3.34,22.07,3.34z"/>
	</g>
</g>
</svg>
