<svg width="25" height="24" viewBox="0 0 25 24" fill="none" xmlns="http://www.w3.org/2000/svg">
<mask id="mask0_4932_38277" style="mask-type:alpha" maskUnits="userSpaceOnUse" x="0" y="0" width="25" height="24">
<rect x="0.5" y="24" width="24" height="24" transform="rotate(-90 0.5 24)" fill="#C4C4C4"/>
</mask>
<g mask="url(#mask0_4932_38277)">
<path d="M20.1469 8.97665L9.65605 19.4689L4.5 20.5001L5.53121 15.344L16.022 4.85181C16.5676 4.3064 17.3075 4 18.079 4C18.8504 4 19.5903 4.3064 20.1359 4.85181L20.1469 4.86419C20.4172 5.13404 20.6317 5.45455 20.7781 5.80738C20.9244 6.16021 20.9997 6.53844 20.9997 6.92042C20.9997 7.3024 20.9244 7.68062 20.7781 8.03346C20.6317 8.38629 20.4172 8.7068 20.1469 8.97665V8.97665Z" stroke="#00357C" stroke-linecap="round" stroke-linejoin="round"/>
</g>
</svg>
