<?xml version="1.0" encoding="utf-8"?>
<!-- Generator: Adobe Illustrator 26.0.0, SVG Export Plug-In . SVG Version: 6.00 Build 0)  -->
<svg version="1.1" id="Layer_1" xmlns="http://www.w3.org/2000/svg" xmlns:xlink="http://www.w3.org/1999/xlink" x="0px" y="0px"
	 viewBox="0 0 42 50" style="enable-background:new 0 0 42 50;" xml:space="preserve">
<style type="text/css">
	.st0{fill:#FF5757;}
	.st1{fill:none;}
</style>
<g id="Group_422" transform="translate(6173 2051.208)">
	<g id="Group_421" transform="translate(-6699.003 -3414.208)">
		<circle id="Ellipse_58" class="st0" cx="547" cy="1388" r="21"/>
		<g id="question_mark_black_24dp" transform="translate(526.003 1367)">
			<g id="Group_204" transform="translate(0)">
				<rect id="Rectangle_138" x="0" class="st1" width="42" height="42"/>
				<rect id="Rectangle_139" x="0" class="st1" width="42" height="42"/>
			</g>
			<g id="Group_205" transform="translate(14.683 8.72)">
				<path id="Path_397" d="M1.1,5.7c-0.9-0.4-1.3-1.4-1-2.3c0-0.1,0.1-0.2,0.1-0.3c1.3-2,3.6-3.2,6-3.1c2.4-0.1,4.7,1,6,3
					c1.1,1.9,1.2,4.3,0,6.2c-1.5,2.2-3,2.9-3.8,4.4c-0.2,0.4-0.3,0.8-0.4,1.2c-0.1,0.9-0.9,1.6-1.8,1.6c-1,0-1.9-0.8-1.9-1.9
					c0-0.1,0-0.1,0-0.2c0.1-0.7,0.3-1.3,0.6-1.9c1-1.8,2.8-2.8,3.9-4.3C10,6.7,9.7,4.9,8.3,3.9C7.7,3.5,7,3.3,6.3,3.4
					C5,3.4,3.9,4,3.2,5.1C2.8,5.8,1.9,6.1,1.1,5.7z M8.8,21.5c0,1.4-1.1,2.5-2.5,2.5c-1.4,0-2.5-1.1-2.5-2.5c0-1.4,1.1-2.5,2.5-2.5
					C7.7,19,8.8,20.1,8.8,21.5z"/>
			</g>
		</g>
	</g>
	<rect id="Rectangle_179" x="-6173" y="-2051.2" class="st1" width="42" height="50"/>
</g>
</svg>
