<?xml version="1.0" encoding="utf-8"?>
<!-- Generator: Adobe Illustrator 26.0.0, SVG Export Plug-In . SVG Version: 6.00 Build 0)  -->
<svg version="1.1" id="Layer_1" xmlns="http://www.w3.org/2000/svg" xmlns:xlink="http://www.w3.org/1999/xlink" x="0px" y="0px"
	 viewBox="0 0 334 250" style="enable-background:new 0 0 334 250;" xml:space="preserve">
<style type="text/css">
	.st0{fill:#A0616A;}
	.st1{fill:#2F2E41;}
	.st2{fill:#3F3D56;}
	.st3{opacity:0.1;enable-background:new    ;}
	.st4{fill:#E6E6E6;}
	.st5{fill:#EED96C;}
	.st6{fill:#FF5757;}
</style>
<g id="Group_566" transform="translate(-744 -326)">
	<g id="Group_565">
		<g id="undraw_appreciation_re_q28r" transform="translate(744 358.809)">
			<g id="Group_529" transform="translate(0 0)">
				<path id="Path_706" class="st0" d="M93,189.4l-18.9,2l-9-6.1l-5.2,6.1l2.5,13l2.9,10.2l17.4-8.8l14-1.3L93,189.4z"/>
				<path id="Path_707" class="st1" d="M188.5,167.7l-45.5-0.8l-55.3,23.4l7.4,16l50-13.9l77.5,22.1l-10.7-52.5L188.5,167.7z"/>
				<path id="Path_708" class="st1" d="M63.7,190.9l9-0.7l-11.5-24.3c0,0-5.3-1.9-6.1,4s6.2,45.5,8.2,45.5c2,0,8.9-4,8.9-4
					l-10.2-19.3L63.7,190.9L63.7,190.9z"/>
				<path id="Path_710" class="st2" d="M0,214.6c0,0.4,0.3,0.8,0.8,0.8c0,0,0,0,0,0h332.5c0.4,0,0.7-0.4,0.7-0.8
					c0-0.4-0.3-0.7-0.7-0.7H0.8C0.3,213.8,0,214.2,0,214.6C0,214.6,0,214.6,0,214.6z"/>
				<path id="Path_711" class="st0" d="M220.6,113l4.5-15.2l13.1-0.4l5.3,18.9L220.6,113z"/>
				<path id="Path_712" class="st3" d="M220.6,113l4.5-15.2l13.1-0.4l5.3,18.9L220.6,113z"/>
				<path id="Path_713" class="st4" d="M240.7,110.9l-21.3-0.8l-6.6,13.6l-10.2,60.2l53.5,12.1c0,0,3.3-67.2-4.1-76.6
					S240.7,110.9,240.7,110.9L240.7,110.9z"/>
				<g id="Group_527" transform="translate(167.15 56.123)">
					<path id="uuid-d56b3625-4c94-42bd-b945-161326df6b90-59" class="st0" d="M11.2,7.6c-0.9-4.7-4.1-8.1-7.1-7.6s-4.7,4.9-3.9,9.6
						c0.3,1.9,1.1,3.7,2.3,5.2l4,20.1l7.9-1.6l-3.5-20C11.5,11.5,11.5,9.5,11.2,7.6z"/>
					<path id="Path_714" class="st4" d="M70.4,60.2l-43.5-8.6L14.6,14.9L0.9,18.1l13.8,54.4L64,78.9L70.4,60.2z"/>
				</g>
				<g id="Group_564" transform="translate(72.733 79.391)">
					<path id="Path_723" class="st5" d="M11.4,23H3.6c-2,0-3.6,1.6-3.6,3.6V52c0,2,1.6,3.6,3.6,3.6h7.8c2,0,3.6-1.6,3.6-3.6V26.6
						C15.1,24.6,13.4,23,11.4,23L11.4,23z"/>
					<path id="Path_724" class="st5" d="M60.4,23.7c-1.8-2.6-4.8-4.1-7.9-4.1H39.6c1.6-5.7,1.1-11.8-1.6-17
						c-1.1-2.3-3.9-3.2-6.2-2.1c-1.6,0.8-2.7,2.5-2.6,4.4c0.5,5.1-0.8,10.1-3.7,14.3l-0.5,0.8l-5.4,6.3l0,0c-0.6,0.7-1,1.7-1,2.7V52
						c0,2,1.6,3.6,3.6,3.6l0,0h27c3,0,5.6-1.9,6.5-4.7l6.1-18.4C62.8,29.5,62.3,26.2,60.4,23.7L60.4,23.7z"/>
				</g>
				<path id="Path_717" class="st1" d="M253.6,188.6c0,0,8.2,19.3-0.8,23.8s-33.7,8.2-39.8,0s-8.1-45.9-8.1-45.9l-19.7,27.5l-11.1-7
					c0,0,13.1-46.3,24.2-48.8s40.6,27.1,40.6,27.1L253.6,188.6L253.6,188.6z"/>
				<path id="Path_718" class="st0" d="M179.1,184.5l-8.6,8.6l-11.9,6.1l1.2,10.7l22.5-2.5l2.9-5.7l-0.8-4.9l1.6-7.8L179.1,184.5z"
					/>
				<path id="Path_719" class="st1" d="M161.4,205.8l-0.7-9l-24.3,11.5c0,0-1.9,5.3,4,6.1c5.9,0.8,44.8,0.8,44.8-1.2
					s1.1-12.5,1.1-12.5l-23.6,6.8L161.4,205.8L161.4,205.8z"/>
				<g id="Group_528" transform="translate(171.175 120.518)">
					<path id="uuid-6c5d2e57-124e-4bcc-a41f-b37c29514f4d-60" class="st0" d="M8.2,54.5C3.4,55-0.3,57.8,0,60.9s4.4,5.1,9.2,4.7
						c1.9-0.2,3.8-0.8,5.4-1.8L35,61.5l-0.9-8l-20.3,1.8C12,54.5,10.1,54.3,8.2,54.5z"/>
					<path id="Path_720" class="st4" d="M65.7,0L53.4,42.6l-37.7,9l2,13.9l55.3-9L83.7,8L65.7,0z"/>
				</g>
			</g>
			<g id="Group_530" transform="translate(211.134 48.258)">
				<circle id="Ellipse_88" class="st0" cx="18.9" cy="36.7" r="17.4"/>
				<path id="Path_721" class="st1" d="M20.3,13.3c-0.5,0.3-1.2-0.2-1.3-0.7c-0.1-0.6,0-1.2,0.2-1.7l0.9-2.8c0.5-2,1.5-3.9,2.8-5.5
					c2.2-2.3,5.6-2.8,8.8-2.4c4,0.5,8,2.7,9.8,6.3s1.1,8.6-2.3,10.8c4.8,5.5,6.5,11.6,6.2,18.9s-8.2,14-13.4,19.1
					c-1.2-0.7-2.2-4-1.6-5.2s-0.3-2.6,0.5-3.7s1.4,0.7,0.6-0.4c-0.5-0.7,1.5-2.3,0.7-2.7c-3.6-2-4.8-6.5-7.1-9.9
					c-2.8-4.2-7.3-6.9-12.4-7.4c-2.7-0.4-5.5,0.3-7.9,1.8c-2.3,1.6-3.6,4.3-3.2,7.1c-2.4-2.5-2.4-6.5,0.1-8.9c0.4-0.4,0.8-0.7,1.2-1
					c-1-3.4-0.2-7.1,2.2-9.7c2.3-2.6,11.8-2.1,15.2-1.5L20.3,13.3L20.3,13.3L20.3,13.3z"/>
				<path id="Path_722" class="st1" d="M20.8,26c4.5,0.5,7.8,4.4,10.5,8c1.6,2.1,3.2,4.4,3.2,7c0,2.6-1.8,4.9-2.7,7.4
					c-1.3,4.2-0.1,8.8,3.3,11.8c-3.4,0.5-6.6-1.7-7.3-5.1c-0.7-3.8,2.2-7.5,1.9-11.3c-0.3-3.4-3-6-5.2-8.5s-4.4-5.9-3.3-9.1L20.8,26
					L20.8,26z"/>
			</g>
		</g>
		<path id="noun-done-2915596" class="st6" d="M922,358.7l30.3-30.3c3.1-3.1,8.2-3.1,11.3,0.1c3.1,3.1,3.1,8.1,0,11.2l-36,36
			c-3.1,3.1-8.2,3.1-11.3,0l-20-20c-3.1-3.1-3.1-8.2,0-11.3c3.1-3.1,8.2-3.1,11.3,0L922,358.7z"/>
	</g>
</g>
</svg>
