<?xml version="1.0" encoding="utf-8"?>
<!-- Generator: Adobe Illustrator 26.0.0, SVG Export Plug-In . SVG Version: 6.00 Build 0)  -->
<svg version="1.1" id="Layer_1" xmlns="http://www.w3.org/2000/svg" xmlns:xlink="http://www.w3.org/1999/xlink" x="0px" y="0px"
	 viewBox="0 0 42 42" style="enable-background:new 0 0 42 42;" xml:space="preserve">
<style type="text/css">
	.st0{fill:#FFF1F1;}
	.st1{fill:#10405B;}
	.st2{fill:none;stroke:#10405B;stroke-width:2;stroke-linejoin:round;}
</style>
<g id="Group_208" transform="translate(-526.5 -1367)">
	<circle id="Ellipse_58" class="st0" cx="547.5" cy="1388" r="21"/>
	<g id="Path_404" transform="translate(539.5 1390)">
		<path class="st0" d="M9,10c-2.6,0-5-0.5-6.8-1.4C0.1,7.5-1,6.1-1,4.5s1.1-3,3.2-4.1C4-0.5,6.4-1,9-1s5,0.5,6.8,1.4
			c2.1,1,3.2,2.5,3.2,4.1s-1.1,3-3.2,4.1C14,9.5,11.6,10,9,10z"/>
		<path class="st1" d="M9,0C4,0,0,2,0,4.5S4,9,9,9s9-2,9-4.5S14,0,9,0 M9-2c2.7,0,5.3,0.5,7.3,1.5c1.1,0.5,1.9,1.2,2.6,1.9
			c0.8,0.9,1.2,2,1.2,3s-0.4,2.1-1.2,3c-0.6,0.7-1.5,1.4-2.6,1.9c-2,1-4.5,1.5-7.3,1.5s-5.3-0.5-7.3-1.5c-1-0.4-1.9-1-2.5-1.8
			c-0.8-0.9-1.2-2-1.2-3s0.4-2.1,1.2-3c0.6-0.7,1.5-1.4,2.6-1.9C3.7-1.5,6.3-2,9-2z"/>
	</g>
	<g id="Ellipse_60" transform="translate(539.5 1384)">
		<ellipse class="st0" cx="9" cy="4.5" rx="9" ry="4.5"/>
		<ellipse class="st2" cx="9" cy="4.5" rx="10" ry="5.5"/>
	</g>
	<g id="Ellipse_61" transform="translate(536.5 1378)">
		<ellipse class="st0" cx="8.5" cy="4.5" rx="8.5" ry="4.5"/>
		<ellipse class="st2" cx="8.5" cy="4.5" rx="9.5" ry="5.5"/>
	</g>
</g>
</svg>
