<svg width="570" height="434" viewBox="0 0 570 434" fill="none" xmlns="http://www.w3.org/2000/svg">
<path d="M347.367 336.524H317.368V341.795H347.367V336.524Z" fill="#4E4B66"/>
<path d="M363.631 413.7H360.398L333.97 290.358L332.466 283.33L327.714 261.189L325.957 252.923L319.308 221.94L316.988 211.102H328.53L330.399 221.94L331.636 229.067L332.466 233.805L337.203 261.189L338.721 269.989L363.631 413.7Z" fill="#4E4B66"/>
<path d="M328.53 211.102L330.399 221.94H319.308L316.988 211.102H328.53Z" fill="#14142B"/>
<path d="M338.721 269.989L333.97 290.358L332.466 283.33L327.714 261.189L325.957 252.923L331.636 229.067L332.466 233.805L337.203 261.189L338.721 269.989Z" fill="#14142B"/>
<path d="M347.929 211.102L345.61 221.94L337.203 261.189L332.466 283.33L304.519 413.7H301.3L327.714 261.189L332.466 233.805L334.518 221.94L336.402 211.102H347.929Z" fill="#4E4B66"/>
<path d="M347.929 211.102L345.61 221.94H334.518L336.402 211.102H347.929Z" fill="#14142B"/>
<path d="M547.821 336.524H517.822V341.795H547.821V336.524Z" fill="#4E4B66"/>
<path d="M564.085 413.7H560.852L534.424 290.358L532.92 283.33L528.168 261.189L526.411 252.923L519.762 221.94L517.442 211.102H528.983L530.853 221.94L532.09 229.067L532.92 233.805L537.657 261.189L539.175 269.989L564.085 413.7Z" fill="#4E4B66"/>
<path d="M528.983 211.102L530.853 221.94H519.762L517.442 211.102H528.983Z" fill="#14142B"/>
<path d="M539.175 269.989L534.424 290.358L532.92 283.33L528.168 261.189L526.411 252.923L532.09 229.067L532.92 233.805L537.657 261.189L539.175 269.989Z" fill="#14142B"/>
<path d="M548.383 211.102L546.063 221.94L537.657 261.189L532.92 283.33L504.987 413.7H501.754L528.168 261.189L532.92 233.805L534.972 221.94L536.856 211.102H548.383Z" fill="#4E4B66"/>
<path d="M548.383 211.102L546.063 221.94H534.972L536.856 211.102H548.383Z" fill="#14142B"/>
<path d="M566.364 196.257H288.583C286.927 196.257 285.583 197.6 285.583 199.257V208.102C285.583 209.758 286.927 211.102 288.583 211.102H566.364C568.021 211.102 569.364 209.759 569.364 208.102V199.257C569.364 197.6 568.021 196.257 566.364 196.257Z" fill="#4E4B66"/>
<path d="M355.112 196.257H283.436C281.84 196.257 280.499 195.059 280.318 193.474L275.269 149.156C275.057 147.295 276.513 145.663 278.387 145.663H346.548C348.144 145.663 349.485 146.861 349.666 148.446L355.112 196.257Z" fill="#D9DBE9"/>
<path d="M351.064 192.854H286.711C285.116 192.854 283.774 191.657 283.594 190.072L278.92 149.051H346.073L351.064 192.854Z" fill="white"/>
<path d="M376.972 192.854H281.155V196.242H376.972V192.854Z" fill="#D9DBE9"/>
<path d="M397.777 192.854H301.96V196.242H397.777V192.854Z" fill="#EFF0F7"/>
<path d="M346.312 151.188L346.073 149.051H278.92L279.173 151.188H346.312Z" fill="white"/>
<path d="M448.081 155.725L449.501 157.925L451.028 160.338C452.021 161.956 452.983 163.606 453.945 165.27C455.839 168.6 457.672 171.975 459.367 175.396C462.774 182.133 465.629 189.135 467.904 196.334C468.454 198.105 468.942 199.877 469.431 201.648L470.057 204.321L470.317 205.649L470.454 206.321C470.454 206.535 470.546 206.825 470.546 206.764C470.546 206.703 470.668 206.764 470.821 206.367C470.985 206.014 471.237 205.709 471.554 205.482C471.813 205.329 471.859 205.482 471.722 205.619C471.406 205.906 471.051 206.148 470.668 206.337C469.364 206.978 467.983 207.45 466.56 207.742C464.831 208.145 463.083 208.456 461.322 208.673C457.687 209.147 453.686 209.376 449.929 209.574H449.547C448.31 209.639 447.133 210.13 446.217 210.964C445.301 211.798 444.702 212.923 444.522 214.149C444.342 215.374 444.592 216.625 445.23 217.687C445.868 218.749 446.853 219.557 448.02 219.975C452.237 221.487 456.596 222.567 461.031 223.197C465.99 224.006 471.057 223.876 475.967 222.815C477.554 222.426 479.091 221.857 480.549 221.12C482.392 220.185 484.056 218.934 485.467 217.424C487.115 215.633 488.336 213.493 489.04 211.163C489.638 209.06 489.85 206.866 489.666 204.687C489.666 204.107 489.666 203.893 489.575 203.603L489.468 202.763L489.269 201.053C489.101 199.938 488.949 198.808 488.765 197.693C488.384 195.463 487.956 193.249 487.421 191.08C485.331 182.498 482.394 174.144 478.655 166.141C476.807 162.201 474.837 158.322 472.684 154.55C471.615 152.656 470.485 150.793 469.324 148.945C468.744 148.013 468.148 147.097 467.522 146.165C466.896 145.234 466.316 144.394 465.521 143.294C463.877 141.082 461.441 139.591 458.723 139.132C456.005 138.672 453.215 139.281 450.935 140.83C448.655 142.379 447.061 144.748 446.487 147.444C445.912 150.14 446.401 152.954 447.852 155.298L448.081 155.725Z" fill="white"/>
<path d="M407.244 94.0878C407.091 95.1263 406.419 95.8746 405.717 95.783C405.014 95.6914 404.617 94.7598 404.77 93.7366C404.923 92.7134 405.595 91.9498 406.297 92.0414C407 92.133 407.397 93.0646 407.244 94.0878Z" fill="#14142B"/>
<path d="M406.51 95.89C404.813 98.8558 400.069 103.112 400.279 103.969C400.489 104.826 401.661 105.038 402.487 105.323C403.312 105.608 404.191 105.709 405.059 105.618L406.51 95.89Z" fill="#FF97B8"/>
<path d="M411.749 88.9262C411.619 88.9156 411.499 88.8554 411.413 88.7582C410.88 88.2043 410.221 87.7863 409.493 87.5391C408.765 87.292 407.989 87.223 407.228 87.3379C407.069 87.3699 406.903 87.3383 406.766 87.2499C406.629 87.1615 406.532 87.0233 406.495 86.8645C406.464 86.7066 406.496 86.5426 406.584 86.4082C406.673 86.2738 406.811 86.1798 406.969 86.1467C407.927 85.9876 408.909 86.0628 409.832 86.366C410.755 86.6692 411.591 87.1913 412.268 87.8877C412.381 88.0045 412.444 88.1605 412.444 88.323C412.444 88.4854 412.381 88.6414 412.268 88.7582C412.199 88.8226 412.117 88.8711 412.027 88.9002C411.937 88.9292 411.842 88.9381 411.749 88.9262V88.9262Z" fill="#14142B"/>
<path d="M437.498 105.466C437.055 115.087 437.788 132.466 445.256 137.735C445.256 137.735 444.11 147.586 426.746 150.182C407.672 153.022 416.209 142.057 416.209 142.057C426.258 138.025 424.837 130.328 421.936 123.349L437.498 105.466Z" fill="#FFD5BD"/>
<path d="M448.249 141.584C448.997 137.231 449.776 132.268 446.492 131.504C442.888 130.664 424.226 133.154 418.331 137.613C412.436 142.072 415.46 149.831 415.46 149.831L448.249 141.584Z" fill="white"/>
<path d="M397.928 157.803C397.225 173.197 397.928 203.725 408.374 249.938H477.433C477.861 240.332 467.949 198.915 468.805 153.404C468.847 151.123 468.435 148.856 467.593 146.736C466.751 144.615 465.495 142.684 463.899 141.053C462.303 139.423 460.398 138.127 458.296 137.24C456.194 136.353 453.936 135.893 451.654 135.887C450.295 135.887 448.86 135.887 447.378 136.055C437.608 136.735 427.888 138 418.27 139.843C415.399 140.5 412.604 141.263 410.069 142.042C406.668 143.099 403.677 145.18 401.504 148.001C399.331 150.822 398.082 154.245 397.928 157.803V157.803Z" fill="#3F80FD"/>
<path opacity="0.2" d="M408.359 185.506C409.458 193.325 411.993 206.887 402.846 221.884C401.807 215.668 400.967 209.85 400.28 204.413L408.359 185.506Z" fill="#14142B"/>
<path d="M354.54 204.428L342.918 200.427L347.652 188.209C350.293 188.593 352.781 189.686 354.849 191.372C356.918 193.059 358.489 195.275 359.396 197.785L354.54 204.428Z" fill="#FFD5BD"/>
<path d="M337.04 197.125C336.428 195.748 334.566 187.966 335.803 187.259C337.04 186.552 347.929 188.267 347.929 188.267L343.194 200.53C343.194 200.53 337.652 198.501 337.04 197.125Z" fill="#FFD5BD"/>
<path d="M398.004 156.382C397.363 158.627 396.569 161.239 395.805 163.682C395.041 166.126 394.278 168.63 393.392 171.089C391.743 176.007 389.925 180.848 388.016 185.582C386.107 190.317 383.969 194.914 381.663 199.205C379.556 203.265 376.995 207.072 374.027 210.552L385.221 208.826C383.068 207.895 380.854 206.933 378.624 205.772C376.394 204.611 374.119 203.573 371.874 202.351L365.001 198.731C362.711 197.525 360.42 196.212 358.083 195.082L357.839 194.959C356.748 194.412 355.504 194.251 354.31 194.5C353.115 194.75 352.04 195.396 351.26 196.334C350.479 197.272 350.039 198.447 350.011 199.667C349.983 200.887 350.368 202.08 351.104 203.053C352.813 205.31 354.638 207.477 356.571 209.544C358.48 211.606 360.481 213.561 362.558 215.485C364.635 217.409 366.834 219.226 369.125 220.967C371.416 222.708 373.844 224.388 376.425 225.946C378.078 226.933 380.008 227.352 381.922 227.139C383.835 226.927 385.627 226.095 387.024 224.77L387.619 224.205C392.145 219.817 396.073 214.851 399.302 209.437C402.368 204.458 405.098 199.279 407.473 193.936C409.87 188.698 411.932 183.383 413.811 178.038C414.742 175.365 415.643 172.678 416.453 169.974C417.262 167.271 417.98 164.614 418.759 161.621C419.49 158.881 419.102 155.962 417.682 153.508C416.261 151.053 413.924 149.264 411.184 148.533C408.444 147.801 405.525 148.189 403.071 149.609C400.616 151.03 398.827 153.367 398.096 156.107L398.004 156.382Z" fill="white"/>
<path d="M441.926 97.0506C439.254 109.574 438.337 117.042 430.976 122.585C419.904 130.924 405.151 122.799 404.021 109.711C403.013 97.9364 407.534 79.4268 420.668 76.235C423.562 75.5191 426.59 75.5549 429.467 76.3391C432.343 77.1233 434.971 78.6298 437.101 80.7155C439.231 82.8012 440.792 85.3968 441.637 88.2558C442.481 91.1148 442.581 94.1423 441.926 97.0506V97.0506Z" fill="#FFD5BD"/>
<path d="M414.941 98.3642C408.954 97.906 409.305 95.1418 410.649 93.1106C411.993 91.0795 415.649 85.5744 413.627 83.7795C411.605 81.9846 405.304 85.9786 407.014 78.0067C408.725 70.0347 419.965 59.94 429.785 66.1251C449.348 62.9027 455.747 70.7983 452.693 78.0983C468.225 84.9707 457.015 98.8834 450.83 98.8834C456.343 103.801 436.716 120.005 434.764 118.844C432.811 117.683 410.573 110.231 414.941 98.3642Z" fill="#14142B"/>
<path d="M427.037 70.1263C427.24 70.1235 427.44 70.0802 427.627 69.9989C427.813 69.9176 427.981 69.8 428.121 69.6529C430.397 67.364 433.234 65.7124 436.348 64.8628C439.462 64.0133 442.744 63.9957 445.867 64.8117C446.26 64.9036 446.673 64.8363 447.016 64.6245C447.36 64.4128 447.605 64.0738 447.7 63.6816C447.791 63.2888 447.724 62.8756 447.512 62.5322C447.301 62.1889 446.962 61.9432 446.57 61.8489C442.926 60.9192 439.104 60.9541 435.478 61.9503C431.852 62.9464 428.548 64.8695 425.891 67.5301C425.607 67.8163 425.447 68.2033 425.447 68.6068C425.447 69.0103 425.607 69.3973 425.891 69.6835C426.041 69.8325 426.22 69.9489 426.418 70.0251C426.615 70.1013 426.825 70.1358 427.037 70.1263Z" fill="#14142B"/>
<path d="M447.272 112.796C447.473 112.797 447.672 112.759 447.858 112.683C448.044 112.607 448.213 112.495 448.356 112.353C452.663 108.016 454.465 104.626 453.915 101.663C453.658 100.543 453.128 99.5052 452.371 98.6415C451.614 97.7778 450.654 97.1158 449.578 96.7147C449.211 96.5406 448.79 96.5191 448.408 96.6552C448.026 96.7912 447.713 97.0736 447.539 97.4402C447.365 97.8067 447.343 98.2274 447.479 98.6098C447.615 98.9921 447.898 99.3048 448.264 99.4789C449.868 100.243 450.723 101.128 450.906 102.182C451.09 103.236 450.479 105.878 446.187 110.185C446.044 110.327 445.93 110.495 445.853 110.682C445.775 110.868 445.735 111.067 445.735 111.269C445.735 111.471 445.775 111.67 445.853 111.856C445.93 112.042 446.044 112.211 446.187 112.353C446.33 112.495 446.499 112.607 446.685 112.683C446.871 112.759 447.071 112.797 447.272 112.796Z" fill="#14142B"/>
<path d="M422.301 97.3867C421.276 100.402 419.291 102.998 416.651 104.778C413.153 107.084 410.786 104.473 411.244 100.701C411.657 97.295 413.978 91.9957 417.735 91.1862C421.492 90.3768 423.477 93.7367 422.301 97.3867Z" fill="#FFD5BD"/>
<path d="M302.89 420.297C301.241 420.297 299.637 420.068 299.103 419.335C298.966 419.138 298.892 418.903 298.892 418.663C298.892 418.423 298.966 418.188 299.103 417.991C299.206 417.813 299.345 417.657 299.51 417.534C299.676 417.41 299.864 417.322 300.065 417.273C302.218 416.693 306.724 419.259 306.922 419.381C306.975 419.41 307.018 419.455 307.043 419.51C307.068 419.565 307.073 419.627 307.06 419.686C307.052 419.748 307.026 419.805 306.985 419.852C306.944 419.898 306.89 419.931 306.83 419.946C305.529 420.17 304.211 420.288 302.89 420.297V420.297ZM300.844 417.793C300.648 417.792 300.453 417.818 300.264 417.869C300.137 417.893 300.018 417.944 299.913 418.018C299.807 418.091 299.719 418.186 299.653 418.297C299.439 418.678 299.515 418.862 299.653 418.969C300.264 419.808 303.532 419.824 305.929 419.488C304.341 418.592 302.592 418.016 300.783 417.793H300.844Z" fill="#3F80FD"/>
<path d="M306.8 419.946H306.678C305.15 419.259 302.02 416.464 302.264 414.998C302.264 414.662 302.554 414.234 303.394 414.143C303.697 414.111 304.003 414.141 304.294 414.23C304.586 414.32 304.856 414.466 305.089 414.662C306.739 416.021 307.09 419.503 307.105 419.641C307.107 419.694 307.096 419.748 307.072 419.796C307.048 419.844 307.012 419.885 306.968 419.915C306.918 419.947 306.858 419.958 306.8 419.946V419.946ZM303.638 414.708H303.455C302.905 414.708 302.875 414.983 302.86 415.044C302.722 415.929 304.814 418.098 306.418 419.075C306.272 417.602 305.674 416.211 304.708 415.09C304.408 414.84 304.029 414.704 303.638 414.708V414.708Z" fill="#3F80FD"/>
<path d="M321.476 419.641H308.556L311.015 389.738H323.935L321.476 419.641Z" fill="#FFD5BD"/>
<path d="M308.541 418.144H322.637C322.883 418.135 323.123 418.223 323.305 418.388C323.488 418.554 323.599 418.784 323.615 419.029L324.454 430.453C324.465 430.749 324.416 431.045 324.31 431.322C324.204 431.6 324.045 431.853 323.84 432.068C323.635 432.283 323.389 432.455 323.117 432.573C322.845 432.692 322.552 432.755 322.255 432.759C317.185 432.667 309.885 432.377 303.486 432.377C296.018 432.377 295.239 432.774 286.473 432.774C281.174 432.774 280.502 427.414 282.793 426.94C293.208 424.726 295.759 424.481 305.288 419.106C306.273 418.513 307.393 418.182 308.541 418.144V418.144Z" fill="#14142B"/>
<path opacity="0.2" d="M311.03 389.753L309.747 405.163H322.667L323.935 389.753H311.03Z" fill="#14142B"/>
<path d="M383.252 420.297C382.163 420.423 381.068 420.122 380.197 419.457C380.036 419.235 379.949 418.968 379.949 418.693C379.949 418.419 380.036 418.152 380.197 417.93C380.298 417.751 380.436 417.595 380.602 417.474C380.768 417.353 380.958 417.269 381.159 417.227C383.038 416.784 386.611 419.228 386.764 419.335C386.81 419.37 386.846 419.417 386.867 419.471C386.889 419.524 386.896 419.583 386.886 419.64C386.877 419.698 386.85 419.751 386.809 419.792C386.768 419.833 386.715 419.86 386.657 419.869C385.541 420.137 384.399 420.28 383.252 420.297V420.297ZM381.633 417.838C381.506 417.822 381.378 417.822 381.251 417.838C381.133 417.862 381.021 417.911 380.924 417.983C380.826 418.054 380.745 418.145 380.686 418.25C380.411 418.754 380.579 418.968 380.686 419.029C381.236 419.762 383.878 419.762 385.802 419.442C384.579 418.61 383.186 418.062 381.724 417.838H381.633Z" fill="#3F80FD"/>
<path d="M386.581 419.946H386.443C385.099 419.213 382.519 416.387 382.793 414.952C382.839 414.725 382.961 414.521 383.139 414.374C383.317 414.227 383.54 414.145 383.771 414.142C384.003 414.114 384.239 414.134 384.462 414.203C384.686 414.271 384.893 414.386 385.069 414.54C386.596 415.761 386.886 419.488 386.886 419.64C386.893 419.697 386.883 419.754 386.859 419.805C386.835 419.856 386.796 419.9 386.749 419.931C386.695 419.951 386.637 419.957 386.581 419.946ZM383.985 414.708H383.847C383.45 414.708 383.404 414.937 383.389 415.013C383.236 415.868 384.916 418.067 386.214 419.014C386.121 417.543 385.589 416.133 384.687 414.967C384.491 414.801 384.242 414.709 383.985 414.708V414.708Z" fill="#3F80FD"/>
<path d="M398.401 419.641H385.496L379.006 389.738H391.91L398.401 419.641Z" fill="#FFD5BD"/>
<path d="M384.58 418.144H399.073C399.33 418.142 399.58 418.229 399.781 418.39C399.981 418.552 400.12 418.777 400.172 419.029L402.723 430.453C402.785 430.732 402.783 431.022 402.718 431.301C402.652 431.579 402.524 431.839 402.343 432.061C402.162 432.283 401.933 432.461 401.674 432.582C401.414 432.703 401.131 432.763 400.844 432.759C395.774 432.667 393.315 432.377 386.932 432.377C383.007 432.377 377.982 432.774 372.561 432.774C367.139 432.774 366.452 427.414 368.651 426.94C378.593 424.756 379.341 421.763 382.472 418.892C383.059 418.393 383.809 418.126 384.58 418.144Z" fill="#14142B"/>
<path d="M429.067 249.938C429.067 249.938 357.442 271.67 355.67 300.443C352.417 353.436 378.41 398.595 378.41 398.595H397.775C397.775 398.595 390.414 376.207 387.772 328.207C384.458 267.883 498.524 329.612 477.433 249.938H429.067Z" fill="#14142B"/>
<g opacity="0.2">
<path opacity="0.2" d="M391.926 389.753H379.006L382.35 405.163H395.271L391.926 389.753Z" fill="#14142B"/>
</g>
<path d="M408.374 249.938C408.374 249.938 315.749 256.047 312.084 305.207C307.884 361.714 306.662 398.595 306.662 398.595H325.844C325.844 398.595 335.71 363.943 344.17 314.126C346.721 299.206 378.364 296.64 408.313 294.868C434.122 293.341 453.945 291.814 456.114 263.225L455.778 249.938H408.374Z" fill="#14142B"/>
<path d="M301.975 393.464C301.868 393.464 303.212 402.628 303.212 402.628H329.8L330.518 394.518L301.975 393.464Z" fill="#3F80FD"/>
<path d="M372.561 393.464C372.454 393.464 375.004 402.628 375.004 402.628H401.577L401.089 394.518L372.561 393.464Z" fill="#3F80FD"/>
<path d="M412.543 290.806L425.509 202.733C425.857 200.349 427.052 198.169 428.875 196.594C430.697 195.018 433.026 194.15 435.436 194.15H511.933C513.374 194.15 514.799 194.46 516.11 195.06C517.421 195.66 518.587 196.536 519.529 197.627C520.471 198.719 521.167 200 521.569 201.384C521.971 202.769 522.07 204.224 521.86 205.65L509.337 290.806C509.337 291.786 509.143 292.756 508.768 293.662C508.392 294.567 507.842 295.389 507.148 296.081C506.455 296.774 505.631 297.322 504.725 297.696C503.819 298.07 502.849 298.261 501.869 298.259H362.42C362.42 297.279 362.614 296.308 362.989 295.403C363.365 294.498 363.915 293.676 364.609 292.984C365.302 292.291 366.126 291.743 367.032 291.369C367.938 290.995 368.908 290.804 369.888 290.806H412.543Z" fill="#3F80FD"/>
<path opacity="0.5" d="M412.543 290.806L425.509 202.733C425.857 200.349 427.052 198.169 428.875 196.594C430.697 195.018 433.026 194.15 435.436 194.15H511.933C513.374 194.15 514.799 194.46 516.11 195.06C517.421 195.66 518.587 196.536 519.529 197.627C520.471 198.719 521.167 200 521.569 201.384C521.971 202.769 522.07 204.224 521.86 205.65L509.337 290.806C509.337 291.786 509.143 292.756 508.768 293.662C508.392 294.567 507.842 295.389 507.148 296.081C506.455 296.774 505.631 297.322 504.725 297.696C503.819 298.07 502.849 298.261 501.869 298.259H362.42C362.42 297.279 362.614 296.308 362.989 295.403C363.365 294.498 363.915 293.676 364.609 292.984C365.302 292.291 366.126 291.743 367.032 291.369C367.938 290.995 368.908 290.804 369.888 290.806H412.543Z" fill="white"/>
<path opacity="0.3" d="M435.436 194.15H511.933C513.374 194.15 514.799 194.46 516.11 195.06C517.421 195.66 518.587 196.536 519.529 197.627C520.471 198.719 521.167 200 521.569 201.384C521.971 202.769 522.07 204.224 521.86 205.65L509.337 290.806C509.337 291.786 509.143 292.756 508.768 293.662C508.392 294.567 507.842 295.389 507.148 296.081C506.455 296.774 505.631 297.322 504.725 297.696C503.819 298.07 502.849 298.261 501.869 298.259H420.759L435.436 194.15Z" fill="#3F80FD"/>
<path d="M508.359 433.874H512.681L501.869 298.259H497.531L508.359 433.874Z" fill="#3F80FD"/>
<path opacity="0.6" d="M508.359 433.874H512.681L501.869 298.259H497.531L508.359 433.874Z" fill="white"/>
<path d="M434.825 433.874H439.147L428.319 298.259H423.997L434.825 433.874Z" fill="#3F80FD"/>
<path opacity="0.6" d="M434.825 433.874H439.147L428.319 298.259H423.997L434.825 433.874Z" fill="white"/>
<path d="M428.166 433.874H432.503L443.316 298.259H438.994L428.166 433.874Z" fill="#3F80FD"/>
<path opacity="0.7" d="M428.166 433.874H432.503L443.316 298.259H438.994L428.166 433.874Z" fill="white"/>
<path d="M354.632 433.874H358.954L369.781 298.259H365.46L354.632 433.874Z" fill="#3F80FD"/>
<path opacity="0.7" d="M354.632 433.874H358.954L369.781 298.259H365.46L354.632 433.874Z" fill="white"/>
<path d="M103.61 1.51922C103.61 1.51922 123.646 -7.26766 129.527 17.5045C134.293 37.4538 144.763 40.8097 144.31 44.9241C143.858 49.0384 108.891 58.6053 89.1421 42.5628L103.61 1.51922Z" fill="#14142B"/>
<path d="M126.894 84.923C127.624 86.8979 128.325 88.5866 129.098 90.3612C129.871 92.1357 130.672 93.8387 131.488 95.556C133.134 98.9906 134.994 102.311 136.883 105.574C140.713 112.235 145.154 118.525 150.149 124.364L151.108 125.451C151.452 125.838 151.623 126.081 152.339 126.811C153.668 128.149 155.312 129.133 157.119 129.673C158.771 130.138 160.505 130.235 162.199 129.959C163.55 129.747 164.867 129.362 166.12 128.814C168.159 127.903 170.081 126.749 171.845 125.38C173.452 124.144 174.991 122.821 176.453 121.416C181.871 116.013 186.645 110.001 190.678 103.499L185.597 99.6632C180.757 104.8 175.553 109.583 170.027 113.974C167.649 115.918 164.984 117.482 162.128 118.611C160.983 118.997 160.196 118.825 160.396 118.768C160.596 118.711 160.582 118.768 160.539 118.768C160.496 118.768 160.224 118.353 159.995 118.038L159.208 117.008C155.023 111.409 151.244 105.517 147.903 99.377C146.214 96.2859 144.64 93.1232 143.108 89.9461C142.35 88.3576 141.606 86.7691 140.89 85.1663C140.175 83.5635 139.459 81.8891 138.887 80.4437L126.894 84.923Z" fill="#FFD5BD"/>
<path d="M130.973 67.7069C136.325 67.5066 145.616 81.4895 145.742 86.9694C145.867 92.4492 131.817 103.842 131.817 103.842C131.817 103.842 115.589 83.4775 117.807 76.8945C120.182 70.0396 123.188 67.9788 130.973 67.7069Z" fill="#14142B"/>
<path opacity="0.2" d="M131.86 72.401L139.101 95.0837L132.575 102.969L131.86 72.401Z" fill="#14142B"/>
<path d="M186.742 105.831L201.544 102.066L191.536 94.1678C191.536 94.1678 184.094 97.3019 183.622 102.511L186.742 105.831Z" fill="#FFD5BD"/>
<path d="M208.257 95.8463C208.176 94.0128 202.619 90.3683 200.572 90.122C198.526 89.8757 191.356 94.2865 191.356 94.2865L201.531 102.072C201.531 102.072 208.339 97.6799 208.257 95.8463Z" fill="#FFD5BD"/>
<path d="M93.178 417.021H105.743L105.128 387.913H92.5626L93.178 417.021Z" fill="#FFD5BD"/>
<path d="M106.959 415.561H92.7917C92.549 415.559 92.3137 415.645 92.1295 415.802C91.9452 415.96 91.8246 416.18 91.7899 416.42L90.1871 427.597C90.1569 427.879 90.1866 428.165 90.2744 428.435C90.3622 428.705 90.506 428.954 90.6965 429.165C90.887 429.375 91.1198 429.543 91.3797 429.658C91.6397 429.772 91.9209 429.831 92.2049 429.829C97.1279 429.743 99.5035 429.457 105.714 429.457C109.535 429.457 120.498 429.858 125.75 429.858C131.002 429.858 131.302 424.634 129.113 424.134C119.267 422.016 112.312 419.096 108.992 416.306C108.417 415.836 107.701 415.573 106.959 415.561V415.561Z" fill="#14142B"/>
<g opacity="0.2">
<path opacity="0.2" d="M105.127 387.913L105.442 402.925H92.877L92.5478 387.913H105.127Z" fill="#14142B"/>
</g>
<path d="M136.024 73.9322C136.296 81.8891 134.923 100.45 126.565 143.655L75.5325 142.138C76.9636 121.401 64.6701 68.3964 68.7491 65.6749C72.8282 62.9533 83.207 63.6731 90.5016 63.4567C98.2363 63.1371 105.984 63.3715 113.685 64.1579C119.581 64.8735 125.95 66.0899 130.128 67.0201C131.74 67.3526 133.195 68.2127 134.262 69.4646C135.33 70.7164 135.95 72.2885 136.024 73.9322Z" fill="#14142B"/>
<path d="M93.5785 37.4537C94.8235 44.9526 95.8683 58.6624 90.5017 63.4709C94.5352 69.8215 100.886 74.3495 108.204 76.0931C119.968 70.1254 113.685 64.1578 113.685 64.1578C105.428 61.9253 105.829 55.7573 107.446 50.0044L93.5785 37.4537Z" fill="#FFD5BD"/>
<path d="M108.204 76.0932L106.687 73.1166L98.5154 74.9627L108.204 76.0932Z" fill="#A0A3BD"/>
<path d="M106.687 73.1165C104.054 71.9143 92.3164 61.8294 91.4459 61.539C90.5755 61.2485 85.7318 61.8294 85.3495 62.8985C84.9672 63.9676 92.0658 86.4031 94.3797 87.3558C96.6935 88.3084 102.308 75.9786 106.687 73.1165Z" fill="white"/>
<path d="M108.204 76.0932L108.891 73.1166L113.9 73.4743L108.204 76.0932Z" fill="#A0A3BD"/>
<path d="M108.891 73.1165C112.941 70.426 110.77 63.0694 111.553 62.3404C112.336 61.6114 117.376 63.2513 117.65 63.6856C117.923 64.1199 120.495 88.1034 118.952 87.3558C117.409 86.6082 113.27 75.9786 108.891 73.1165Z" fill="white"/>
<path opacity="0.2" d="M99.231 42.563L107.431 50.0046C107.039 51.3431 106.762 52.7123 106.601 54.0975C103.438 53.5394 99.1737 49.9188 98.9448 46.5843C98.7953 45.2376 98.8923 43.875 99.231 42.563Z" fill="#14142B"/>
<path d="M89.5001 20.2808C89.6575 32.7599 89.5 38.0406 95.4247 44.7238C104.412 54.7414 119.753 51.8792 123.274 39.6005C126.479 28.5668 125.692 10.0199 113.757 4.46732C111.132 3.2316 108.234 2.68778 105.339 2.88754C102.444 3.08731 99.6488 4.02402 97.218 5.60865C94.7873 7.19329 92.8022 9.37321 91.4513 11.9412C90.1005 14.5093 89.4288 17.3801 89.5001 20.2808V20.2808Z" fill="#FFD5BD"/>
<path d="M90.5156 26.2769L106.186 25.5041C106.233 25.5022 106.279 25.4911 106.322 25.4714C106.365 25.4517 106.403 25.4238 106.435 25.3892C106.467 25.3547 106.492 25.3142 106.508 25.27C106.524 25.2259 106.531 25.179 106.529 25.132C106.528 25.0837 106.516 25.0363 106.496 24.9926C106.475 24.9489 106.446 24.9098 106.41 24.8777C106.374 24.8456 106.331 24.8212 106.285 24.8059C106.24 24.7905 106.191 24.7846 106.143 24.7885L90.4727 25.5613C90.4257 25.5649 90.3798 25.5778 90.3377 25.5992C90.2957 25.6206 90.2583 25.6501 90.2277 25.686C90.1971 25.7219 90.174 25.7636 90.1595 25.8085C90.1451 25.8534 90.1396 25.9007 90.1435 25.9477C90.1453 25.9941 90.1565 26.0397 90.1763 26.0816C90.1962 26.1236 90.2244 26.1611 90.2592 26.1919C90.294 26.2226 90.3346 26.246 90.3787 26.2606C90.4228 26.2752 90.4694 26.2808 90.5156 26.2769Z" fill="white"/>
<path d="M126.565 143.655C126.565 143.655 120.111 237.033 116.547 275.2C112.812 314.913 107.961 400.02 107.961 400.02H90.9738C90.9738 400.02 87.4247 313.467 88.7699 274.299C90.201 231.609 89.2994 142.553 89.2994 142.553L126.565 143.655Z" fill="#14142B"/>
<path d="M89.3995 400.621H109.335L110.809 394.267L88.4693 393.479L89.3995 400.621Z" fill="#3F80FD"/>
<path opacity="0.2" d="M89.4279 175.897C91.4887 173.607 93.7211 174.795 96.2685 181.321C104.755 203.589 95.7104 239.122 89.113 259.587C89.5567 234.114 89.5424 200.598 89.4279 175.897Z" fill="#14142B"/>
<path d="M109.964 25.6618C109.964 26.6778 110.422 27.5222 111.081 27.5508C111.739 27.5794 112.311 26.7923 112.369 25.7763C112.426 24.7602 111.925 23.9159 111.252 23.8872C110.58 23.8586 109.964 24.6457 109.964 25.6618Z" fill="#14142B"/>
<path d="M121.413 26.005C121.413 27.0211 121.871 27.8654 122.529 27.894C123.188 27.9227 123.76 27.1355 123.817 26.1195C123.875 25.1034 123.374 24.2591 122.701 24.2304C122.028 24.2018 121.413 24.9174 121.413 26.005Z" fill="#14142B"/>
<path d="M122.429 24.2019L124.891 23.6151C124.891 23.6151 123.546 25.4612 122.429 24.2019Z" fill="#14142B"/>
<path d="M117.006 26.7637C117.791 29.1183 118.899 31.3528 120.297 33.4039C119.764 33.7529 119.16 33.979 118.529 34.0656C117.898 34.1522 117.255 34.0973 116.648 33.9048L117.006 26.7637Z" fill="#FF97B8"/>
<path d="M110.937 37.5971C111.409 37.6957 111.887 37.7579 112.368 37.7831C112.408 37.785 112.447 37.7791 112.484 37.7658C112.522 37.7524 112.556 37.7319 112.585 37.7053C112.614 37.6787 112.638 37.6466 112.655 37.6109C112.672 37.5751 112.681 37.5364 112.683 37.4969C112.68 37.4206 112.649 37.348 112.597 37.2928C112.544 37.2375 112.473 37.2032 112.397 37.1964C111.135 37.1646 109.899 36.8342 108.789 36.2322C107.68 35.6302 106.729 34.7737 106.014 33.7331C105.994 33.6991 105.967 33.6696 105.935 33.6462C105.903 33.6227 105.866 33.6058 105.828 33.5965C105.789 33.5872 105.749 33.5856 105.71 33.5919C105.671 33.5981 105.633 33.6121 105.599 33.6329C105.566 33.6521 105.537 33.6778 105.513 33.7086C105.49 33.7394 105.473 33.7745 105.464 33.8119C105.454 33.8494 105.453 33.8883 105.459 33.9264C105.465 33.9645 105.479 34.001 105.499 34.0336C106.119 34.963 106.92 35.7577 107.855 36.37C108.789 36.9823 109.838 37.3996 110.937 37.5971V37.5971Z" fill="#14142B"/>
<path d="M85.636 31.5291C85.9989 32.6662 86.5827 33.7204 87.3538 34.6315C88.1249 35.5426 89.0682 36.2926 90.1296 36.8385C92.9918 38.2696 95.0239 35.8796 94.752 32.86C94.5087 30.1553 92.7342 26.1196 89.6144 25.9336C88.9328 25.9048 88.2548 26.0468 87.642 26.3468C87.0293 26.6468 86.5012 27.0951 86.1059 27.6512C85.7106 28.2072 85.4605 28.8532 85.3784 29.5305C85.2964 30.2077 85.3849 30.8948 85.636 31.5291V31.5291Z" fill="#FFD5BD"/>
<path d="M105.485 22.1698C105.607 22.1973 105.734 22.1843 105.848 22.1326C105.962 22.0809 106.055 21.9935 106.115 21.8836C107.474 19.4937 111.009 19.1216 111.038 19.1073C111.115 19.0998 111.19 19.0772 111.258 19.0407C111.326 19.0043 111.387 18.9548 111.436 18.895C111.485 18.8352 111.522 18.7663 111.545 18.6922C111.567 18.6182 111.575 18.5404 111.567 18.4633C111.56 18.3863 111.537 18.3114 111.501 18.2431C111.464 18.1748 111.415 18.1144 111.355 18.0652C111.295 18.016 111.226 17.9791 111.152 17.9566C111.078 17.934 111 17.9263 110.923 17.9338C110.752 17.9338 106.745 18.3631 105.084 21.2969C105.044 21.3642 105.017 21.439 105.006 21.5169C104.994 21.5948 104.999 21.6741 105.019 21.7502C105.039 21.8263 105.074 21.8976 105.122 21.9599C105.17 22.0221 105.23 22.0741 105.299 22.1126L105.485 22.1698Z" fill="#14142B"/>
<path d="M125.105 20.1664C125.206 20.1904 125.312 20.1857 125.41 20.1528C125.509 20.12 125.597 20.0602 125.663 19.9803C125.72 19.9256 125.765 19.86 125.796 19.7875C125.826 19.7149 125.842 19.6369 125.842 19.5581C125.842 19.4793 125.826 19.4014 125.796 19.3288C125.765 19.2563 125.72 19.1907 125.663 19.136C124.978 18.4865 124.148 18.01 123.242 17.7462C122.336 17.4823 121.38 17.4387 120.454 17.619C120.3 17.6594 120.169 17.7588 120.089 17.8955C120.008 18.0322 119.985 18.1952 120.025 18.3489C120.068 18.5003 120.168 18.6292 120.304 18.709C120.44 18.7889 120.601 18.8137 120.754 18.7782C121.489 18.6394 122.246 18.6801 122.961 18.8969C123.676 19.1137 124.328 19.5001 124.862 20.0232C124.93 20.0896 125.014 20.1386 125.105 20.1664V20.1664Z" fill="#14142B"/>
<path d="M62.4523 80.1002C60.7779 86.7834 59.032 93.5954 57.2432 100.293C55.4543 106.99 53.4937 113.674 51.3328 120.142C49.1718 126.611 46.4957 133.022 44.02 139.605C41.5442 146.188 39.0254 152.828 36.75 159.54L42.4744 162.245C46.1952 156.177 49.6298 150.009 53.0215 143.741C54.6911 140.611 56.3225 137.444 57.9158 134.238C59.5329 131.076 61.0642 127.67 62.4237 124.221C65.1571 117.437 67.4325 110.611 69.4647 103.742C71.4968 96.8726 73.3572 90.0033 74.9314 82.9338L62.4523 80.1002Z" fill="#FFD5BD"/>
<path d="M68.7489 65.6749C63.597 67.106 57.4591 79.9088 56.9281 84.4937C56.3972 89.0787 76.348 99.2626 76.348 99.2626C76.348 99.2626 84.0186 84.7943 82.0723 78.1111C80.0259 71.1703 74.645 64.0721 68.7489 65.6749Z" fill="#14142B"/>
<path d="M111.682 417.765C112.756 417.858 113.83 417.586 114.73 416.992C114.927 416.813 115.079 416.59 115.173 416.342C115.268 416.093 115.302 415.826 115.274 415.561C115.261 415.397 115.208 415.239 115.118 415.101C115.027 414.963 114.904 414.851 114.759 414.774C113.227 413.93 108.218 416.491 107.603 416.777C107.549 416.808 107.504 416.855 107.476 416.911C107.448 416.967 107.438 417.03 107.446 417.092C107.452 417.155 107.48 417.213 107.524 417.257C107.568 417.302 107.627 417.329 107.689 417.336C109.003 417.606 110.34 417.75 111.682 417.765V417.765ZM113.929 415.16C114.115 415.149 114.302 415.184 114.472 415.261C114.533 415.292 114.583 415.339 114.618 415.397C114.654 415.455 114.673 415.522 114.673 415.59C114.701 415.765 114.684 415.945 114.624 416.113C114.564 416.281 114.462 416.43 114.329 416.548C113.571 417.235 111.467 417.35 108.719 416.892C110.343 416.019 112.105 415.433 113.929 415.16V415.16Z" fill="#3F80FD"/>
<path d="M107.789 417.321H107.903C109.406 416.634 112.368 413.93 112.197 412.513C112.197 412.169 111.896 411.754 111.08 411.668C110.783 411.634 110.482 411.662 110.196 411.751C109.91 411.839 109.646 411.987 109.42 412.184C107.846 413.5 107.56 416.878 107.546 417.021C107.541 417.073 107.551 417.126 107.574 417.174C107.596 417.222 107.631 417.263 107.674 417.293C107.71 417.31 107.749 417.319 107.789 417.321ZM110.78 412.227H110.952C111.495 412.227 111.538 412.498 111.553 412.57C111.681 413.429 109.678 415.561 108.147 416.491C108.266 415.064 108.826 413.708 109.75 412.613C110.033 412.36 110.4 412.222 110.78 412.227V412.227Z" fill="#3F80FD"/>
<path d="M19.4194 417.021H31.9843L39.5977 387.913H27.0184L19.4194 417.021Z" fill="#FFD5BD"/>
<path d="M19.3051 415.561H33.4299C33.5433 415.552 33.6573 415.568 33.7636 415.608C33.8699 415.648 33.9658 415.712 34.0441 415.795C34.1224 415.877 34.1812 415.976 34.2161 416.084C34.251 416.193 34.2611 416.307 34.2457 416.42L33.387 427.597C33.2943 428.202 32.9935 428.756 32.5364 429.164C32.0793 429.571 31.4945 429.806 30.8826 429.829C25.974 429.743 23.7272 429.457 17.459 429.457C13.638 429.457 9.83132 429.858 4.57923 429.858C-0.672857 429.858 0.171526 424.634 2.47558 424.134C12.7937 422.016 13.1371 419.096 17.0726 416.306C17.7251 415.839 18.5031 415.579 19.3051 415.561Z" fill="#14142B"/>
<g opacity="0.2">
<path opacity="0.2" d="M39.584 387.913L35.6771 402.925H23.0978L27.019 387.913H39.584Z" fill="#14142B"/>
</g>
<path d="M75.5322 142.138C61.0066 161.6 52.1625 233.069 45.7369 271.279C39.0538 311.02 22.6249 400.077 22.6249 400.077H39.6119C39.6119 400.077 62.724 309.489 74.8309 271.136C88.2116 228.79 108.204 142.195 108.204 142.195L75.5322 142.138Z" fill="#14142B"/>
<path d="M21.4088 400.621H41.3582L42.8179 394.267L20.4786 393.479L21.4088 400.621Z" fill="#3F80FD"/>
<path d="M17.6307 415.919C16.6179 415.542 15.7646 414.83 15.2121 413.901C15.1083 413.651 15.067 413.38 15.0919 413.11C15.1169 412.841 15.2073 412.582 15.3553 412.355C15.4347 412.214 15.5486 412.096 15.6862 412.011C15.8238 411.926 15.9807 411.877 16.1423 411.869C17.9026 411.769 21.3229 416.234 21.7092 416.749C21.7443 416.799 21.7632 416.859 21.7632 416.921C21.7632 416.982 21.7443 417.042 21.7092 417.092C21.6771 417.144 21.6286 417.183 21.5716 417.204C21.5145 417.225 21.4521 417.226 21.3944 417.207C20.1019 416.898 18.8417 416.466 17.6307 415.919V415.919ZM16.7291 412.599C16.5606 412.512 16.3749 412.463 16.1853 412.456C16.1179 412.458 16.0526 412.48 15.9969 412.518C15.9412 412.556 15.8974 412.608 15.8704 412.67C15.7696 412.815 15.7063 412.982 15.6863 413.157C15.6663 413.332 15.6903 413.509 15.756 413.672C16.1567 414.617 17.9741 415.618 20.6789 416.405C19.5861 414.923 18.2508 413.636 16.7291 412.599V412.599Z" fill="#3F80FD"/>
<path d="M21.3373 417.192C21.2986 417.177 21.2642 417.152 21.2371 417.121C20.1781 415.861 18.6755 412.141 19.4912 410.953C19.6915 410.667 20.0922 410.395 20.9223 410.681C21.2032 410.78 21.4611 410.935 21.6801 411.136C21.899 411.338 22.0746 411.582 22.196 411.854C23.0546 413.715 21.8525 416.892 21.8095 417.035C21.7906 417.083 21.7596 417.125 21.7194 417.158C21.6793 417.191 21.6315 417.212 21.5806 417.221C21.5406 417.236 21.4978 417.241 21.4555 417.236C21.4133 417.231 21.3728 417.216 21.3373 417.192V417.192ZM20.8364 411.311L20.6647 411.239C20.1495 411.053 20.0207 411.239 19.9921 411.239C19.4912 411.94 20.3928 414.731 21.4232 416.234C21.9334 414.894 22.0135 413.428 21.6521 412.04C21.4805 411.704 21.1897 411.444 20.8364 411.311V411.311Z" fill="#3F80FD"/>
<path d="M110.981 23.93L113.442 23.3433C113.442 23.3433 112.097 25.1894 110.981 23.93Z" fill="#14142B"/>
<path d="M74.86 139.061L73.4289 143.598C73.2428 143.941 73.6579 144.313 74.2446 144.342L126.765 145.902C127.223 145.902 127.61 145.701 127.653 145.415L128.24 140.85C128.24 140.535 127.896 140.263 127.395 140.249L75.7186 138.703C75.5569 138.685 75.3932 138.708 75.243 138.771C75.0928 138.834 74.961 138.933 74.86 139.061V139.061Z" fill="#3F80FD"/>
<path d="M81.6291 145.114H80.198C79.9261 145.114 79.7258 144.957 79.7401 144.785L80.5701 138.861C80.5701 138.689 80.842 138.56 81.1139 138.56H82.545C82.8169 138.56 83.0173 138.717 83.0029 138.889L82.1729 144.814C82.1443 144.986 81.901 145.114 81.6291 145.114Z" fill="#14142B"/>
<path d="M122.844 146.331H121.413C121.141 146.331 120.941 146.173 120.955 146.002L121.785 140.091C121.785 139.92 122.057 139.776 122.329 139.791H123.76C124.032 139.791 124.232 139.948 124.218 140.12L123.388 146.03C123.359 146.216 123.116 146.345 122.844 146.331Z" fill="#14142B"/>
<path d="M102.237 145.715H100.805C100.534 145.715 100.333 145.558 100.347 145.372L101.177 139.462C101.177 139.29 101.449 139.161 101.721 139.161H103.152C103.424 139.161 103.625 139.319 103.61 139.49L102.78 145.401C102.809 145.601 102.508 145.73 102.237 145.715Z" fill="#14142B"/>
<path d="M38.1954 157.279L28.1778 166.452L40.8572 168.083C40.8572 168.083 45.6085 161.572 43.3474 156.864L38.1954 157.279Z" fill="#FFD5BD"/>
<path d="M26.4744 176.885C27.747 178.975 35.9139 178.032 37.1647 177.672C38.4155 177.311 40.8855 168.083 40.8855 168.083L28.206 166.466C28.206 166.466 25.2019 174.795 26.4744 176.885Z" fill="#FFD5BD"/>
<path d="M102.094 2.82157C102.094 2.82157 112.641 -2.01551 124.275 12.6531C110.265 16.8176 100.849 13.9268 100.849 13.9268L102.094 2.82157Z" fill="#14142B"/>
<path d="M103.61 1.51915C103.61 1.51915 107.766 53.3141 103.61 56.7734C99.4548 60.2327 74.993 39.3596 74.6593 37.4394C74.3255 35.5193 76.7344 -2.93153 103.61 1.51915Z" fill="#14142B"/>
<path d="M111.124 34.2052C114.444 34.2052 117.492 30.098 117.936 25.0463C118.124 23.6904 118.038 22.3104 117.685 20.9881C117.331 19.6657 116.715 18.4276 115.875 17.347C115.478 16.8786 114.985 16.5008 114.43 16.2391C113.874 15.9775 113.269 15.838 112.655 15.8301C109.335 15.8301 106.272 19.9373 105.829 24.989C105.639 26.346 105.725 27.7272 106.082 29.0501C106.438 30.373 107.058 31.6104 107.904 32.6883C108.301 33.1567 108.794 33.5345 109.349 33.7962C109.905 34.0578 110.51 34.1973 111.124 34.2052V34.2052ZM112.655 16.5456C113.168 16.5578 113.672 16.6775 114.135 16.8969C114.599 17.1163 115.011 17.4305 115.345 17.8193C116.118 18.8277 116.681 19.9798 117.003 21.2083C117.325 22.4369 117.399 23.7173 117.22 24.9747C116.819 29.6544 114.072 33.4754 111.124 33.4754C110.609 33.4669 110.102 33.3474 109.638 33.1251C109.173 32.9029 108.763 32.583 108.433 32.1874C107.657 31.1809 107.09 30.0294 106.766 28.8005C106.441 27.5717 106.366 26.2904 106.544 25.032C106.959 20.3523 109.693 16.5456 112.655 16.5456V16.5456Z" fill="white"/>
<path d="M123.589 34.2052C126.279 34.2052 128.741 30.1839 129.184 25.0463C129.485 21.5974 128.769 18.4633 127.324 16.8891C127.053 16.5666 126.716 16.3054 126.336 16.1228C125.956 15.9403 125.541 15.8405 125.12 15.8301C122.43 15.8301 119.982 19.8514 119.524 24.989C119.238 28.4379 119.954 31.5577 121.399 33.1462C121.669 33.467 122.004 33.7271 122.381 33.9096C122.758 34.0921 123.17 34.1928 123.589 34.2052V34.2052ZM125.12 16.5456C125.443 16.5528 125.76 16.6309 126.05 16.7744C126.339 16.9178 126.593 17.1231 126.794 17.3757C128.097 18.8067 128.755 21.7834 128.469 24.989C128.082 29.5971 125.836 33.4897 123.589 33.4897C123.269 33.4776 122.955 33.3972 122.669 33.2541C122.383 33.1109 122.13 32.9083 121.929 32.6597C120.626 31.2286 119.968 28.2519 120.24 25.0463C120.641 20.4382 122.845 16.5456 125.12 16.5456V16.5456Z" fill="white"/>
<path d="M117.578 25.3754H117.735C118.037 25.215 118.374 25.1312 118.716 25.1312C119.057 25.1312 119.394 25.215 119.696 25.3754C119.776 25.4236 119.872 25.4386 119.962 25.4172C120.053 25.3958 120.132 25.3397 120.182 25.2609C120.209 25.2227 120.227 25.1796 120.236 25.1341C120.246 25.0886 120.246 25.0417 120.236 24.9962C120.227 24.9507 120.209 24.9076 120.182 24.8695C120.156 24.8314 120.122 24.799 120.082 24.7743C119.674 24.5612 119.219 24.4498 118.758 24.4498C118.298 24.4498 117.843 24.5612 117.435 24.7743C117.35 24.8149 117.283 24.8862 117.249 24.9738C117.214 25.0615 117.214 25.159 117.249 25.2466C117.29 25.2918 117.341 25.3269 117.398 25.3493C117.455 25.3716 117.517 25.3805 117.578 25.3754Z" fill="white"/>
</svg>
