<svg width="478" height="339" viewBox="0 0 478 339" fill="none" xmlns="http://www.w3.org/2000/svg">
<g filter="url(#filter0_ddd)">
<path d="M431.462 32H46.9182C35.3654 32 26 41.3654 26 52.9182V295.172C26 306.724 35.3654 316.09 46.9182 316.09H431.462C443.015 316.09 452.381 306.724 452.381 295.172V52.9182C452.381 41.3654 443.015 32 431.462 32Z" fill="white" fill-opacity="0.01"/>
</g>
<path d="M431.462 32H46.9182C35.3654 32 26 41.3654 26 52.9182V295.172C26 306.724 35.3654 316.09 46.9182 316.09H431.462C443.015 316.09 452.381 306.724 452.381 295.172V52.9182C452.381 41.3654 443.015 32 431.462 32Z" fill="white"/>
<path d="M420.947 41.5507H59.4932C47.8952 41.5507 38.4932 50.9527 38.4932 62.5507V285.506C38.4932 297.104 47.8952 306.506 59.4932 306.506H420.947C432.545 306.506 441.947 297.104 441.947 285.506V62.5507C441.947 50.9527 432.545 41.5507 420.947 41.5507Z" fill="#F5F7FC"/>
<g filter="url(#filter1_d)">
<path d="M412.61 58.9214H176.086C164.246 58.9214 154.648 68.5194 154.648 80.3591V150.66C154.648 162.499 164.246 172.097 176.086 172.097H412.61C424.45 172.097 434.048 162.499 434.048 150.66V80.3591C434.048 68.5194 424.45 58.9214 412.61 58.9214Z" fill="white" fill-opacity="0.01"/>
</g>
<path d="M412.61 58.9214H176.086C164.246 58.9214 154.648 68.5194 154.648 80.3591V150.66C154.648 162.499 164.246 172.097 176.086 172.097H412.61C424.45 172.097 434.048 162.499 434.048 150.66V80.3591C434.048 68.5194 424.45 58.9214 412.61 58.9214Z" fill="white"/>
<g filter="url(#filter2_d)">
<path d="M178.667 143.803H174.061C171.101 143.803 168.702 146.202 168.702 149.162V155.42C168.702 158.38 171.101 160.779 174.061 160.779H178.667C181.626 160.779 184.026 158.38 184.026 155.42V149.162C184.026 146.202 181.626 143.803 178.667 143.803Z" fill="#3FCFFD" fill-opacity="0.01"/>
</g>
<path d="M178.667 143.803H174.061C171.101 143.803 168.702 146.202 168.702 149.162V155.42C168.702 158.38 171.101 160.779 174.061 160.779H178.667C181.626 160.779 184.026 158.38 184.026 155.42V149.162C184.026 146.202 181.626 143.803 178.667 143.803Z" fill="#3FCFFD"/>
<g filter="url(#filter3_d)">
<path d="M267.547 143.803H262.941C259.982 143.803 257.582 146.202 257.582 149.162V155.42C257.582 158.38 259.982 160.779 262.941 160.779H267.547C270.507 160.779 272.906 158.38 272.906 155.42V149.162C272.906 146.202 270.507 143.803 267.547 143.803Z" fill="#3F80FD" fill-opacity="0.01"/>
</g>
<path d="M267.547 143.803H262.941C259.982 143.803 257.582 146.202 257.582 149.162V155.42C257.582 158.38 259.982 160.779 262.941 160.779H267.547C270.507 160.779 272.906 158.38 272.906 155.42V149.162C272.906 146.202 270.507 143.803 267.547 143.803Z" fill="#3F80FD"/>
<path d="M235.797 148.331H193.55C191.675 148.331 190.155 149.851 190.155 151.726C190.155 153.602 191.675 155.122 193.55 155.122H235.797C237.672 155.122 239.192 153.602 239.192 151.726C239.192 149.851 237.672 148.331 235.797 148.331Z" fill="#E7E8F1"/>
<path d="M324.677 148.331H282.43C280.555 148.331 279.035 149.851 279.035 151.726C279.035 153.602 280.555 155.122 282.43 155.122H324.677C326.552 155.122 328.072 153.602 328.072 151.726C328.072 149.851 326.552 148.331 324.677 148.331Z" fill="#E7E8F1"/>
<g filter="url(#filter4_d)">
<path d="M171.752 129.091C224.81 129.091 227.546 87.9757 267.338 85.0389C307.131 82.1022 320.396 109.639 362.6 109.639C404.805 109.639 390.895 77.0295 416.863 77.0295" stroke="#3F80FD" stroke-opacity="0.01" stroke-width="5.35941" stroke-linecap="round"/>
</g>
<path d="M171.752 129.091C224.81 129.091 227.546 87.9757 267.338 85.0389C307.131 82.1022 320.396 109.639 362.6 109.639C404.805 109.639 390.895 77.0295 416.863 77.0295" stroke="#3F80FD" stroke-width="5.35941" stroke-linecap="round"/>
<g filter="url(#filter5_d)">
<path d="M171.752 129.09C224.759 129.09 216.921 102.952 270.56 116.021C324.199 129.09 316.873 90.3888 348.195 86.4733C379.517 82.5578 388.918 109.496 417.831 106.699" stroke="#3FCFFD" stroke-opacity="0.01" stroke-width="5.35941" stroke-linecap="round"/>
</g>
<path d="M171.752 129.09C224.759 129.09 216.921 102.952 270.56 116.021C324.199 129.09 316.873 90.3888 348.195 86.4733C379.517 82.5578 388.918 109.496 417.831 106.699" stroke="#3FCFFD" stroke-width="5.35941" stroke-linecap="round"/>
<g filter="url(#filter6_d)">
<path d="M128.113 196.172V275.924C128.113 279.967 131.391 283.245 135.434 283.245H324.415C328.458 283.245 331.736 279.967 331.736 275.924V196.172C331.736 192.128 328.458 188.85 324.415 188.85H135.434C131.391 188.85 128.113 192.128 128.113 196.172Z" fill="white" fill-opacity="0.01"/>
</g>
<path d="M128.113 196.172V275.924C128.113 279.967 131.391 283.245 135.434 283.245H324.415C328.458 283.245 331.736 279.967 331.736 275.924V196.172C331.736 192.128 328.458 188.85 324.415 188.85H135.434C131.391 188.85 128.113 192.128 128.113 196.172Z" fill="white"/>
<path d="M154 224.663V264.879C154 267.454 156.088 269.542 158.663 269.542C161.238 269.542 163.325 267.454 163.325 264.879V224.663C163.325 222.088 161.238 220 158.663 220C156.088 220 154 222.088 154 224.663Z" fill="#D9DBE9"/>
<path opacity="0.8" d="M235.97 238.364V266.308C235.97 268.332 237.611 269.973 239.635 269.973C241.659 269.973 243.3 268.332 243.3 266.308V238.364C243.3 236.34 241.659 234.699 239.635 234.699C237.611 234.699 235.97 236.34 235.97 238.364Z" fill="#D9DBE9"/>
<path opacity="0.8" d="M183.056 238.364V266.308C183.056 268.332 184.697 269.973 186.721 269.973C188.745 269.973 190.386 268.332 190.386 266.308V238.364C190.386 236.34 188.745 234.699 186.721 234.699C184.697 234.699 183.056 236.34 183.056 238.364Z" fill="#D9DBE9"/>
<g filter="url(#filter7_d)">
<path d="M249.199 220.794V266.308C249.199 268.332 250.84 269.973 252.864 269.973C254.888 269.973 256.529 268.332 256.529 266.308V220.794C256.529 218.769 254.888 217.129 252.864 217.129C250.84 217.129 249.199 218.769 249.199 220.794Z" fill="#3F80FD" fill-opacity="0.01"/>
</g>
<path d="M249.199 220.794V266.308C249.199 268.332 250.84 269.973 252.864 269.973C254.888 269.973 256.529 268.332 256.529 266.308V220.794C256.529 218.769 254.888 217.129 252.864 217.129C250.84 217.129 249.199 218.769 249.199 220.794Z" fill="#3F80FD"/>
<g filter="url(#filter8_d)">
<path d="M196.284 220.794V266.308C196.284 268.332 197.925 269.973 199.949 269.973C201.973 269.973 203.614 268.332 203.614 266.308V220.794C203.614 218.769 201.973 217.129 199.949 217.129C197.925 217.129 196.284 218.769 196.284 220.794Z" fill="#3F80FD" fill-opacity="0.01"/>
</g>
<path d="M196.284 220.793V266.308C196.284 268.332 197.925 269.973 199.949 269.973C201.973 269.973 203.614 268.332 203.614 266.308V220.793C203.614 218.769 201.973 217.128 199.949 217.128C197.925 217.128 196.284 218.769 196.284 220.793Z" fill="#3F80FD"/>
<path opacity="0.8" d="M262.428 224.096V266.308C262.428 268.332 264.069 269.973 266.093 269.973C268.117 269.973 269.758 268.332 269.758 266.308V224.096C269.758 222.072 268.117 220.431 266.093 220.431C264.069 220.431 262.428 222.072 262.428 224.096Z" fill="#D9DBE9"/>
<path opacity="0.8" d="M209.513 224.096V266.308C209.513 268.332 211.154 269.973 213.178 269.973C215.202 269.973 216.843 268.332 216.843 266.308V224.096C216.843 222.072 215.202 220.431 213.178 220.431C211.154 220.431 209.513 222.072 209.513 224.096Z" fill="#D9DBE9"/>
<g filter="url(#filter9_d)">
<path d="M275.656 238.364V266.308C275.656 268.332 277.297 269.973 279.321 269.973C281.345 269.973 282.986 268.332 282.986 266.308V238.364C282.986 236.34 281.345 234.699 279.321 234.699C277.297 234.699 275.656 236.34 275.656 238.364Z" fill="#3F80FD" fill-opacity="0.01"/>
</g>
<path d="M275.656 238.364V266.308C275.656 268.332 277.297 269.973 279.321 269.973C281.345 269.973 282.986 268.332 282.986 266.308V238.364C282.986 236.34 281.345 234.699 279.321 234.699C277.297 234.699 275.656 236.34 275.656 238.364Z" fill="#3F80FD"/>
<g filter="url(#filter10_d)">
<path d="M222.742 238.364V266.308C222.742 268.332 224.383 269.973 226.407 269.973C228.431 269.973 230.072 268.332 230.072 266.308V238.364C230.072 236.34 228.431 234.699 226.407 234.699C224.383 234.699 222.742 236.34 222.742 238.364Z" fill="#3F80FD" fill-opacity="0.01"/>
</g>
<path d="M222.742 238.364V266.308C222.742 268.332 224.383 269.973 226.407 269.973C228.431 269.973 230.072 268.332 230.072 266.308V238.364C230.072 236.34 228.431 234.699 226.407 234.699C224.383 234.699 222.742 236.34 222.742 238.364Z" fill="#3F80FD"/>
<g filter="url(#filter11_d)">
<path d="M169.827 238.364V266.308C169.827 268.332 171.468 269.973 173.492 269.973C175.516 269.973 177.157 268.332 177.157 266.308V238.364C177.157 236.34 175.516 234.699 173.492 234.699C171.468 234.699 169.827 236.34 169.827 238.364Z" fill="#3F80FD" fill-opacity="0.01"/>
</g>
<path d="M169.827 238.364V266.308C169.827 268.332 171.468 269.973 173.492 269.973C175.516 269.973 177.157 268.332 177.157 266.308V238.364C177.157 236.34 175.516 234.699 173.492 234.699C171.468 234.699 169.827 236.34 169.827 238.364Z" fill="#3F80FD"/>
<g filter="url(#filter12_d)">
<path d="M140 238.364V266.308C140 268.332 141.641 269.973 143.665 269.973C145.689 269.973 147.33 268.332 147.33 266.308V238.364C147.33 236.34 145.689 234.699 143.665 234.699C141.641 234.699 140 236.34 140 238.364Z" fill="#3F80FD" fill-opacity="0.01"/>
</g>
<path d="M140 238.364V266.308C140 268.332 141.641 269.973 143.665 269.973C145.689 269.973 147.33 268.332 147.33 266.308V238.364C147.33 236.34 145.689 234.699 143.665 234.699C141.641 234.699 140 236.34 140 238.364Z" fill="#3F80FD"/>
<path opacity="0.8" d="M288.885 220.794V266.308C288.885 268.332 290.526 269.973 292.55 269.973C294.574 269.973 296.215 268.332 296.215 266.308V220.794C296.215 218.769 294.574 217.129 292.55 217.129C290.526 217.129 288.885 218.769 288.885 220.794Z" fill="#D9DBE9"/>
<g filter="url(#filter13_d)">
<path d="M302.114 234.73V266.308C302.114 268.332 303.755 269.973 305.779 269.973C307.803 269.973 309.444 268.332 309.444 266.308V234.73C309.444 232.706 307.803 231.065 305.779 231.065C303.755 231.065 302.114 232.706 302.114 234.73Z" fill="#3F80FD" fill-opacity="0.01"/>
</g>
<path d="M302.114 234.73V266.308C302.114 268.332 303.755 269.973 305.779 269.973C307.803 269.973 309.444 268.332 309.444 266.308V234.73C309.444 232.706 307.803 231.065 305.779 231.065C303.755 231.065 302.114 232.706 302.114 234.73Z" fill="#3F80FD"/>
<path opacity="0.8" d="M315.342 213.5V266.308C315.342 268.332 316.983 269.973 319.007 269.973C321.031 269.973 322.672 268.332 322.672 266.308V213.5C322.672 211.476 321.031 209.835 319.007 209.835C316.983 209.835 315.342 211.476 315.342 213.5Z" fill="#D9DBE9"/>
<g filter="url(#filter14_d)">
<path d="M420.291 188.705H360.023C352.289 188.705 346.019 194.975 346.019 202.709V269.932C346.019 277.666 352.289 283.936 360.023 283.936H420.291C428.026 283.936 434.295 277.666 434.295 269.932V202.709C434.295 194.975 428.026 188.705 420.291 188.705Z" fill="white" fill-opacity="0.01"/>
</g>
<path d="M420.291 188.705H360.023C352.289 188.705 346.019 194.975 346.019 202.709V269.932C346.019 277.666 352.289 283.936 360.023 283.936H420.291C428.026 283.936 434.295 277.666 434.295 269.932V202.709C434.295 194.975 428.026 188.705 420.291 188.705Z" fill="white"/>
<path d="M384.162 272.947C365.384 269.636 352.846 251.729 356.157 232.952C359.468 214.174 377.374 201.635 396.152 204.946C414.93 208.258 427.468 226.164 424.157 244.942C420.846 263.72 402.94 276.258 384.162 272.947ZM393.466 220.181C383.102 218.354 373.219 225.274 371.391 235.638C369.564 246.002 376.484 255.885 386.848 257.712C397.212 259.54 407.095 252.62 408.922 242.256C410.75 231.892 403.83 222.009 393.466 220.181Z" fill="#F5F7FC"/>
<g filter="url(#filter15_d)">
<path d="M416.132 247.286C414.959 250.939 413.029 254.303 410.468 257.16C407.907 260.016 404.772 262.3 401.269 263.862C397.765 265.425 393.971 266.231 390.135 266.228C386.298 266.225 382.506 265.413 379.005 263.844" stroke="#3FCFFD" stroke-opacity="0.01" stroke-width="14.4875" stroke-linecap="round"/>
</g>
<path d="M416.132 247.286C414.959 250.939 413.029 254.303 410.468 257.16C407.907 260.016 404.772 262.3 401.269 263.862C397.765 265.425 393.971 266.231 390.135 266.228C386.298 266.225 382.506 265.413 379.005 263.844" stroke="#3FCFFD" stroke-width="14.4875" stroke-linecap="round"/>
<g filter="url(#filter16_d)">
<path d="M409.751 219.965C414.626 224.997 417.378 231.712 417.437 238.719C417.496 245.725 414.856 252.485 410.066 257.599" stroke="#6A35FF" stroke-opacity="0.01" stroke-width="14.4875" stroke-linecap="round"/>
</g>
<path d="M409.751 219.965C414.626 224.997 417.378 231.712 417.437 238.719C417.496 245.725 414.856 252.485 410.066 257.599" stroke="#6A35FF" stroke-width="14.4875" stroke-linecap="round"/>
<g filter="url(#filter17_d)">
<path d="M362.883 239.588C362.759 234.307 364.171 229.104 366.947 224.61C369.723 220.115 373.744 216.524 378.522 214.271C383.3 212.018 388.629 211.201 393.862 211.919C399.096 212.636 404.008 214.857 408.003 218.313" stroke="#3F80FD" stroke-opacity="0.01" stroke-width="14.4875" stroke-linecap="round"/>
</g>
<path d="M362.883 239.588C362.759 234.307 364.171 229.104 366.947 224.61C369.723 220.115 373.744 216.524 378.522 214.271C383.3 212.018 388.629 211.201 393.862 211.919C399.096 212.636 404.008 214.857 408.003 218.313" stroke="#3F80FD" stroke-width="14.4875" stroke-linecap="round"/>
<path d="M70.0146 196.249C72.5872 195.982 75.1597 195.911 77.7182 195.897C80.2767 195.883 82.8492 195.982 85.4218 196.249C82.8622 196.506 80.2905 196.623 77.7182 196.6C75.146 196.616 72.5747 196.499 70.0146 196.249Z" fill="white"/>
<path d="M175.418 96.5526C178.033 96.2855 180.662 96.2153 183.291 96.2013C185.919 96.1854 188.546 96.3026 191.163 96.5526C188.546 96.8026 185.919 96.9199 183.291 96.904C180.662 96.904 178.033 96.8197 175.418 96.5526Z" fill="white"/>
<g filter="url(#filter18_d)">
<path d="M129.56 59.344H60.2095C52.2345 59.344 45.7695 65.809 45.7695 73.784V238.084C45.7695 246.059 52.2345 252.524 60.2095 252.524H129.56C137.535 252.524 144 246.059 144 238.084V73.784C144 65.809 137.535 59.344 129.56 59.344Z" fill="white" fill-opacity="0.01"/>
</g>
<path d="M129.56 59.344H60.2095C52.2345 59.344 45.7695 65.809 45.7695 73.784V238.084C45.7695 246.059 52.2345 252.524 60.2095 252.524H129.56C137.535 252.524 144 246.059 144 238.084V73.784C144 65.809 137.535 59.344 129.56 59.344Z" fill="white"/>
<g filter="url(#filter19_d)">
<path d="M53.2798 88.3001C53.2798 84.781 56.1326 81.9282 59.6517 81.9282C63.1707 81.9282 66.0235 84.781 66.0235 88.3001V88.4986C66.0235 92.0177 63.1707 94.8705 59.6517 94.8705C56.1326 94.8705 53.2798 92.0177 53.2798 88.4986V88.3001Z" fill="#6A35FF" fill-opacity="0.01"/>
</g>
<path d="M53.2798 88.3001C53.2798 84.781 56.1326 81.9282 59.6517 81.9282C63.1707 81.9282 66.0235 84.781 66.0235 88.3001V88.4986C66.0235 92.0177 63.1707 94.8705 59.6517 94.8705C56.1326 94.8705 53.2798 92.0177 53.2798 88.4986V88.3001Z" fill="#6A35FF"/>
<g filter="url(#filter20_d)">
<path d="M53.2786 106.216C53.2786 102.697 56.1313 99.8439 59.6504 99.8439C63.1695 99.8439 66.0223 102.697 66.0223 106.216V106.414C66.0223 109.933 63.1695 112.786 59.6504 112.786C56.1313 112.786 53.2786 109.933 53.2786 106.414V106.216Z" fill="#6A35FF" fill-opacity="0.01"/>
</g>
<path d="M53.2786 106.216C53.2786 102.697 56.1313 99.8439 59.6504 99.8439C63.1695 99.8439 66.0223 102.697 66.0223 106.216V106.414C66.0223 109.933 63.1695 112.786 59.6504 112.786C56.1313 112.786 53.2786 109.933 53.2786 106.414V106.216Z" fill="#6A35FF"/>
<g filter="url(#filter21_d)">
<path d="M53.2786 123.421C53.2786 119.902 56.1313 117.049 59.6504 117.049C63.1695 117.049 66.0223 119.902 66.0223 123.421V123.619C66.0223 127.139 63.1695 129.991 59.6504 129.991C56.1313 129.991 53.2786 127.139 53.2786 123.619V123.421Z" fill="#6A35FF" fill-opacity="0.01"/>
</g>
<path d="M53.2786 123.421C53.2786 119.902 56.1313 117.049 59.6504 117.049C63.1695 117.049 66.0223 119.902 66.0223 123.421V123.619C66.0223 127.139 63.1695 129.991 59.6504 129.991C56.1313 129.991 53.2786 127.139 53.2786 123.619V123.421Z" fill="#6A35FF"/>
<path d="M53.2786 140.766C53.2786 137.247 56.1313 134.394 59.6504 134.394C63.1695 134.394 66.0223 137.247 66.0223 140.766V140.964C66.0223 144.483 63.1695 147.336 59.6504 147.336C56.1313 147.336 53.2786 144.483 53.2786 140.964V140.766Z" fill="#EFF0F7"/>
<path d="M53.0039 175.176C53.0039 171.657 55.8567 168.804 59.3758 168.804C62.8949 168.804 65.7476 171.657 65.7476 175.176V175.375C65.7476 178.894 62.8949 181.747 59.3758 181.747C55.8567 181.747 53.0039 178.894 53.0039 175.375V175.176Z" fill="#EFF0F7"/>
<path d="M53.2786 157.97C53.2786 154.451 56.1313 151.599 59.6504 151.599C63.1695 151.599 66.0223 154.451 66.0223 157.971V158.169C66.0223 161.688 63.1695 164.541 59.6504 164.541C56.1313 164.541 53.2786 161.688 53.2786 158.169V157.97Z" fill="#EFF0F7"/>
<path d="M53.0039 192.381C53.0039 188.862 55.8567 186.009 59.3758 186.009C62.8949 186.009 65.7476 188.862 65.7476 192.381V192.58C65.7476 196.099 62.8949 198.952 59.3758 198.952C55.8567 198.952 53.0039 196.099 53.0039 192.58V192.381Z" fill="#EFF0F7"/>
<path opacity="0.7" d="M94.5832 85.5574H73.1333C71.5637 85.5574 70.2913 86.8298 70.2913 88.3994C70.2913 89.969 71.5637 91.2414 73.1333 91.2414H94.5832C96.1528 91.2414 97.4253 89.969 97.4253 88.3994C97.4253 86.8298 96.1528 85.5574 94.5832 85.5574Z" fill="#D9DBE9"/>
<path opacity="0.7" d="M129.132 103.473H73.4807C71.9111 103.473 70.6387 104.745 70.6387 106.315C70.6387 107.885 71.9111 109.157 73.4807 109.157H129.132C130.702 109.157 131.974 107.885 131.974 106.315C131.974 104.745 130.702 103.473 129.132 103.473Z" fill="#D9DBE9"/>
<path opacity="0.7" d="M107.103 121.716H73.1333C71.5637 121.716 70.2913 122.988 70.2913 124.558C70.2913 126.128 71.5637 127.4 73.1333 127.4H107.103C108.673 127.4 109.945 126.128 109.945 124.558C109.945 122.988 108.673 121.716 107.103 121.716Z" fill="#D9DBE9"/>
<path opacity="0.7" d="M118.357 138.023H73.1333C71.5637 138.023 70.2913 139.295 70.2913 140.865C70.2913 142.435 71.5637 143.707 73.1333 143.707H118.357C119.927 143.707 121.199 142.435 121.199 140.865C121.199 139.295 119.927 138.023 118.357 138.023Z" fill="#D9DBE9"/>
<path opacity="0.7" d="M118.011 172.433H72.7873C71.2177 172.433 69.9453 173.705 69.9453 175.275C69.9453 176.845 71.2177 178.117 72.7873 178.117H118.011C119.581 178.117 120.853 176.845 120.853 175.275C120.853 173.705 119.581 172.433 118.011 172.433Z" fill="#D9DBE9"/>
<path opacity="0.7" d="M129.133 155.228H73.1333C71.5637 155.228 70.2913 156.5 70.2913 158.07C70.2913 159.64 71.5637 160.912 73.1333 160.912H129.133C130.703 160.912 131.975 159.64 131.975 158.07C131.975 156.5 130.703 155.228 129.133 155.228Z" fill="#D9DBE9"/>
<path opacity="0.7" d="M128.787 189.638H72.7873C71.2177 189.638 69.9453 190.91 69.9453 192.48C69.9453 194.05 71.2177 195.322 72.7873 195.322H128.787C130.357 195.322 131.629 194.05 131.629 192.48C131.629 190.91 130.357 189.638 128.787 189.638Z" fill="#D9DBE9"/>
<defs>
<filter id="filter0_ddd" x="0.898199" y="0.622739" width="476.585" height="337.431" filterUnits="userSpaceOnUse" color-interpolation-filters="sRGB">
<feFlood flood-opacity="0" result="BackgroundImageFix"/>
<feColorMatrix in="SourceAlpha" type="matrix" values="0 0 0 0 0 0 0 0 0 0 0 0 0 0 0 0 0 0 127 0"/>
<feOffset dy="7.32137"/>
<feGaussianBlur stdDeviation="7.32137"/>
<feColorMatrix type="matrix" values="0 0 0 0 0.078875 0 0 0 0 0.0770833 0 0 0 0 0.166667 0 0 0 0.03 0"/>
<feBlend mode="normal" in2="BackgroundImageFix" result="effect1_dropShadow"/>
<feColorMatrix in="SourceAlpha" type="matrix" values="0 0 0 0 0 0 0 0 0 0 0 0 0 0 0 0 0 0 127 0"/>
<feOffset dy="-1.04591"/>
<feGaussianBlur stdDeviation="7.84433"/>
<feColorMatrix type="matrix" values="0 0 0 0 0.078875 0 0 0 0 0.0770833 0 0 0 0 0.166667 0 0 0 0.02 0"/>
<feBlend mode="normal" in2="effect1_dropShadow" result="effect2_dropShadow"/>
<feColorMatrix in="SourceAlpha" type="matrix" values="0 0 0 0 0 0 0 0 0 0 0 0 0 0 0 0 0 0 127 0"/>
<feOffset dy="-6.27546"/>
<feGaussianBlur stdDeviation="12.5509"/>
<feColorMatrix type="matrix" values="0 0 0 0 0.110405 0 0 0 0 0.10441 0 0 0 0 0.404167 0 0 0 0.04 0"/>
<feBlend mode="normal" in2="effect2_dropShadow" result="effect3_dropShadow"/>
<feBlend mode="normal" in="SourceGraphic" in2="effect3_dropShadow" result="shape"/>
</filter>
<filter id="filter1_d" x="139.288" y="46.2411" width="310.12" height="143.896" filterUnits="userSpaceOnUse" color-interpolation-filters="sRGB">
<feFlood flood-opacity="0" result="BackgroundImageFix"/>
<feColorMatrix in="SourceAlpha" type="matrix" values="0 0 0 0 0 0 0 0 0 0 0 0 0 0 0 0 0 0 127 0"/>
<feOffset dy="2.67971"/>
<feGaussianBlur stdDeviation="7.68"/>
<feColorMatrix type="matrix" values="0 0 0 0 0.247059 0 0 0 0 0.501961 0 0 0 0 0.992157 0 0 0 0.07 0"/>
<feBlend mode="normal" in2="BackgroundImageFix" result="effect1_dropShadow"/>
<feBlend mode="normal" in="SourceGraphic" in2="effect1_dropShadow" result="shape"/>
</filter>
<filter id="filter2_d" x="163.342" y="142.463" width="26.0428" height="27.6952" filterUnits="userSpaceOnUse" color-interpolation-filters="sRGB">
<feFlood flood-opacity="0" result="BackgroundImageFix"/>
<feColorMatrix in="SourceAlpha" type="matrix" values="0 0 0 0 0 0 0 0 0 0 0 0 0 0 0 0 0 0 127 0"/>
<feOffset dy="4.01956"/>
<feGaussianBlur stdDeviation="2.67971"/>
<feColorMatrix type="matrix" values="0 0 0 0 0.470588 0 0 0 0 0.172549 0 0 0 0 0.894118 0 0 0 0.17 0"/>
<feBlend mode="normal" in2="BackgroundImageFix" result="effect1_dropShadow"/>
<feBlend mode="normal" in="SourceGraphic" in2="effect1_dropShadow" result="shape"/>
</filter>
<filter id="filter3_d" x="252.223" y="142.463" width="26.0428" height="27.6952" filterUnits="userSpaceOnUse" color-interpolation-filters="sRGB">
<feFlood flood-opacity="0" result="BackgroundImageFix"/>
<feColorMatrix in="SourceAlpha" type="matrix" values="0 0 0 0 0 0 0 0 0 0 0 0 0 0 0 0 0 0 127 0"/>
<feOffset dy="4.01956"/>
<feGaussianBlur stdDeviation="2.67971"/>
<feColorMatrix type="matrix" values="0 0 0 0 0.247059 0 0 0 0 0.501961 0 0 0 0 0.992157 0 0 0 0.3 0"/>
<feBlend mode="normal" in2="BackgroundImageFix" result="effect1_dropShadow"/>
<feBlend mode="normal" in="SourceGraphic" in2="effect1_dropShadow" result="shape"/>
</filter>
<filter id="filter4_d" x="162.373" y="71.6702" width="263.869" height="70.8194" filterUnits="userSpaceOnUse" color-interpolation-filters="sRGB">
<feFlood flood-opacity="0" result="BackgroundImageFix"/>
<feColorMatrix in="SourceAlpha" type="matrix" values="0 0 0 0 0 0 0 0 0 0 0 0 0 0 0 0 0 0 127 0"/>
<feOffset dy="4.01956"/>
<feGaussianBlur stdDeviation="3.34963"/>
<feColorMatrix type="matrix" values="0 0 0 0 0.247059 0 0 0 0 0.501961 0 0 0 0 0.992157 0 0 0 0.25 0"/>
<feBlend mode="normal" in2="BackgroundImageFix" result="effect1_dropShadow"/>
<feBlend mode="normal" in="SourceGraphic" in2="effect1_dropShadow" result="shape"/>
</filter>
<filter id="filter5_d" x="162.373" y="79.3846" width="264.837" height="61.7641" filterUnits="userSpaceOnUse" color-interpolation-filters="sRGB">
<feFlood flood-opacity="0" result="BackgroundImageFix"/>
<feColorMatrix in="SourceAlpha" type="matrix" values="0 0 0 0 0 0 0 0 0 0 0 0 0 0 0 0 0 0 127 0"/>
<feOffset dy="2.67971"/>
<feGaussianBlur stdDeviation="3.34963"/>
<feColorMatrix type="matrix" values="0 0 0 0 0.247059 0 0 0 0 0.811765 0 0 0 0 0.992157 0 0 0 0.25 0"/>
<feBlend mode="normal" in2="BackgroundImageFix" result="effect1_dropShadow"/>
<feBlend mode="normal" in="SourceGraphic" in2="effect1_dropShadow" result="shape"/>
</filter>
<filter id="filter6_d" x="111.378" y="175.253" width="237.092" height="127.864" filterUnits="userSpaceOnUse" color-interpolation-filters="sRGB">
<feFlood flood-opacity="0" result="BackgroundImageFix"/>
<feColorMatrix in="SourceAlpha" type="matrix" values="0 0 0 0 0 0 0 0 0 0 0 0 0 0 0 0 0 0 127 0"/>
<feOffset dy="3.13773"/>
<feGaussianBlur stdDeviation="8.36728"/>
<feColorMatrix type="matrix" values="0 0 0 0 0.078875 0 0 0 0 0.0770833 0 0 0 0 0.166667 0 0 0 0.07 0"/>
<feBlend mode="normal" in2="BackgroundImageFix" result="effect1_dropShadow"/>
<feBlend mode="normal" in="SourceGraphic" in2="effect1_dropShadow" result="shape"/>
</filter>
<filter id="filter7_d" x="247.107" y="217.129" width="11.5137" height="57.0281" filterUnits="userSpaceOnUse" color-interpolation-filters="sRGB">
<feFlood flood-opacity="0" result="BackgroundImageFix"/>
<feColorMatrix in="SourceAlpha" type="matrix" values="0 0 0 0 0 0 0 0 0 0 0 0 0 0 0 0 0 0 127 0"/>
<feOffset dy="2.09182"/>
<feGaussianBlur stdDeviation="1.04591"/>
<feColorMatrix type="matrix" values="0 0 0 0 0.247059 0 0 0 0 0.501961 0 0 0 0 0.992157 0 0 0 0.19 0"/>
<feBlend mode="normal" in2="BackgroundImageFix" result="effect1_dropShadow"/>
<feBlend mode="normal" in="SourceGraphic" in2="effect1_dropShadow" result="shape"/>
</filter>
<filter id="filter8_d" x="194.192" y="217.129" width="11.5137" height="57.0281" filterUnits="userSpaceOnUse" color-interpolation-filters="sRGB">
<feFlood flood-opacity="0" result="BackgroundImageFix"/>
<feColorMatrix in="SourceAlpha" type="matrix" values="0 0 0 0 0 0 0 0 0 0 0 0 0 0 0 0 0 0 127 0"/>
<feOffset dy="2.09182"/>
<feGaussianBlur stdDeviation="1.04591"/>
<feColorMatrix type="matrix" values="0 0 0 0 0.247059 0 0 0 0 0.501961 0 0 0 0 0.992157 0 0 0 0.19 0"/>
<feBlend mode="normal" in2="BackgroundImageFix" result="effect1_dropShadow"/>
<feBlend mode="normal" in="SourceGraphic" in2="effect1_dropShadow" result="shape"/>
</filter>
<filter id="filter9_d" x="273.564" y="234.699" width="11.5137" height="39.4578" filterUnits="userSpaceOnUse" color-interpolation-filters="sRGB">
<feFlood flood-opacity="0" result="BackgroundImageFix"/>
<feColorMatrix in="SourceAlpha" type="matrix" values="0 0 0 0 0 0 0 0 0 0 0 0 0 0 0 0 0 0 127 0"/>
<feOffset dy="2.09182"/>
<feGaussianBlur stdDeviation="1.04591"/>
<feColorMatrix type="matrix" values="0 0 0 0 0.247059 0 0 0 0 0.501961 0 0 0 0 0.992157 0 0 0 0.19 0"/>
<feBlend mode="normal" in2="BackgroundImageFix" result="effect1_dropShadow"/>
<feBlend mode="normal" in="SourceGraphic" in2="effect1_dropShadow" result="shape"/>
</filter>
<filter id="filter10_d" x="220.65" y="234.699" width="11.5137" height="39.4578" filterUnits="userSpaceOnUse" color-interpolation-filters="sRGB">
<feFlood flood-opacity="0" result="BackgroundImageFix"/>
<feColorMatrix in="SourceAlpha" type="matrix" values="0 0 0 0 0 0 0 0 0 0 0 0 0 0 0 0 0 0 127 0"/>
<feOffset dy="2.09182"/>
<feGaussianBlur stdDeviation="1.04591"/>
<feColorMatrix type="matrix" values="0 0 0 0 0.247059 0 0 0 0 0.501961 0 0 0 0 0.992157 0 0 0 0.19 0"/>
<feBlend mode="normal" in2="BackgroundImageFix" result="effect1_dropShadow"/>
<feBlend mode="normal" in="SourceGraphic" in2="effect1_dropShadow" result="shape"/>
</filter>
<filter id="filter11_d" x="167.735" y="234.699" width="11.5137" height="39.4578" filterUnits="userSpaceOnUse" color-interpolation-filters="sRGB">
<feFlood flood-opacity="0" result="BackgroundImageFix"/>
<feColorMatrix in="SourceAlpha" type="matrix" values="0 0 0 0 0 0 0 0 0 0 0 0 0 0 0 0 0 0 127 0"/>
<feOffset dy="2.09182"/>
<feGaussianBlur stdDeviation="1.04591"/>
<feColorMatrix type="matrix" values="0 0 0 0 0.247059 0 0 0 0 0.501961 0 0 0 0 0.992157 0 0 0 0.19 0"/>
<feBlend mode="normal" in2="BackgroundImageFix" result="effect1_dropShadow"/>
<feBlend mode="normal" in="SourceGraphic" in2="effect1_dropShadow" result="shape"/>
</filter>
<filter id="filter12_d" x="137.908" y="234.699" width="11.5137" height="39.4578" filterUnits="userSpaceOnUse" color-interpolation-filters="sRGB">
<feFlood flood-opacity="0" result="BackgroundImageFix"/>
<feColorMatrix in="SourceAlpha" type="matrix" values="0 0 0 0 0 0 0 0 0 0 0 0 0 0 0 0 0 0 127 0"/>
<feOffset dy="2.09182"/>
<feGaussianBlur stdDeviation="1.04591"/>
<feColorMatrix type="matrix" values="0 0 0 0 0.247059 0 0 0 0 0.501961 0 0 0 0 0.992157 0 0 0 0.19 0"/>
<feBlend mode="normal" in2="BackgroundImageFix" result="effect1_dropShadow"/>
<feBlend mode="normal" in="SourceGraphic" in2="effect1_dropShadow" result="shape"/>
</filter>
<filter id="filter13_d" x="300.022" y="231.065" width="11.5137" height="43.0913" filterUnits="userSpaceOnUse" color-interpolation-filters="sRGB">
<feFlood flood-opacity="0" result="BackgroundImageFix"/>
<feColorMatrix in="SourceAlpha" type="matrix" values="0 0 0 0 0 0 0 0 0 0 0 0 0 0 0 0 0 0 127 0"/>
<feOffset dy="2.09182"/>
<feGaussianBlur stdDeviation="1.04591"/>
<feColorMatrix type="matrix" values="0 0 0 0 0.247059 0 0 0 0 0.501961 0 0 0 0 0.992157 0 0 0 0.19 0"/>
<feBlend mode="normal" in2="BackgroundImageFix" result="effect1_dropShadow"/>
<feBlend mode="normal" in="SourceGraphic" in2="effect1_dropShadow" result="shape"/>
</filter>
<filter id="filter14_d" x="333.571" y="178.591" width="113.172" height="120.127" filterUnits="userSpaceOnUse" color-interpolation-filters="sRGB">
<feFlood flood-opacity="0" result="BackgroundImageFix"/>
<feColorMatrix in="SourceAlpha" type="matrix" values="0 0 0 0 0 0 0 0 0 0 0 0 0 0 0 0 0 0 127 0"/>
<feOffset dy="2.33397"/>
<feGaussianBlur stdDeviation="6.22392"/>
<feColorMatrix type="matrix" values="0 0 0 0 0.078875 0 0 0 0 0.0770833 0 0 0 0 0.166667 0 0 0 0.07 0"/>
<feBlend mode="normal" in2="BackgroundImageFix" result="effect1_dropShadow"/>
<feBlend mode="normal" in="SourceGraphic" in2="effect1_dropShadow" result="shape"/>
</filter>
<filter id="filter15_d" x="367.302" y="237.811" width="60.5336" height="42.3469" filterUnits="userSpaceOnUse" color-interpolation-filters="sRGB">
<feFlood flood-opacity="0" result="BackgroundImageFix"/>
<feColorMatrix in="SourceAlpha" type="matrix" values="0 0 0 0 0 0 0 0 0 0 0 0 0 0 0 0 0 0 127 0"/>
<feOffset dy="2.22885"/>
<feGaussianBlur stdDeviation="2.22885"/>
<feColorMatrix type="matrix" values="0 0 0 0 0.247059 0 0 0 0 0.811765 0 0 0 0 0.992157 0 0 0 0.22 0"/>
<feBlend mode="normal" in2="BackgroundImageFix" result="effect1_dropShadow"/>
<feBlend mode="normal" in="SourceGraphic" in2="effect1_dropShadow" result="shape"/>
</filter>
<filter id="filter16_d" x="398.05" y="210.492" width="31.0899" height="61.0369" filterUnits="userSpaceOnUse" color-interpolation-filters="sRGB">
<feFlood flood-opacity="0" result="BackgroundImageFix"/>
<feColorMatrix in="SourceAlpha" type="matrix" values="0 0 0 0 0 0 0 0 0 0 0 0 0 0 0 0 0 0 127 0"/>
<feOffset dy="2.22885"/>
<feGaussianBlur stdDeviation="2.22885"/>
<feColorMatrix type="matrix" values="0 0 0 0 0.415686 0 0 0 0 0.207843 0 0 0 0 1 0 0 0 0.17 0"/>
<feBlend mode="normal" in2="BackgroundImageFix" result="effect1_dropShadow"/>
<feBlend mode="normal" in="SourceGraphic" in2="effect1_dropShadow" result="shape"/>
</filter>
<filter id="filter17_d" x="346.716" y="198.85" width="77.4459" height="60.2405" filterUnits="userSpaceOnUse" color-interpolation-filters="sRGB">
<feFlood flood-opacity="0" result="BackgroundImageFix"/>
<feColorMatrix in="SourceAlpha" type="matrix" values="0 0 0 0 0 0 0 0 0 0 0 0 0 0 0 0 0 0 127 0"/>
<feOffset dy="3.34328"/>
<feGaussianBlur stdDeviation="4.4577"/>
<feColorMatrix type="matrix" values="0 0 0 0 0.247059 0 0 0 0 0.501961 0 0 0 0 0.992157 0 0 0 0.19 0"/>
<feBlend mode="normal" in2="BackgroundImageFix" result="effect1_dropShadow"/>
<feBlend mode="normal" in="SourceGraphic" in2="effect1_dropShadow" result="shape"/>
</filter>
<filter id="filter18_d" x="30.4095" y="46.6637" width="128.95" height="223.9" filterUnits="userSpaceOnUse" color-interpolation-filters="sRGB">
<feFlood flood-opacity="0" result="BackgroundImageFix"/>
<feColorMatrix in="SourceAlpha" type="matrix" values="0 0 0 0 0 0 0 0 0 0 0 0 0 0 0 0 0 0 127 0"/>
<feOffset dy="2.67971"/>
<feGaussianBlur stdDeviation="7.68"/>
<feColorMatrix type="matrix" values="0 0 0 0 0.247059 0 0 0 0 0.501961 0 0 0 0 0.992157 0 0 0 0.07 0"/>
<feBlend mode="normal" in2="BackgroundImageFix" result="effect1_dropShadow"/>
<feBlend mode="normal" in="SourceGraphic" in2="effect1_dropShadow" result="shape"/>
</filter>
<filter id="filter19_d" x="49.5953" y="81.0071" width="20.1127" height="20.3113" filterUnits="userSpaceOnUse" color-interpolation-filters="sRGB">
<feFlood flood-opacity="0" result="BackgroundImageFix"/>
<feColorMatrix in="SourceAlpha" type="matrix" values="0 0 0 0 0 0 0 0 0 0 0 0 0 0 0 0 0 0 127 0"/>
<feOffset dy="2.76339"/>
<feGaussianBlur stdDeviation="1.84226"/>
<feColorMatrix type="matrix" values="0 0 0 0 0.414166 0 0 0 0 0.208333 0 0 0 0 1 0 0 0 0.05 0"/>
<feBlend mode="normal" in2="BackgroundImageFix" result="effect1_dropShadow"/>
<feBlend mode="normal" in="SourceGraphic" in2="effect1_dropShadow" result="shape"/>
</filter>
<filter id="filter20_d" x="49.594" y="98.9227" width="20.1127" height="20.3111" filterUnits="userSpaceOnUse" color-interpolation-filters="sRGB">
<feFlood flood-opacity="0" result="BackgroundImageFix"/>
<feColorMatrix in="SourceAlpha" type="matrix" values="0 0 0 0 0 0 0 0 0 0 0 0 0 0 0 0 0 0 127 0"/>
<feOffset dy="2.76339"/>
<feGaussianBlur stdDeviation="1.84226"/>
<feColorMatrix type="matrix" values="0 0 0 0 0.414166 0 0 0 0 0.208333 0 0 0 0 1 0 0 0 0.05 0"/>
<feBlend mode="normal" in2="BackgroundImageFix" result="effect1_dropShadow"/>
<feBlend mode="normal" in="SourceGraphic" in2="effect1_dropShadow" result="shape"/>
</filter>
<filter id="filter21_d" x="49.594" y="116.128" width="20.1127" height="20.311" filterUnits="userSpaceOnUse" color-interpolation-filters="sRGB">
<feFlood flood-opacity="0" result="BackgroundImageFix"/>
<feColorMatrix in="SourceAlpha" type="matrix" values="0 0 0 0 0 0 0 0 0 0 0 0 0 0 0 0 0 0 127 0"/>
<feOffset dy="2.76339"/>
<feGaussianBlur stdDeviation="1.84226"/>
<feColorMatrix type="matrix" values="0 0 0 0 0.414166 0 0 0 0 0.208333 0 0 0 0 1 0 0 0 0.05 0"/>
<feBlend mode="normal" in2="BackgroundImageFix" result="effect1_dropShadow"/>
<feBlend mode="normal" in="SourceGraphic" in2="effect1_dropShadow" result="shape"/>
</filter>
</defs>
</svg>
