<svg xmlns="http://www.w3.org/2000/svg" width="22" height="22" viewBox="0 0 22 22">
  <path id="info_FILL0_wght400_GRAD0_opsz48" d="M15.082,20.5a.8.8,0,0,0,.825-.825V14.7a.747.747,0,0,0-.248-.564.815.815,0,0,0-.577-.234.8.8,0,0,0-.825.825V19.7a.747.747,0,0,0,.248.564A.815.815,0,0,0,15.082,20.5ZM15,11.865a.9.9,0,0,0,.646-.248.833.833,0,0,0,.261-.632.924.924,0,0,0-.261-.66.9.9,0,0,0-1.292,0,.924.924,0,0,0-.261.66.833.833,0,0,0,.261.632.9.9,0,0,0,.646.248ZM15,26a11.157,11.157,0,0,1-4.345-.839,10.647,10.647,0,0,1-5.816-5.816A11.157,11.157,0,0,1,4,15a11.086,11.086,0,0,1,.839-4.317A10.736,10.736,0,0,1,7.162,7.19,10.967,10.967,0,0,1,15,4,10.912,10.912,0,0,1,26,15a10.967,10.967,0,0,1-3.19,7.838,10.736,10.736,0,0,1-3.493,2.324A11.086,11.086,0,0,1,15,26ZM15,15Zm0,9.35a9,9,0,0,0,6.6-2.75A9,9,0,0,0,24.35,15,9,9,0,0,0,21.6,8.4,9,9,0,0,0,15,5.65,9,9,0,0,0,8.4,8.4,9,9,0,0,0,5.65,15,9,9,0,0,0,8.4,21.6,9,9,0,0,0,15,24.35Z" transform="translate(-4 -4)" fill="#d1d1d1"/>
</svg>
