<svg width="17" height="32" viewBox="0 0 17 32" fill="none" xmlns="http://www.w3.org/2000/svg">
<path d="M15.4107 30.4374V6.79307C15.4106 6.53969 15.3308 6.29274 15.1827 6.08716C15.0346 5.88158 14.8256 5.72776 14.5853 5.64746L2.51778 1.62496C2.33632 1.56415 2.143 1.54743 1.9538 1.57617C1.76461 1.60492 1.58497 1.67831 1.42977 1.79027C1.27457 1.90223 1.14826 2.04953 1.0613 2.22C0.97434 2.39047 0.929226 2.5792 0.929691 2.77057V30.4374" stroke="#A0A3BD" stroke-width="1.6" stroke-linecap="round" stroke-linejoin="round"/>
<path d="M10.582 22.8174V24.0241" stroke="#A0A3BD" stroke-width="1.6" stroke-linecap="round" stroke-linejoin="round"/>
<path d="M10.582 16.7832V17.99" stroke="#A0A3BD" stroke-width="1.6" stroke-linecap="round" stroke-linejoin="round"/>
<path d="M10.582 10.75V11.9568" stroke="#A0A3BD" stroke-width="1.6" stroke-linecap="round" stroke-linejoin="round"/>
<path d="M5.75781 22.8174V24.0241" stroke="#A0A3BD" stroke-width="1.6" stroke-linecap="round" stroke-linejoin="round"/>
<path d="M5.75781 16.7832V17.99" stroke="#A0A3BD" stroke-width="1.6" stroke-linecap="round" stroke-linejoin="round"/>
<path d="M5.75781 10.75V11.9568" stroke="#A0A3BD" stroke-width="1.6" stroke-linecap="round" stroke-linejoin="round"/>
</svg>
