<svg width="17" height="28" viewBox="0 0 17 28" fill="none" xmlns="http://www.w3.org/2000/svg">
<path d="M13.4348 1H3.26087C2.01223 1 1 2.01223 1 3.26087V24.7391C1 25.9878 2.01223 27 3.26087 27H13.4348C14.6834 27 15.6957 25.9878 15.6957 24.7391V3.26087C15.6957 2.01223 14.6834 1 13.4348 1Z" stroke="#A0A3BD" stroke-width="1.6" stroke-linecap="round" stroke-linejoin="round"/>
<path d="M12.0509 1V2.48123C12.0509 2.87408 11.8949 3.25083 11.6171 3.52862C11.3393 3.8064 10.9625 3.96246 10.5697 3.96246H6.126C5.73316 3.96246 5.3564 3.8064 5.07862 3.52862C4.80083 3.25083 4.64478 2.87408 4.64478 2.48123V1" stroke="#A0A3BD" stroke-width="1.6" stroke-linecap="round" stroke-linejoin="round"/>
</svg>
