<svg xmlns="http://www.w3.org/2000/svg" width="165.83" height="123.501" viewBox="0 0 165.83 123.501">
  <g id="Group_416" data-name="Group 416" transform="translate(-758 -316)">
    <g id="Group_415" data-name="Group 415">
      <g id="undraw_office_snack_re_l162" transform="translate(758 332.499)">
        <path id="Path_568" data-name="Path 568" d="M703.361,105.165c.222.244,1.027,0,2.627-.512a4.3,4.3,0,0,0,1.52-.626c.407-.354.514-.725.917-2.368.723-2.948.746-3.241,1.117-3.866.128-.215.451-.729.372-.793s-.431.47-1.077.672c-.63.2-.913-.119-1.451-.038-.7.1-1.108.764-1.757,1.833a22.725,22.725,0,0,0-1.451,3.208c-.228.533-.412.945-.553,1.271q-2.37,2.212-4.7,4.477l.083-.127a3.5,3.5,0,0,0,.771-2.047,4.4,4.4,0,0,0-1-2.23,16.19,16.19,0,0,0-1.986-2.444c-.962-1.031-1.443-1.546-1.634-1.512-1.368.242-1.734,9.557-.013,11.223a3.029,3.029,0,0,0-.586.531,10.975,10.975,0,0,0-6.794-3.689,4.709,4.709,0,0,0-2.971.588c-1.367.859-2.18,2.578-1.772,3.063.381.452,1.48-.576,3.636-.519a8.316,8.316,0,0,1,3.376.909c1.463.679,2,1.347,3.077,1.805a4.7,4.7,0,0,0-1.158,1.422l-.261.27a9.045,9.045,0,0,0-3.68-1.193,4.709,4.709,0,0,0-2.971.588,4.449,4.449,0,0,0-1.8,2.266c-.14.028-.269.06-.387.095a5.8,5.8,0,0,0-2.817-2.441c-1.99-.864-4.574-.635-4.851.187a.437.437,0,0,0-.015.078q.327-2.64.884-5.242a1.209,1.209,0,0,0,.049.152,5.841,5.841,0,0,0,3.628,3.032c1.42.482,2.015.232,2.166.162a1.607,1.607,0,0,0,.92-.866c.283-.986-1.451-3.9-2.545-2.924-3.515,3.142-4,.6-4.158.17q.448-2.057,1.028-4.091l.019.025a5.309,5.309,0,0,0,3.982,1.616c1.363.023,1.808-.359,1.92-.461a1.46,1.46,0,0,0,.556-1.006c-.029-.932-1.688-1.692-3.015-1.823a5.143,5.143,0,0,0-3.193.727q.456-1.523.979-3.033a4.468,4.468,0,0,0,3.4-.24c1.024-.458,1.223-.9,1.271-1.013a1.2,1.2,0,0,0,.064-.943c-.346-.685-1.848-.674-2.883-.309a4.468,4.468,0,0,0-1.179.642q.926-2.475,2.015-4.914l-.726-.181a64.973,64.973,0,0,0-2.424,6.309,5.776,5.776,0,0,0-.586-1.829c-.836-1.588-2.622-2.779-3.226-2.393a.581.581,0,0,0-.218.353,5.551,5.551,0,0,0,.884,4.405c.765,1.2,1.354,1.371,1.508,1.409a1.707,1.707,0,0,0,1.041-.008q-.415,1.422-.766,2.856a5.552,5.552,0,0,0-1.419-1.953c-1.349-1.184-3.443-1.658-3.868-1.081a.582.582,0,0,0-.077.408,5.551,5.551,0,0,0,2.4,3.8c1.145.849,1.755.8,1.912.776a2.171,2.171,0,0,0,.641-.161q-.375,1.743-.657,3.5c-.378-1.311-1.661-2.948-2.871-2.427-2.149.924-4.674-.5-4.952.125a.654.654,0,0,0,.057.508,6.847,6.847,0,0,0,4.2,3.61c1.657.587,2.358.3,2.536.224a2.506,2.506,0,0,0,.8-.518q-.313,2.26-.481,4.541a6.162,6.162,0,0,0-2.891-2.54c-2.072-.932-4.782-.728-5.083.129a.737.737,0,0,0,.058.522,7.027,7.027,0,0,0,4.316,3.7c1.7.6,2.42.311,2.6.23a2.417,2.417,0,0,0,.906-.631q-.058,1.055-.087,2.113c-.005.2-.009.4-.012.6a.6.6,0,0,0-.06.122.75.75,0,0,0,.05.519q0,.191,0,.383a11.056,11.056,0,0,1-1.375-1.6c-.491-.664-.957-.177-1.256.389a1.343,1.343,0,0,0-1.269.289c-2.361,2.206-5.009,1.035-5.047,1.693a.756.756,0,0,0,.219.5,7.357,7.357,0,0,0,5.459,2.379c1.887.079,2.517-.433,2.675-.571a3.6,3.6,0,0,0,.314-.3c.108.086.213.165.319.236q.062,1.894.226,3.782c-.09.008-.175.023-.239.029-.914.093-1.222-1.14-2.6-1.591a2.441,2.441,0,0,0-1.807,0,3.248,3.248,0,0,1-1.085.506,4.289,4.289,0,0,0-1.446.868c-.667.54-1,.811-1.157,1.3a1.431,1.431,0,0,0,0,1.012c.089.2.295.5,1.085.8a5.051,5.051,0,0,0,3.47.145c.372-.125.088-.08,1.518-.8,1.125-.563,1.783-.832,1.88-1.374.034-.191,0-.423.145-.506a.328.328,0,0,1,.275.011q.142,1.518.356,3.031h-1.288a4.441,4.441,0,0,0-4,2.484l-4.817,9.717a4.49,4.49,0,0,0-.465,1.984v24.987a4.473,4.473,0,0,0,4.468,4.468h11.243a4.473,4.473,0,0,0,4.468-4.468V148.736a4.449,4.449,0,0,0-.309-1.632l-4.59-11.7a4.437,4.437,0,0,0-3.2-2.732q.694-.822,1.392-1.642a9.381,9.381,0,0,0,1.929.68c1.839.432,2.554.047,2.735-.059a2.023,2.023,0,0,0,1.049-1.2,1.138,1.138,0,0,0,.018-.223c1.883,1.531,2.866,2.286,3.584,2.034a2.281,2.281,0,0,0,1.171-1.561l.672.091c2.579.344,3.879.5,4.376-.107.688-.846.035-2.476-.145-2.925a5.4,5.4,0,0,0-1.367-1.932,6.579,6.579,0,0,0-4.048-1.986,4.533,4.533,0,0,0-1.332.082,5.771,5.771,0,0,0-.486-.4,4.543,4.543,0,0,0-1.02-.568q.818-.9,1.641-1.786l.245.113c1.8.836,2.2,1.654,3.926,2.085.785.2,1.674.417,1.894.084.391-.591-1.268-3.023-3.833-4.669l.52-.548c.234.1.441.194.617.276,1.8.836,2.2,1.654,3.926,2.085.785.2,1.674.417,1.894.084.349-.527-.935-2.521-3.037-4.114a6.838,6.838,0,0,1,2.335-.361,8.316,8.316,0,0,1,3.376.909c1.8.836,2.2,1.654,3.926,2.085.785.2,1.674.417,1.894.084.581-.879-3.366-5.83-8.088-6.21a6.425,6.425,0,0,0-.994,0c-.041-.068-.086-.138-.133-.209,1.6.051,4.718-.405,7.374,1.459a21.214,21.214,0,0,0,4.743,2.841c.8.332,1.2.5,1.306.359.394-.488-2.886-4.506-7.5-6.485a6.886,6.886,0,0,0-3.764-.74c.124-.141.245-.287.361-.434q2.7-2.643,5.452-5.227C703.261,104.912,703.264,105.059,703.361,105.165ZM680.3,127.1c-2.03-.657-4.487-.3-5.128.443q-.135-.994-.234-1.991a10.062,10.062,0,0,0,3.72.9c.78.1,1.44.191,2,.245a4.536,4.536,0,0,0,.248.562c.011.02.022.04.033.06l-.016.018C680.716,127.246,680.507,127.166,680.3,127.1Zm-5.392-8.9a1.219,1.219,0,0,0,.015-.607q.095-1.146.235-2.284a.931.931,0,0,0,.085.359,6.71,6.71,0,0,0,4.167,3.483,6.844,6.844,0,0,0,1.007.265,3.375,3.375,0,0,0-.287.632,2.52,2.52,0,0,0-2.655-.544c-.282.119-.449.557-.594,1.079a3.56,3.56,0,0,0-2.135.553c0-.141,0-.281.005-.422q.032-1.205.117-2.4A1.064,1.064,0,0,0,674.91,118.2Zm-.16,4.132c.041.084.086.168.133.252-.043-.031-.086-.065-.131-.1C674.752,122.431,674.751,122.381,674.75,122.331Zm1.632,10.283q-.167-.022-.337-.032c-.262-1.3-.5-2.6-.705-3.9a6.563,6.563,0,0,0,2.505,2.2Q677.109,131.748,676.382,132.613Zm8.566-9.77a14.246,14.246,0,0,0-2.628-.459,6.513,6.513,0,0,0-.8-.9c-.118-.114-.3-.339-.532-.6a7.044,7.044,0,0,1,5.613.154Q685.774,121.937,684.948,122.843Zm3.923-4.228a10.327,10.327,0,0,0-2.194-1.01c.076,0,.149,0,.228,0a7.374,7.374,0,0,1,2.444.507Z" transform="translate(-544.097 -77.541)" fill="#e6e6e6"/>
        <path id="Path_569" data-name="Path 569" d="M366.476,177.719l12.911-3.779,3.276,3.779s11.84,1.417,15.3,9.29S414.5,234.875,414.5,234.875l-17.241,2.755-23.933-19.367s-7.558-3.468-6.849-11.811c.4-4.767-.758-10.664-1.829-14.845a10.634,10.634,0,0,1,2.38-9.716h0Z" transform="translate(-298.229 -142.387)" fill="#7fbdea"/>
        <path id="Path_570" data-name="Path 570" d="M.7,452.9a4.476,4.476,0,0,1-.263-4.345l9.942-20.889a4.522,4.522,0,0,1,4.064-2.566H140.02a4.488,4.488,0,0,1,3.985,2.41l10.656,20.314a4.5,4.5,0,0,1-3.968,6.591l-146.173.575H4.5A4.476,4.476,0,0,1,.7,452.9Z" transform="translate(0 -347.986)" fill="#fff"/>
        <path id="Path_571" data-name="Path 571" d="M.7,452.9a4.476,4.476,0,0,1-.263-4.345l9.942-20.889a4.522,4.522,0,0,1,4.064-2.566H140.02a4.488,4.488,0,0,1,3.985,2.41l10.656,20.314a4.5,4.5,0,0,1-3.968,6.591l-146.173.575H4.5A4.476,4.476,0,0,1,.7,452.9Zm13.742-27.328a4.047,4.047,0,0,0-3.637,2.3L.867,448.757A4.028,4.028,0,0,0,4.5,454.516H4.52l146.173-.575a4.028,4.028,0,0,0,3.551-5.9l-10.656-20.314a4.017,4.017,0,0,0-3.567-2.157H14.446Z" transform="translate(0 -347.986)" fill="#3f3d56"/>
        <path id="uuid-071061c5-6dd3-4517-8d08-2ea5cb1fcf22-264" d="M128.922,225.082c-1.742-2.323-4.352-3.306-5.83-2.2s-1.264,3.89.479,6.213a7.266,7.266,0,0,0,2.619,2.217l7.5,9.748,4.5-3.619-7.876-9.225a7.266,7.266,0,0,0-1.4-3.136Z" transform="translate(-99.959 -182.08)" fill="#ffb6b6"/>
        <path id="Path_572" data-name="Path 572" d="M201.361,200.091s9.261,4.029,9.224,8.312S193.5,241.109,193.5,241.109s-7.322,4.648-9.811,1.975S160.5,219.01,160.5,219.01l5.639-6.735,20.476,17.831Z" transform="translate(-131.388 -163.795)" fill="#7fbdea"/>
        <path id="Path_573" data-name="Path 573" d="M382.635,496.067l2.677,8.5-31.334,1.889,2.677-9.6Z" transform="translate(-289.766 -406.081)" fill="#e6e6e6"/>
        <path id="Path_574" data-name="Path 574" d="M192.635,491.067l2.677,8.5-31.334,1.889,2.677-9.6Z" transform="translate(-134.232 -401.988)" fill="#e6e6e6"/>
        <path id="Path_575" data-name="Path 575" d="M618.635,459.067l2.677,8.5-31.334,1.889,2.677-9.6Z" transform="translate(-482.956 -375.793)" fill="#e6e6e6"/>
        <path id="Path_576" data-name="Path 576" d="M226.877,338.824l-8.121-3.994a.387.387,0,0,0-.179-.04l-18.742.4-5.7-21.42a.153.153,0,0,0-.109-.109l-6.9-1.8a.153.153,0,0,0-.186.19l6.838,24.087a.153.153,0,0,0,.073.092l7.031,3.889a.149.149,0,0,0,.156-.006l.038.043a.387.387,0,0,0,.3.132l25.341-.737A.387.387,0,0,0,226.877,338.824Z" transform="translate(-153.023 -255.291)" fill="#3f3d56"/>
        <path id="uuid-08f1b827-cf1e-4826-af3c-c0ed21011f7c-265" d="M339.676,425.944c-2.9.068-5.22,1.621-5.176,3.468s2.432,3.289,5.335,3.22a7.266,7.266,0,0,0,3.326-.843l12.294-.444-.331-5.765-12.085,1.049A7.267,7.267,0,0,0,339.676,425.944Z" transform="translate(-273.821 -348.38)" fill="#ffb6b6"/>
        <path id="Path_577" data-name="Path 577" d="M416.718,206.924s8.66-5.2,12.124-2.677,16.69,32.908,16.69,32.908-.472,8.66-4.094,9.132-33.066,4.881-33.066,4.881l-2.2-8.5,21.1-6.141Z" transform="translate(-332.49 -166.632)" fill="#7fbdea"/>
        <g id="Group_413" data-name="Group 413" transform="translate(11.512 81.714)">
          <ellipse id="Ellipse_66" data-name="Ellipse 66" cx="20.013" cy="5.858" rx="20.013" ry="5.858" transform="translate(0 3.539)" fill="#3f3d56"/>
          <path id="Path_578" data-name="Path 578" d="M103.6,476.443c0,2.426-8.639,3.662-19.692,3.662s-20.216-1.236-20.216-3.662,9.163-5.124,20.216-5.124S103.6,474.017,103.6,476.443Z" transform="translate(-63.649 -467.536)" fill="#2f2e41"/>
          <g id="Group_409" data-name="Group 409" transform="translate(1.586 4.393)">
            <path id="Path_579" data-name="Path 579" d="M75.382,474.682l-3.173,1.708s.244,5.369,5.858,5.125,8.045-1.22,7.927-1.831.127-3.783-2.07-3.295-5.369.976-5.369.976l-3.173-2.685Z" transform="translate(-72.209 -474.682)" fill="#7fbdea"/>
            <path id="Path_580" data-name="Path 580" d="M85.936,486.292c-.407.6-2.88,1.4-7.869,1.614a5.167,5.167,0,0,1-5.716-4.225l-.141.076s.244,5.369,5.858,5.125,8.044-1.22,7.927-1.831C85.967,486.911,85.959,486.631,85.936,486.292Z" transform="translate(-72.209 -482.049)" fill="#3f3d56"/>
          </g>
          <g id="Group_410" data-name="Group 410" transform="translate(12.081 5.125)">
            <path id="Path_581" data-name="Path 581" d="M133.237,478.719l-3.173,1.708s.244,5.369,5.858,5.125,8.045-1.22,7.927-1.83.127-3.783-2.07-3.295-5.369.976-5.369.976Z" transform="translate(-130.064 -478.719)" fill="#7fbdea"/>
            <path id="Path_582" data-name="Path 582" d="M143.79,490.328c-.407.6-2.88,1.4-7.869,1.614a5.167,5.167,0,0,1-5.716-4.225l-.141.076s.244,5.369,5.858,5.125,8.044-1.22,7.927-1.83C143.821,490.947,143.813,490.668,143.79,490.328Z" transform="translate(-130.064 -486.085)" fill="#3f3d56"/>
          </g>
          <g id="Group_411" data-name="Group 411" transform="translate(14.522)">
            <path id="Path_583" data-name="Path 583" d="M146.691,450.464l-3.173,1.708s.244,5.369,5.858,5.125,8.045-1.22,7.927-1.831.127-3.783-2.07-3.295-5.369.976-5.369.976Z" transform="translate(-143.518 -450.464)" fill="#7fbdea"/>
            <path id="Path_584" data-name="Path 584" d="M157.245,462.074c-.407.6-2.88,1.4-7.869,1.614a5.167,5.167,0,0,1-5.716-4.225l-.141.076s.244,5.369,5.858,5.125,8.044-1.22,7.927-1.83C157.276,462.693,157.268,462.413,157.245,462.074Z" transform="translate(-143.518 -457.831)" fill="#3f3d56"/>
          </g>
          <g id="Group_412" data-name="Group 412" transform="translate(25.261 3.417)">
            <path id="Path_585" data-name="Path 585" d="M205.891,469.3l-3.173,1.708s.244,5.369,5.858,5.125,8.045-1.22,7.927-1.831.127-3.783-2.07-3.295-5.369.976-5.369.976Z" transform="translate(-202.718 -469.301)" fill="#7fbdea"/>
            <path id="Path_586" data-name="Path 586" d="M216.445,480.91c-.407.6-2.88,1.4-7.869,1.614a5.167,5.167,0,0,1-5.716-4.225l-.141.076s.244,5.369,5.858,5.125,8.044-1.22,7.927-1.83C216.476,481.529,216.468,481.249,216.445,480.91Z" transform="translate(-202.718 -476.667)" fill="#3f3d56"/>
          </g>
        </g>
        <g id="Group_414" data-name="Group 414" transform="translate(13.78 34.966)">
          <path id="Path_587" data-name="Path 587" d="M80.534,192.756l-4.571,2.461s.352,7.735,8.438,7.383,11.588-1.758,11.419-2.637.183-5.45-2.982-4.746-7.735,1.406-7.735,1.406Z" transform="translate(-75.964 -192.756)" fill="#7fbdea"/>
          <path id="Path_588" data-name="Path 588" d="M95.737,209.48c-.586.868-4.149,2.013-11.335,2.326-5.98.26-7.729-3.9-8.235-6.086l-.2.11s.352,7.735,8.438,7.383,11.588-1.758,11.42-2.637C95.782,210.371,95.77,209.968,95.737,209.48Z" transform="translate(-75.964 -203.367)" fill="#3f3d56"/>
        </g>
        <circle id="Ellipse_67" data-name="Ellipse 67" cx="11.523" cy="11.523" r="11.523" transform="translate(58.879 8.455)" fill="#ffb6b6"/>
        <path id="Path_589" data-name="Path 589" d="M337.515,23.308,334.378,19.4l-1.858-5.593s-11.723,4.342-9.169-1.918S333.973,3.2,340.076,6.966l2.683,2.074s-5.932-4.381-2.9-6.522S342.165-.731,344.1.535s1.19,2.546,3.147,1.424,6.234-2.811,5.817-1.271,4.465,4.85,3.039,6.8.455,5.315-2.59,4.774-1.062,3.7-3.915,2.243c0,0,2.495,2.518.969,4.782s-4.154,3.382-3.518,6.29-6.359,4.332-6.359,4.332l-.447-8.653S338.327,20.029,337.515,23.308Z" transform="translate(-264.398)" fill="#2f2e41"/>
      </g>
      <g id="priority_high_black_24dp" transform="translate(848 316)">
        <path id="Path_590" data-name="Path 590" d="M0,0H24V24H0Z" fill="none"/>
        <circle id="Ellipse_68" data-name="Ellipse 68" cx="2" cy="2" r="2" transform="translate(10 17)" fill="#c41818"/>
        <path id="Path_591" data-name="Path 591" d="M12,3a2.006,2.006,0,0,0-2,2v8a2,2,0,0,0,4,0V5A2.006,2.006,0,0,0,12,3Z" fill="#c41818"/>
      </g>
    </g>
  </g>
</svg>
