<svg width="29" height="29" viewBox="0 0 29 29" fill="none" xmlns="http://www.w3.org/2000/svg">
<rect width="29" height="29" fill="#157EE7"/>
<path d="M7.04663 9.05243C7.04663 8.57442 7.2145 8.18007 7.55023 7.86937C7.88596 7.55867 8.32242 7.40332 8.85959 7.40332C9.38717 7.40332 9.81402 7.55627 10.1402 7.8622C10.4759 8.17769 10.6438 8.58876 10.6438 9.09545C10.6438 9.55433 10.4807 9.93673 10.1546 10.2427C9.81883 10.5581 9.37758 10.7159 8.83081 10.7159H8.81642C8.28884 10.7159 7.86199 10.5581 7.53584 10.2427C7.2097 9.92718 7.04663 9.53043 7.04663 9.05243ZM7.23368 21.6V12.0208H10.4279V21.6H7.23368ZM12.1977 21.6H15.392V16.2512C15.392 15.9165 15.4304 15.6584 15.5071 15.4768C15.6414 15.1517 15.8452 14.8769 16.1186 14.6522C16.392 14.4276 16.7349 14.3152 17.1474 14.3152C18.2217 14.3152 18.7589 15.037 18.7589 16.4806V21.6H21.9532V16.1078C21.9532 14.6929 21.6174 13.6198 20.946 12.8884C20.2745 12.1571 19.3872 11.7914 18.2841 11.7914C17.0467 11.7914 16.0826 12.322 15.392 13.3831V13.4118H15.3776L15.392 13.3831V12.0208H12.1977C12.2169 12.3267 12.2265 13.278 12.2265 14.8745C12.2265 16.471 12.2169 18.7129 12.1977 21.6Z" fill="white"/>
</svg>
