<?xml version="1.0" encoding="utf-8"?>
<!-- Generator: Adobe Illustrator 26.0.0, SVG Export Plug-In . SVG Version: 6.00 Build 0)  -->
<svg version="1.1" id="Layer_1" xmlns="http://www.w3.org/2000/svg" xmlns:xlink="http://www.w3.org/1999/xlink" x="0px" y="0px"
	 viewBox="0 0 103.2 110.8" style="enable-background:new 0 0 103.2 110.8;" xml:space="preserve">
<style type="text/css">
	.st0{fill:#FF5757;stroke:#000000;stroke-width:1.0004;stroke-linecap:round;stroke-linejoin:round;stroke-miterlimit:4.0015;}
	.st1{stroke:#000000;stroke-width:1.0004;stroke-linecap:round;stroke-linejoin:round;stroke-miterlimit:4.0015;}
	.st2{fill:#FEFEFE;}
	.st3{fill:#FF5757;}
	.st4{fill:none;stroke:#000000;stroke-width:2.0002;stroke-miterlimit:4.0005;}
</style>
<g id="Group_332" transform="matrix(0.966, -0.259, 0.259, 0.966, -6349.994, -11186.792)">
	<g id="Group_296" transform="matrix(0.985, -0.174, 0.174, 0.985, 3244.104, 12477.107)">
		<path id="Path_557" class="st0" d="M18.4,16.6c-1,0.2-1.7,1.2-2.2,3.2l0,0c-0.4,0.9-0.2,1.9,0.4,2.7c0.3,0.3,0.6,0.5,0.9,0.6
			c-2.1,0.9-3.8,2.5-4.8,4.5l0,0c-0.1,0.3,0,0.6,0.3,0.7c0,0,0,0,0,0c0.1,0,0.1,0,0.2,0c0.2,0,0.4-0.1,0.5-0.3
			c1-2.4,3.6-3.8,5.2-4.4c-1.9,2.8-4.2,5.4-6.7,7.7C7.9,35.9,3.4,40.4,3,45.7l0,0c-0.2,2.7,0.2,5.5,1.2,8c1,2.8,10.7,9.7,13.7,9.7
			h29c6.2-0.1,11.6-4,13.8-9.7c1-2.6,1.4-5.3,1.2-8c-0.4-5.4-4.9-9.8-9.2-14.2c-2.6-2.6-5.2-5.1-6.7-7.7c1.6,0.6,4.2,2,5.2,4.4l0,0
			c0.1,0.2,0.3,0.3,0.5,0.3c0.1,0,0.1,0,0.2,0c0.3-0.1,0.4-0.4,0.3-0.7c0,0,0,0,0,0c-1-2.1-2.7-3.7-4.8-4.5c0.4-0.1,0.7-0.4,1-0.6
			c0.6-0.8,0.8-1.8,0.4-2.7c-0.6-2-1.3-3.1-2.2-3.2l0,0c-0.8-0.1-1.5,0.2-2,0.8c0.4-1.8,1.2-3.5,2.5-4.9c0.1-0.2,0.2-0.4,0.1-0.6
			c-0.1-0.2-0.3-0.3-0.5-0.3h-0.1C46.8,11,47,10.4,47,9.8c0-2.2-1.8-4.1-4-4.1c0,0,0,0,0,0c-0.3,0-0.5,0-0.8,0.1
			c-0.7-2.1-3-3.2-5.1-2.5c-1.1,0.4-2,1.2-2.4,2.2c-0.6-0.1-1.2-0.1-1.8,0c-0.7-0.6-1.6-0.9-2.6-0.9c-0.5,0-0.9,0.1-1.3,0.2
			c-0.8-2.1-3.2-3.1-5.3-2.3C22,3.2,21,4.7,21,6.3c0,0.2,0,0.4,0.1,0.6c-1.5,0.7-2.4,2.1-2.4,3.7c0,0.3,0,0.6,0.1,0.9h-0.4
			c-0.3,0-0.6,0.2-0.6,0.5c0,0.1,0,0.3,0.1,0.4c1.3,1.4,2.2,3.1,2.6,5C20,16.9,19.2,16.5,18.4,16.6L18.4,16.6z M46.4,17.7
			c0.3,0.1,0.8,0.4,1.4,2.4c0.2,0.5,0.2,1.2-0.1,1.7c-0.7,0.5-1.5,0.7-2.3,0.5l0,0c-0.4-1-0.7-2.1-0.8-3.1
			C45.6,17.8,46.1,17.7,46.4,17.7L46.4,17.7z M41.3,7.4l0.1-0.1l0,0c0.2-0.1,0.3-0.2,0.5-0.3c1.5-0.5,3.2,0.3,3.8,1.8
			c0.1,0.3,0.2,0.6,0.2,1c0,0.6-0.2,1.2-0.6,1.8h-1.9c0-0.2,0-0.3-0.1-0.5l0-0.1c0-0.1-0.1-0.2-0.1-0.3s-0.1-0.1-0.1-0.2
			c0-0.1-0.1-0.2-0.1-0.3c0-0.1-0.1-0.1-0.1-0.2c0-0.1-0.1-0.2-0.2-0.2c0-0.1,0-0.1-0.1-0.2c-0.1-0.1-0.1-0.2-0.2-0.2l-0.1-0.1
			L42.1,9l-0.2-0.1c-0.1-0.1-0.3-0.2-0.4-0.3c-0.1-0.1-0.3-0.2-0.5-0.2l-0.1-0.1c-0.1-0.1-0.2-0.1-0.4-0.1h-0.1
			c0.1-0.2,0.2-0.3,0.3-0.4l0.1-0.1l0,0C41,7.6,41.2,7.5,41.3,7.4L41.3,7.4z M42.3,11.5h-5.8v-0.1c0-0.1,0.1-0.3,0.1-0.4l0.1-0.1
			c0.1-0.2,0.1-0.3,0.3-0.5c0.6-0.8,1.5-1.3,2.4-1.3h0.2c0.5,0,0.9,0.2,1.3,0.4c0.2,0.1,0.3,0.2,0.5,0.3c0,0,0.1,0.1,0.1,0.1
			c0.1,0.1,0.2,0.3,0.4,0.4l0.1,0.1c0.1,0.1,0.2,0.3,0.3,0.4v0C42.2,11.1,42.2,11.3,42.3,11.5C42.3,11.5,42.3,11.5,42.3,11.5
			L42.3,11.5z M38.3,4.2L38.3,4.2c1.3,0,2.4,0.8,2.8,2l-0.1,0l0,0c-0.2,0.1-0.3,0.2-0.4,0.3l-0.1,0.1c-0.2,0.1-0.3,0.2-0.4,0.4L40,7
			l0,0c-0.1,0.1-0.2,0.3-0.3,0.4l-0.1,0.1c-0.1,0.2-0.2,0.3-0.3,0.5c-0.2,0-0.4,0-0.5,0.1h-0.1c-0.2,0-0.4,0.1-0.6,0.2H38
			c-0.1,0.1-0.3,0.1-0.4,0.2c0,0,0-0.1,0-0.1c-0.1-0.2-0.1-0.4-0.2-0.6V7.6C37.2,7.4,37.1,7.2,37,7l-0.1-0.2l0,0
			c-0.1-0.2-0.3-0.3-0.4-0.4l-0.1-0.1c-0.2-0.2-0.4-0.3-0.6-0.4C36.2,4.9,37.2,4.2,38.3,4.2L38.3,4.2z M33.5,11L33.5,11L33.5,11
			c0.1-0.2,0.2-0.3,0.3-0.5c0,0,0-0.1,0.1-0.1C33.9,10.2,34,10,34,9.8c0.1-0.2,0.1-0.4,0.1-0.5V9.2c0-0.2,0-0.4,0-0.6
			c0-0.2,0-0.5-0.1-0.7l0-0.2c0-0.2-0.1-0.4-0.2-0.6V7l0,0c-0.1-0.2-0.2-0.3-0.3-0.5c0.4,0,0.7,0.1,1.1,0.2c0.1,0.1,0.3,0.1,0.4,0.2
			L35.2,7l0.2,0.2l0.1,0.1l0.2,0.2l0.1,0.1c0.1,0.1,0.1,0.2,0.2,0.2l0.1,0.1l0,0c0.1,0.1,0.1,0.2,0.2,0.3c0,0,0,0.1,0,0.1
			c0,0.1,0.1,0.2,0.1,0.3v0.1c0,0.1,0.1,0.2,0.1,0.3v0.3l-0.1,0.1l-0.1,0.1l0,0c-0.1,0.1-0.2,0.2-0.3,0.4c-0.1,0.2-0.2,0.3-0.3,0.5
			l-0.1,0.1c-0.1,0.1-0.1,0.3-0.2,0.4c0,0,0,0.1,0,0.1c0,0.2-0.1,0.3-0.1,0.5v0.1H33l0.1-0.1l0,0c0,0,0.1-0.1,0.1-0.1
			C33.3,11.3,33.4,11.1,33.5,11L33.5,11z M28.3,6.3L28.3,6.3c0.1-0.1,0.3-0.2,0.5-0.3c1.1-0.6,2.5-0.4,3.5,0.5
			c0.6,0.6,0.9,1.3,0.9,2.1c0,0.1,0,0.3,0,0.4v0.1c0,0.1,0,0.2-0.1,0.3l0,0c0,0,0,0.1,0,0.1c0,0.1-0.1,0.2-0.1,0.3v0.1l0,0
			c-0.1,0.1-0.1,0.2-0.2,0.3c0,0,0,0.1-0.1,0.1l-0.2,0.2l-0.1,0.1c-0.1,0.1-0.2,0.1-0.2,0.2L32,11l0,0c0-0.2-0.1-0.5-0.1-0.7v-0.1
			c-0.1-0.2-0.1-0.4-0.2-0.6c0,0,0-0.1-0.1-0.1c-0.1-0.2-0.2-0.4-0.4-0.6l-0.2,0c-0.1-0.2-0.3-0.4-0.5-0.5c-0.6-0.6-1.5-0.9-2.3-1
			h-0.7c0.1-0.1,0.1-0.3,0.2-0.4c0.1-0.1,0.2-0.3,0.4-0.4L28.3,6.3z M26.6,9.5L26.6,9.5c-0.1-0.2-0.1-0.4-0.2-0.6l0,0
			c0.5-0.3,1.2-0.5,1.8-0.4c1.5,0.2,2.7,1.4,2.7,3v0.1h-0.1c-0.2,0-0.4,0.1-0.6,0.1h-3.5c0-0.1,0-0.2,0.1-0.3v-0.6l0,0
			C26.8,10.3,26.7,9.9,26.6,9.5L26.6,9.5z M25.1,3.3L25.1,3.3c1.3,0,2.4,0.8,2.8,2c-0.2,0.1-0.3,0.3-0.5,0.4c0,0-0.1,0.1-0.1,0.1
			C27.1,6,27,6.1,26.9,6.3c0,0,0,0,0,0.1c-0.1,0.2-0.2,0.3-0.3,0.5c0,0,0,0.1-0.1,0.1l0,0c-0.1,0.2-0.2,0.4-0.2,0.6c0,0,0,0,0,0
			c-0.1,0-0.2,0.1-0.3,0.1l-0.2,0.1l-0.1,0l-0.1,0c-0.8-0.8-1.8-1.3-3-1.3c-0.2,0-0.4,0-0.5,0h-0.1c0-0.1,0-0.2,0-0.3
			C22.2,4.7,23.5,3.4,25.1,3.3L25.1,3.3z M21.9,7.7L21.9,7.7c1.2-0.4,2.6,0.1,3.3,1.2c0.2,0.3,0.3,0.5,0.4,0.8
			c0.1,0.5,0.2,0.9,0.1,1.4c0,0.1,0,0.1,0,0.2c0,0.1,0,0.1-0.1,0.2h-5.6C19.4,9.9,20.3,8.3,21.9,7.7C21.8,7.8,21.9,7.8,21.9,7.7
			L21.9,7.7z M20.6,19.2c-0.1,1.1-0.4,2.2-0.8,3.2c-0.8,0.2-1.7,0-2.4-0.5l0,0c-0.3-0.5-0.4-1.1-0.1-1.7c0.5-2,1.1-2.4,1.4-2.4
			C18.9,17.7,19.4,17.8,20.6,19.2L20.6,19.2z"/>
		<path id="Path_496" class="st1" d="M53.3,7.7c2.2,0,4.1,1.8,4.1,4c0,0,0,0,0,0.1c0,0.3,0.2,0.6,0.6,0.6c0.3,0,0.6-0.2,0.6-0.6
			c0-2.2,1.8-4.1,4.1-4.1c0,0,0,0,0,0c0.3,0,0.6-0.2,0.6-0.6c0-0.3-0.2-0.6-0.6-0.6c-2.2,0-4.1-1.8-4.1-4.1C58.5,2.3,58.3,2,58,2
			s-0.6,0.2-0.6,0.6c0,2.2-1.8,4.1-4.1,4.1c-0.3,0-0.6,0.2-0.6,0.6C52.8,7.5,53.1,7.7,53.3,7.7L53.3,7.7z M58,4.9L58,4.9
			c0.5,1,1.3,1.8,2.3,2.3c-1,0.5-1.8,1.3-2.3,2.3c-0.5-1-1.3-1.8-2.3-2.3C56.6,6.6,57.4,5.8,58,4.9z"/>
		<path id="Path_497" class="st1" d="M0.6,24.8c2.2-0.1,4.1,1.7,4.2,3.9c0,0.3,0.3,0.5,0.5,0.5c0.3,0,0.5-0.3,0.5-0.6
			c-0.1-2.2,1.7-4.1,3.9-4.2c0.3,0,0.5-0.3,0.5-0.6c0-0.3-0.3-0.5-0.6-0.5c0,0,0,0,0,0c-2.2,0.1-4.1-1.7-4.2-3.9
			c0-0.3-0.2-0.6-0.6-0.6c-0.3,0-0.6,0.2-0.6,0.6c0.1,2.2-1.7,4.1-3.9,4.2c-0.3,0-0.5,0.3-0.5,0.6S0.3,24.8,0.6,24.8z M4.2,23.1
			c0.4-0.4,0.7-0.9,0.9-1.4c0.5,1,1.4,1.7,2.4,2.2c-0.5,0.3-0.9,0.6-1.3,1c-0.4,0.4-0.7,0.9-0.9,1.4c-0.5-1-1.4-1.7-2.4-2.2
			C3.4,23.9,3.8,23.5,4.2,23.1L4.2,23.1z"/>
		<path id="Path_498" class="st1" d="M51,21.1c1.6,0,3,1.3,3,3l0,0c0,0.3,0.2,0.6,0.6,0.6c0.3,0,0.6-0.2,0.6-0.6c0,0,0,0,0,0
			c0-1.6,1.3-3,3-3c0,0,0,0,0,0c0.3,0,0.6-0.2,0.6-0.6c0-0.3-0.2-0.6-0.6-0.6c-1.6,0-3-1.3-3-3c0,0,0,0,0,0c0-0.3-0.2-0.6-0.6-0.6
			c-0.3,0-0.6,0.2-0.6,0.6c0,0,0,0,0,0c0,1.6-1.3,3-3,3c0,0,0,0,0,0c-0.3,0-0.6,0.2-0.6,0.6C50.4,20.9,50.7,21.1,51,21.1z
			 M54.5,19.1c0.4,0.6,0.9,1.1,1.5,1.5c-0.6,0.4-1.1,0.9-1.5,1.5c-0.4-0.6-0.9-1.1-1.5-1.5C53.6,20.2,54.1,19.7,54.5,19.1L54.5,19.1
			z"/>
		<path id="Path_499" class="st1" d="M9.8,4.6c1.6,0,3,1.3,3,3c0,0,0,0,0,0c0,0.3,0.2,0.6,0.6,0.6c0.3,0,0.6-0.2,0.6-0.6
			c0-1.6,1.3-3,3-3c0,0,0,0,0,0c0.3,0,0.6-0.2,0.6-0.6c0-0.3-0.2-0.6-0.6-0.6c0,0,0,0,0,0c-1.6,0-3-1.3-3-3c0,0,0,0,0,0
			c0-0.3-0.2-0.6-0.6-0.6c-0.3,0-0.6,0.2-0.6,0.6c0,1.6-1.3,3-3,3c0,0,0,0,0,0c-0.3,0-0.6,0.2-0.6,0.6C9.2,4.4,9.5,4.6,9.8,4.6z
			 M13.3,2.6c0.4,0.6,0.9,1.1,1.5,1.4c-0.6,0.4-1.1,0.9-1.5,1.5c-0.4-0.6-0.9-1.1-1.5-1.5C12.4,3.7,12.9,3.2,13.3,2.6z"/>
		<path id="Path_500" class="st1" d="M18.4,16.6c-1,0.2-1.7,1.2-2.2,3.2l0,0c-0.4,0.9-0.2,1.9,0.4,2.7c0.3,0.3,0.6,0.5,0.9,0.6
			c-2.1,0.9-3.8,2.5-4.8,4.5l0,0c-0.1,0.3,0,0.6,0.3,0.7c0,0,0,0,0,0c0.1,0,0.1,0,0.2,0c0.2,0,0.4-0.1,0.5-0.3
			c1-2.4,3.6-3.8,5.2-4.4c-1.9,2.8-4.2,5.4-6.7,7.7C7.9,35.9,3.4,40.4,3,45.7l0,0c-0.2,2.7,0.2,5.5,1.2,8c2.1,5.8,7.6,9.6,13.7,9.7
			h29c6.2-0.1,11.6-4,13.8-9.7c1-2.6,1.4-5.3,1.2-8c-0.4-5.4-4.9-9.8-9.2-14.2c-2.6-2.6-5.2-5.1-6.7-7.7c1.6,0.6,4.2,2,5.2,4.4l0,0
			c0.1,0.2,0.3,0.3,0.5,0.3c0.1,0,0.1,0,0.2,0c0.3-0.1,0.4-0.4,0.3-0.7c0,0,0,0,0,0c-1-2.1-2.7-3.7-4.8-4.5c0.4-0.1,0.7-0.4,1-0.6
			c0.6-0.8,0.8-1.8,0.4-2.7c-0.6-2-1.3-3.1-2.2-3.2l0,0c-0.8-0.1-1.5,0.2-2,0.8c0.4-1.8,1.2-3.5,2.5-4.9c0.1-0.2,0.2-0.4,0.1-0.6
			c-0.1-0.2-0.3-0.3-0.5-0.3h-0.1C46.8,11,47,10.4,47,9.8c0-2.2-1.8-4.1-4-4.1c0,0,0,0,0,0c-0.3,0-0.5,0-0.8,0.1
			c-0.7-2.1-3-3.2-5.1-2.5c-1.1,0.4-2,1.2-2.4,2.2c-0.6-0.1-1.2-0.1-1.8,0c-0.7-0.6-1.6-0.9-2.6-0.9c-0.5,0-0.9,0.1-1.3,0.2
			c-0.8-2.1-3.2-3.1-5.3-2.3C22,3.2,21,4.7,21,6.3c0,0.2,0,0.4,0.1,0.6c-1.5,0.7-2.4,2.1-2.4,3.7c0,0.3,0,0.6,0.1,0.9h-0.4
			c-0.3,0-0.6,0.2-0.6,0.5c0,0.1,0,0.3,0.1,0.4c1.3,1.4,2.2,3.1,2.6,5C20,16.9,19.2,16.5,18.4,16.6L18.4,16.6z M52,32.3
			c4.2,4.2,8.6,8.5,8.9,13.5c0.2,2.6-0.2,5.1-1.1,7.5c-1.2,3.1-3.4,5.6-6.2,7.3c3.5-3,5.3-7.5,4.9-12.1c0-0.3-0.3-0.5-0.6-0.5
			c-0.3,0-0.5,0.3-0.5,0.6c0.7,9.4-7.2,13.1-8.1,13.5l0,0c-0.7,0.1-1.5,0.2-2.2,0.2H21.2C9.9,60,10.8,51.1,10.9,50.7l0,0
			c0-0.3-0.2-0.6-0.5-0.6c-0.3,0-0.5,0.2-0.6,0.5c-0.3,5.2,2.8,10,7.7,11.8l0,0C12,62,7.2,58.5,5.3,53.3c-1-2.4-1.4-5-1.2-7.6
			c0.4-5,4.7-9.3,8.9-13.5c2.9-2.8,5.7-5.7,7.4-8.8l0,0c3.4,1.3,7,1.9,10.6,1.8c4.6,0,9.1-0.7,13.5-1.9C46.2,26.6,49.1,29.5,52,32.3
			L52,32.3z M46.4,17.7c0.3,0.1,0.8,0.4,1.4,2.4c0.2,0.5,0.2,1.2-0.1,1.7c-0.7,0.5-1.5,0.7-2.3,0.5l0,0c-0.4-1-0.7-2.1-0.8-3.1
			C45.6,17.8,46.1,17.7,46.4,17.7L46.4,17.7z M41.3,7.4l0.1-0.1l0,0c0.2-0.1,0.3-0.2,0.5-0.3c1.5-0.5,3.2,0.3,3.8,1.8
			c0.1,0.3,0.2,0.6,0.2,1c0,0.6-0.2,1.2-0.6,1.8h-1.9c0-0.2,0-0.3-0.1-0.5l0-0.1c0-0.1-0.1-0.2-0.1-0.3s-0.1-0.1-0.1-0.2
			c0-0.1-0.1-0.2-0.1-0.3c0-0.1-0.1-0.1-0.1-0.2c0-0.1-0.1-0.2-0.2-0.2c0-0.1,0-0.1-0.1-0.2c-0.1-0.1-0.1-0.2-0.2-0.2l-0.1-0.1
			L42.1,9l-0.2-0.1c-0.1-0.1-0.3-0.2-0.4-0.3c-0.1-0.1-0.3-0.2-0.5-0.2l-0.1-0.1c-0.1-0.1-0.2-0.1-0.4-0.1h-0.1
			c0.1-0.2,0.2-0.3,0.3-0.4l0.1-0.1l0,0C41,7.6,41.2,7.5,41.3,7.4L41.3,7.4z M42.3,11.5h-5.8v-0.1c0-0.1,0.1-0.3,0.1-0.4l0.1-0.1
			c0.1-0.2,0.1-0.3,0.3-0.5c0.6-0.8,1.5-1.3,2.4-1.3h0.2c0.5,0,0.9,0.2,1.3,0.4c0.2,0.1,0.3,0.2,0.5,0.3c0,0,0.1,0.1,0.1,0.1
			c0.1,0.1,0.2,0.3,0.4,0.4l0.1,0.1c0.1,0.1,0.2,0.3,0.3,0.4v0C42.2,11.1,42.2,11.3,42.3,11.5C42.3,11.5,42.3,11.5,42.3,11.5
			L42.3,11.5z M38.3,4.2L38.3,4.2c1.3,0,2.4,0.8,2.8,2l-0.1,0l0,0c-0.2,0.1-0.3,0.2-0.4,0.3l-0.1,0.1c-0.2,0.1-0.3,0.2-0.4,0.4L40,7
			l0,0c-0.1,0.1-0.2,0.3-0.3,0.4l-0.1,0.1c-0.1,0.2-0.2,0.3-0.3,0.5c-0.2,0-0.4,0-0.5,0.1h-0.1c-0.2,0-0.4,0.1-0.6,0.2H38
			c-0.1,0.1-0.3,0.1-0.4,0.2c0,0,0-0.1,0-0.1c-0.1-0.2-0.1-0.4-0.2-0.6V7.6C37.2,7.4,37.1,7.2,37,7l-0.1-0.2l0,0
			c-0.1-0.2-0.3-0.3-0.4-0.4l-0.1-0.1c-0.2-0.2-0.4-0.3-0.6-0.4C36.2,4.9,37.2,4.2,38.3,4.2L38.3,4.2z M33.5,11L33.5,11L33.5,11
			c0.1-0.2,0.2-0.3,0.3-0.5c0,0,0-0.1,0.1-0.1C33.9,10.2,34,10,34,9.8c0.1-0.2,0.1-0.4,0.1-0.5V9.2c0-0.2,0-0.4,0-0.6
			c0-0.2,0-0.5-0.1-0.7l0-0.2c0-0.2-0.1-0.4-0.2-0.6V7l0,0c-0.1-0.2-0.2-0.3-0.3-0.5c0.4,0,0.7,0.1,1.1,0.2c0.1,0.1,0.3,0.1,0.4,0.2
			L35.2,7l0.2,0.2l0.1,0.1l0.2,0.2l0.1,0.1c0.1,0.1,0.1,0.2,0.2,0.2l0.1,0.1l0,0c0.1,0.1,0.1,0.2,0.2,0.3c0,0,0,0.1,0,0.1
			c0,0.1,0.1,0.2,0.1,0.3v0.1c0,0.1,0.1,0.2,0.1,0.3v0.3l-0.1,0.1l-0.1,0.1l0,0c-0.1,0.1-0.2,0.2-0.3,0.4c-0.1,0.2-0.2,0.3-0.3,0.5
			l-0.1,0.1c-0.1,0.1-0.1,0.3-0.2,0.4c0,0,0,0.1,0,0.1c0,0.2-0.1,0.3-0.1,0.5v0.1H33l0.1-0.1l0,0c0,0,0.1-0.1,0.1-0.1
			C33.3,11.3,33.4,11.1,33.5,11L33.5,11z M28.3,6.3L28.3,6.3c0.1-0.1,0.3-0.2,0.5-0.3c1.1-0.6,2.5-0.4,3.5,0.5
			c0.6,0.6,0.9,1.3,0.9,2.1c0,0.1,0,0.3,0,0.4v0.1c0,0.1,0,0.2-0.1,0.3l0,0c0,0,0,0.1,0,0.1c0,0.1-0.1,0.2-0.1,0.3v0.1l0,0
			c-0.1,0.1-0.1,0.2-0.2,0.3c0,0,0,0.1-0.1,0.1l-0.2,0.2l-0.1,0.1c-0.1,0.1-0.2,0.1-0.2,0.2L32,11l0,0c0-0.2-0.1-0.5-0.1-0.7v-0.1
			c-0.1-0.2-0.1-0.4-0.2-0.6c0,0,0-0.1-0.1-0.1c-0.1-0.2-0.2-0.4-0.4-0.6l-0.2,0c-0.1-0.2-0.3-0.4-0.5-0.5c-0.6-0.6-1.5-0.9-2.3-1
			h-0.7c0.1-0.1,0.1-0.3,0.2-0.4c0.1-0.1,0.2-0.3,0.4-0.4L28.3,6.3z M26.6,9.5L26.6,9.5c-0.1-0.2-0.1-0.4-0.2-0.6l0,0
			c0.5-0.3,1.2-0.5,1.8-0.4c1.5,0.2,2.7,1.4,2.7,3v0.1h-0.1c-0.2,0-0.4,0.1-0.6,0.1h-3.5c0-0.1,0-0.2,0.1-0.3v-0.6l0,0
			C26.8,10.3,26.7,9.9,26.6,9.5L26.6,9.5z M25.1,3.3L25.1,3.3c1.3,0,2.4,0.8,2.8,2c-0.2,0.1-0.3,0.3-0.5,0.4c0,0-0.1,0.1-0.1,0.1
			C27.1,6,27,6.1,26.9,6.3c0,0,0,0,0,0.1c-0.1,0.2-0.2,0.3-0.3,0.5c0,0,0,0.1-0.1,0.1l0,0c-0.1,0.2-0.2,0.4-0.2,0.6c0,0,0,0,0,0
			c-0.1,0-0.2,0.1-0.3,0.1l-0.2,0.1l-0.1,0l-0.1,0c-0.8-0.8-1.8-1.3-3-1.3c-0.2,0-0.4,0-0.5,0h-0.1c0-0.1,0-0.2,0-0.3
			C22.2,4.7,23.5,3.4,25.1,3.3L25.1,3.3z M21.9,7.8L21.9,7.8c1.2-0.4,2.6,0.1,3.3,1.2c0.2,0.3,0.3,0.5,0.4,0.8
			c0.1,0.5,0.2,0.9,0.1,1.4c0,0.1,0,0.1,0,0.2c0,0.1,0,0.1-0.1,0.2h-5.6C19.4,9.9,20.3,8.3,21.9,7.8C21.8,7.8,21.9,7.8,21.9,7.8
			L21.9,7.8z M19.5,12.6h26c-1.4,1.8-2.2,4.1-2.2,6.4c0,0,0,0,0,0c0,1.2,0.3,2.3,0.7,3.4c-2.8,0.7-14.6,3.5-23.2,0.1
			C22.2,19.5,22.1,16.3,19.5,12.6L19.5,12.6z M20.6,19.2c-0.1,1.1-0.4,2.2-0.8,3.2c-0.8,0.2-1.7,0-2.4-0.5l0,0
			c-0.3-0.5-0.4-1.1-0.1-1.7c0.5-2,1.1-2.4,1.4-2.4C18.9,17.7,19.4,17.8,20.6,19.2L20.6,19.2z"/>
		<path id="Path_501" class="st1" d="M32.5,31.9c-7.3,0-13.3,5.9-13.3,13.3c0,7.3,5.9,13.3,13.3,13.3s13.3-5.9,13.3-13.3
			c0-3.5-1.4-6.9-3.9-9.4C39.4,33.3,36,31.9,32.5,31.9z M32.5,57.3c-6.7,0-12.2-5.4-12.2-12.1S25.8,33,32.5,33
			c6.7,0,12.2,5.4,12.2,12.1c0,3.2-1.3,6.3-3.6,8.6C38.8,56,35.7,57.3,32.5,57.3z"/>
		<path id="Path_502" class="st1" d="M33.7,39.6H33v-2c0-0.3-0.2-0.6-0.6-0.6c-0.3,0-0.6,0.2-0.6,0.6v1.9h-0.6c-1.6,0-2.8,1-2.8,2.2
			v1.7c0.2,1.4,1.4,2.4,2.8,2.2h2.3c0.9,0,1.7,0.5,1.7,1.1v1.7c0,0.6-0.7,1.1-1.7,1.1h-2.3c-0.9,0-1.7-0.5-1.7-1.1v-0.9
			c0-0.3-0.2-0.6-0.6-0.6c-0.3,0-0.6,0.2-0.6,0.6v0.9c0,1.2,1.2,2.2,2.8,2.2h0.6v1.9c0,0.3,0.2,0.6,0.6,0.6c0.3,0,0.6-0.2,0.6-0.6
			v-1.9h0.6c1.6,0,2.8-1,2.8-2.2v-1.7c-0.2-1.4-1.4-2.4-2.8-2.2h-2.3c-0.9,0-1.7-0.5-1.7-1.1v-1.7c0-0.6,0.7-1.1,1.7-1.1h2.3
			c0.9,0,1.7,0.5,1.7,1.1v0.9c0,0.3,0.2,0.6,0.6,0.6c0.3,0,0.6-0.2,0.6-0.6v-0.9C36.4,40.6,35.2,39.6,33.7,39.6z"/>
	</g>
	<path id="Path_556" class="st2" d="M3313.9,12526.7c-1.8-1.2-4.5-0.7-8.1,1.5c-3.5,2.2-7.7,4.9-11.7,7.3c0.1-0.3,0.1-0.6,0.1-1
		c-0.1-2.9-2.4-5.2-5.3-5.2c-2-0.3-26-3.5-30.7-3.5c-3.2,0-12.2,2.8-19.8,5.3v-4.3c0-0.6-0.5-1.1-1.1-1.1c0,0,0,0,0,0h-18.4
		c-0.6,0-1.1,0.5-1.1,1.1c0,0,0,0,0,0v29.4c0,0.6,0.5,1.1,1.1,1.1c0,0,0,0,0,0h18.4c0.6,0,1.1-0.5,1.1-1.1c0,0,0,0,0,0v-6.5
		c2.5-0.9,5.1-1.5,7.8-1.8c2,0,10.3,3,17,5.4c8.2,3,13.3,4.8,15.1,4.8c0.5,0,1.5,0,7.7-3.7c3.3-2,7.7-4.8,12.3-8
		c4.3-2.9,8.5-5.9,11.7-8.3c5.5-4.1,5.6-4.7,5.8-5.1C3315.9,12531.9,3316.2,12528.3,3313.9,12526.7L3313.9,12526.7z M3287.3,12539.8
		c-2.2,1.3-3.8,2.4-4.6,2.8l-5-2.8H3287.3z"/>
	<path id="Path_553" d="M3313.9,12526.7c-1.8-1.2-4.5-0.7-8.1,1.5c-3.5,2.2-7.7,4.9-11.7,7.3c0.1-0.3,0.1-0.6,0.1-1
		c-0.1-2.9-2.4-5.2-5.3-5.2c-2-0.3-26-3.5-30.7-3.5c-3.2,0-12.2,2.8-19.8,5.3v-4.3c0-0.6-0.5-1.1-1.1-1.1c0,0,0,0,0,0h-18.4
		c-0.6,0-1.1,0.5-1.1,1.1c0,0,0,0,0,0v29.4c0,0.6,0.5,1.1,1.1,1.1c0,0,0,0,0,0h18.4c0.6,0,1.1-0.5,1.1-1.1c0,0,0,0,0,0v-6.5
		c2.5-0.9,5.1-1.5,7.8-1.8c2,0,10.3,3,17,5.4c8.2,3,13.3,4.8,15.1,4.8c0.5,0,1.5,0,7.7-3.7c3.3-2,7.7-4.8,12.3-8
		c4.3-2.9,8.5-5.9,11.7-8.3c5.5-4.1,5.6-4.7,5.8-5.1C3315.9,12531.9,3316.2,12528.3,3313.9,12526.7L3313.9,12526.7z M3236.1,12555.2
		H3220v-27.3h16.2L3236.1,12555.2z M3313.5,12532.6c-0.9,1.1-7.8,6.3-17,12.5c-10.9,7.5-17.1,11-18.2,11.1c-1.4,0-8.3-2.5-14.3-4.7
		c-9.3-3.4-15.6-5.6-17.8-5.6c-2.7,0.2-5.3,0.7-7.8,1.6v-14.1c10.3-3.5,17.5-5.5,19.8-5.5c4.6,0,30.2,3.5,30.5,3.5
		c0.1,0,0.1,0,0.2,0l0,0c1.7-0.1,3.1,1.2,3.1,2.9c0.1,1.7-1.2,3.1-2.9,3.1c-0.1,0-0.1,0-0.2,0h-21.4c-0.6,0-1.1,0.5-1.1,1
		s0.5,1.1,1,1.1c0,0,0,0,0.1,0h5.8l8.9,5c0.3,0.2,0.7,0.2,1,0.1c0.7-0.3,15.3-9.4,23.9-14.8c2.6-1.6,4.6-2.2,5.6-1.5
		C3313.6,12529.2,3313.7,12531.4,3313.5,12532.6L3313.5,12532.6z M3287.3,12539.8c-2.2,1.3-3.8,2.4-4.6,2.8l-5-2.8H3287.3z"/>
	<g id="Ellipse_63" transform="translate(3222.627 12529.964)">
		<circle class="st3" cx="5" cy="5" r="5"/>
		<circle class="st4" cx="5" cy="5" r="4"/>
	</g>
</g>
</svg>
