<?xml version="1.0" encoding="utf-8"?>
<!-- Generator: Adobe Illustrator 26.0.0, SVG Export Plug-In . SVG Version: 6.00 Build 0)  -->
<svg version="1.1" id="Layer_1" xmlns="http://www.w3.org/2000/svg" xmlns:xlink="http://www.w3.org/1999/xlink" x="0px" y="0px"
	 viewBox="0 0 249.3 163.9" style="enable-background:new 0 0 249.3 163.9;" xml:space="preserve">
<style type="text/css">
	.st0{fill:#FFFFFF;}
	.st1{fill:#FF5757;}
	.st2{fill:#3F3D56;}
	.st3{fill:#E6E6E6;}
	.st4{fill:#FFB6B6;}
	.st5{fill:#2F2E41;}
	.st6{fill:#A0616A;}
</style>
<g id="undraw_relaxation_re_ohkx" transform="translate(9.287 -0.391)">
	<circle id="Ellipse_70" class="st0" cx="30.2" cy="75" r="17.9"/>
	<path id="Path_638" d="M37.9,164.3H3.4l7.8-125.3l5.1-29.5l1-5c1.1-5.9,9.8-5.1,9.9,0.9c0.2,14-5.7,27.1-5.4,33.6
		c1.3,29.4,4,71.1,9.2,83.4C34.8,131.4,36.8,160.8,37.9,164.3z"/>
	<path id="Path_672" d="M-9.3,164.3H6.9l-3.7-27.8l-2.4-6.6l-0.5-1.1c-0.5-1.3-4.6-1.1-4.6,0.2c-0.1,3.1,2.7,6,2.5,7.5
		C-2.3,143-3.6,152.2-6,155C-7.8,157-8.8,163.5-9.3,164.3z"/>
	<path id="Path_673" d="M50.5,164.3H15.6l7.9-59.7l5.1-14.1l1-2.4c1.2-2.8,9.9-2.4,10,0.4c0.2,6.7-5.8,12.9-5.5,16
		c1.3,14,4,33.9,9.3,39.7C47.3,148.6,49.4,162.6,50.5,164.3z"/>
	<path id="Path_639" d="M240,163.9h-31.9l-3.4-125.3L198.3,9c-0.1-6,8.6-7,9.9-1.1l0,0c4.2,9.7,6.6,20.1,7.1,30.6
		c1.3,29.4,12.5,71.1,17.7,83.4C236.8,131.1,238.9,160.4,240,163.9z"/>
	<path id="Path_640" class="st1" d="M48.5,81.8c7.2,0.6,24,9.4,24,9.4c13,13.1,32.5,13.8,45.5,14.4c19.3,0.8,34-5.3,44.7-9.7
		c0,0,25.1-5.8,25.4-5.8c0.4,0,0.8,1,0.8,1.1c0.8,2.4-8.3,11.5-18.8,14.6c-2.9,0.7-5.6,2.1-8,3.9c-1.3,1-2.5,2.2-3.6,3.6
		c-2.8,3.5-17.8,17.1-34.8,17.7c-14.5,0.5-26.1-8.6-39.2-18.8c-5.2-4-4.6-4.3-11-9.4c-14.7-11.4-22.1-17.1-25.4-19
		c-0.5-0.3-2.1-1.2-1.9-1.7C46.4,81.6,47.9,81.7,48.5,81.8z"/>
	<path id="Path_641" class="st2" d="M46.2,82.3c-0.1,0-0.1,0-0.1,0L10.2,60c-0.1-0.1-0.2-0.2-0.1-0.4s0.2-0.2,0.4-0.1c0,0,0,0,0,0
		l35.9,22.3c0.1,0.1,0.2,0.2,0.1,0.4C46.4,82.3,46.3,82.3,46.2,82.3z"/>
	<path id="Path_642" class="st2" d="M188.1,90.3c-0.2,0-0.3-0.1-0.3-0.3c0-0.1,0.1-0.2,0.1-0.2l31.1-16.2c0.1-0.1,0.3,0,0.4,0.1
		c0.1,0.1,0,0.3-0.1,0.4l-31.1,16.2C188.2,90.3,188.2,90.3,188.1,90.3z"/>
	<g id="Group_472" transform="translate(76.026 79.5)">
		<path id="Path_646" class="st3" d="M0.9,7.3c0,0-1.8,2.8-0.3,4.4s10.2,8.1,10.2,8.1s5.5,3.4,5-1.3S7.3,8.9,7.3,8.9L0.9,7.3
			L0.9,7.3z"/>
		<path id="Path_647" class="st4" d="M15.2,0c-0.9-0.1-1.8,1-2,2.5c-0.1,0.6,0,1.2,0.2,1.7l-0.1,1.7h0l-2,7.7
			c-0.5,1.8-0.1,3.7,1.1,5.2c0.7,0.9,1.5,1.4,2.2,0.6c1.2-1.3,1.2-7.6,1.1-11.2l0.4-3.7c0.3-0.5,0.5-1.1,0.6-1.7
			C16.8,1.4,16.1,0.1,15.2,0L15.2,0z"/>
	</g>
	<g id="Group_473" transform="translate(89.238 77.76)">
		<path id="Path_648" class="st1" d="M4.8,1.4l0-0.1c0-0.1,0-0.2-0.1-0.2C4.6,1,4.5,1,4.5,1L0.6,1.9C0.5,1.9,0.4,1.9,0.4,2
			c0,0.1-0.1,0.2,0,0.3l0,0.2l0.3,1.1l1,4.3c0,0.1,0.2,0.2,0.3,0.2c0,0,0,0,0,0L5,7.4c0,0,0.1,0,0.1,0C5.2,7.3,5.3,7.1,5.3,7
			L4.8,1.4z"/>
		<path id="Path_649" class="st2" d="M4.7,0.8l-0.2,0c0-0.1,0-0.1,0-0.2L4.4,0.2C4.4,0.1,4.3,0,4.2,0C2.9,0,1.6,0.3,0.4,0.9
			C0.3,0.9,0.3,1,0.3,1.1l0,0.5c0,0.1,0,0.1,0.1,0.1c-0.1,0-0.2,0.1-0.3,0.1C0,1.9,0,2,0,2.1v0.2c0,0.1,0.1,0.2,0.2,0.2c0,0,0,0,0,0
			l4.6-1.1C4.9,1.4,5,1.3,5,1.2c0,0,0,0,0,0L4.9,0.9C4.9,0.8,4.8,0.8,4.7,0.8z"/>
	</g>
	<path id="Path_650" class="st4" d="M82,84.7l-1.2,3.9l-5.1-1.2l-0.3-6.3L82,84.7z"/>
	<path id="Path_651" class="st3" d="M74.8,86.5l6.6,0.6l2.6,2.6l3.6,3.1c1.3,2,1.8,4.5,1.5,6.9l3.6,3l-8.9,9.2l-11.3-9.5
		C72.4,102.3,68.6,90.6,74.8,86.5z"/>
	<path id="Path_652" class="st5" d="M90.3,102.9l2.6-0.3l4.2,0.3l13.9-8.3c1.7-1,4-0.5,5.1,1.2l11.2,17.8l-3.6,2.4l-11-11.3
		L98.9,116c0,0-14,7.3-15.1-4.2L90.3,102.9z"/>
	<path id="Path_653" class="st5" d="M98.9,113.3l22.3-2.1l21.1,5.4l1.2-4.5l-28.9-10.4l-10.4,2.7L98.9,113.3z"/>
	<path id="Path_654" class="st3" d="M73.9,88.9c0,0-2,2.6-0.8,4.3s9.3,9.2,9.3,9.2s5.1,4,5.1-0.7s-7.3-10.5-7.3-10.5L73.9,88.9z"/>
	<g id="Group_474" transform="translate(67.263 71.014)">
		<circle id="Ellipse_71" class="st4" cx="13" cy="8.2" r="5.7"/>
		<path id="Path_655" class="st5" d="M18.2,7.2c-1.5,0-1.5,0-1.8,0c-1.8,0-2.3-0.8-3.2-0.7c-1.6,0.1,0.5,8.2,1.4,12
			c0.9,3.7-2.1,7-2.3,7.2c-3,3.3-8.3,3.9-9.2,2.5C2.4,27.1,5,25.4,4.4,23c-0.6-2.4-3.4-2.2-4.2-4.4c-0.8-2.4,2-3.6,3.7-9.4
			c1-3.3,0.8-3.9,1.8-6C8.1-2.3,20.4,0,19.1,5.1C18.8,6.1,19.5,7.2,18.2,7.2z"/>
	</g>
	<path id="Path_656" class="st1" d="M46.7,81.9c7.2,0.6,23.9,12.7,23.9,12.7c13,13.1,32.5,13.8,45.5,14.4c19.3,0.8,34-5.3,44.7-9.7
		c0,0,22.2,3.6,24.8-5c0-0.1,0.2-0.8,0.6-0.8c0.4,0,0.8,1,0.8,1.1c0.8,2.4-8.3,11.5-18.8,14.6c-2.9,0.7-5.6,2.1-8,3.9
		c-1.3,1-2.5,2.2-3.6,3.6c-2.8,3.5-17.8,17.1-34.8,17.7c-14.5,0.5-26.1-8.6-39.2-18.8c-5.2-4-4.6-4.3-11-9.4
		C56.9,94.7,49.6,89,46.2,87.1c-0.5-0.3-1.1-5-1-5.5C45.4,81.2,46.1,81.9,46.7,81.9z"/>
	<path id="Path_657" class="st4" d="M104.8,111.4c0.4-0.8-0.3-2.1-1.7-2.7c-0.5-0.3-1.1-0.4-1.7-0.4l-1.5-0.7l0,0l-6.5-4.6
		c-1.5-1.1-3.4-1.4-5.2-0.8c-1,0.3-1.8,0.9-1.4,1.9c0.8,1.6,6.7,3.8,10.1,5l3.4,1.7c0.4,0.5,0.8,0.9,1.4,1.1
		C102.9,112.4,104.4,112.3,104.8,111.4z"/>
	<g id="Group_480" transform="translate(109.223 52.187)">
		<path id="Path_658" class="st6" d="M32.2,16.8c0,0-2.1-4.3-1.7-8.1l-7.1,3.7l0.3,7L32.2,16.8z"/>
		<circle id="Ellipse_72" class="st6" cx="25.9" cy="7.9" r="6.4"/>
		<g id="Group_475" transform="translate(20.67 93.903)">
			<path id="Path_659" class="st6" d="M13.7,15.2H9.7L7.9,0h5.8V15.2z"/>
			<path id="Path_660" class="st5" d="M0.2,15.1L0.2,15.1C0.1,15.4,0,15.8,0,16.2l0,0c0,0.7,0.6,1.3,1.3,1.3h12.2
				c0.5,0,0.9-0.4,0.9-0.9v-0.5c0.3-1.2,0.1-2.4-0.6-3.4c0,0-1.5,1.5-3.8-0.8l-0.7-1.2l-4.9,3.6l-2.7,0.3C1,14.6,0.5,14.6,0.2,15.1
				L0.2,15.1L0.2,15.1z"/>
		</g>
		<path id="Path_661" class="st3" d="M22.7,16.8l9.4-1.3l7.3,3.4l0.4,26.6c0,0-17.9,2.1-20.8-0.6s-0.7-25.1-0.7-25.1L22.7,16.8
			L22.7,16.8z"/>
		<path id="Path_662" class="st5" d="M27.5,9.6h1.7c0,0,1.5-1.8,1.3-0.7c-0.1,0.8,0.2,1.6,0.6,2.3l1.2-0.4c0,0,2.4-10.2-4.8-10.8
			s-8.9,5.1-8.9,5.1s0.4,2.8,1.2,2s5.3-1.2,5.3-1.2L27.5,9.6z"/>
		<g id="Group_476" transform="translate(6.015 65.192)">
			<path id="Path_663" class="st6" d="M12.4,13.9l-3.6,1.6L0.9,2.3L6.2,0L12.4,13.9z"/>
			<path id="Path_664" class="st5" d="M0,19.2L0,19.2c0,0.4,0.1,0.7,0.3,1.1l0,0C0.6,21,1.4,21.3,2,21l11.1-4.9
				c0.5-0.2,0.7-0.7,0.5-1.2l-0.2-0.5c-0.2-1.2-0.9-2.3-2-2.9c0,0-0.8,2-3.9,0.8l-1.1-0.9l-3,5.3l-2.4,1.4C0.6,18.5,0.1,18.6,0,19.2
				L0,19.2z"/>
		</g>
		<path id="Path_665" class="st5" d="M38.6,43l1.3,3.9v13.4l-4.2,12.1l0.3,28.3h-7.5l-0.9-28.8l0.7-14.2l-5.1-2.1L9.6,56.3L16,71.8
			l-7,4.6c0,0-10.4-23.7-8.8-26s19.8-6.4,19.8-6.4S38.6,43.4,38.6,43z"/>
		<g id="Group_477" transform="translate(30.088 18.792)">
			<path id="Path_666" class="st6" d="M12.4,8.8l2.1,3.4c0,0,2.9,11.5,0,11.6s-8.9-5.9-8.9-5.9l0.8-3.1l2.1,0.9L8.1,8.8L12.4,8.8z"
				/>
			<path id="Path_667" class="st3" d="M5.9,0.1c0,0,6.9-1.2,7.5,3.3s1,8.7,1,8.7L7,12.8L5.9,0.1z"/>
			
				<ellipse id="Ellipse_73" transform="matrix(0.5798 -0.8147 0.8147 0.5798 -10.6255 9.8937)" class="st6" cx="4.3" cy="15.2" rx="1.9" ry="3.9"/>
		</g>
		<g id="Group_478" transform="translate(19.488 23.875)">
			<path id="Path_668" class="st1" d="M7.3,2.1l0-0.2c0-0.1-0.1-0.3-0.2-0.4C7,1.5,6.9,1.5,6.8,1.5L0.9,2.8C0.7,2.8,0.6,2.9,0.6,3
				C0.5,3.2,0.5,3.3,0.5,3.4l0.1,0.2L1,5.4l1.5,6.5c0,0.2,0.2,0.4,0.5,0.4c0,0,0,0,0.1,0l4.7-1.1c0,0,0.1,0,0.1-0.1
				C7.9,11,8,10.8,8,10.6L7.3,2.1z"/>
			<path id="Path_669" class="st2" d="M7.2,1.2c-0.1,0-0.2,0-0.3,0c0-0.1,0-0.2,0-0.3L6.7,0.3C6.6,0.1,6.5,0,6.3,0
				C5.5,0,2.4,0.1,0.6,1.3C0.5,1.4,0.4,1.6,0.5,1.7l0.1,0.7c0,0.1,0,0.2,0.1,0.2C0.5,2.7,0.3,2.8,0.2,2.9C0.1,2.9,0,3,0,3.1v0.3
				c0,0.2,0.1,0.3,0.3,0.3c0,0,0,0,0.1,0l7-1.6c0.2-0.1,0.3-0.2,0.2-0.4c0,0,0,0,0,0L7.4,1.4C7.4,1.2,7.3,1.2,7.2,1.2L7.2,1.2z"/>
		</g>
		<g id="Group_479" transform="translate(10.11 19.068)">
			<path id="Path_670" class="st6" d="M3.4,8.8l-2.1,3.4c0,0-2.9,11.5,0,11.6s8.9-5.9,8.9-5.9l-0.8-3.1l-2.1,0.9l0.4-6.9L3.4,8.8z"
				/>
			<path id="Path_671" class="st3" d="M9.8,0.1c0,0-6.9-1.2-7.5,3.3s-1,8.7-1,8.7l7.4,0.6L9.8,0.1z"/>
			
				<ellipse id="Ellipse_74" transform="matrix(0.8147 -0.5798 0.5798 0.8147 -6.7169 9.4802)" class="st6" cx="11.5" cy="15.3" rx="3.9" ry="1.9"/>
		</g>
	</g>
</g>
</svg>
