<?xml version="1.0" encoding="utf-8"?>
<!-- Generator: Adobe Illustrator 26.0.0, SVG Export Plug-In . SVG Version: 6.00 Build 0)  -->
<svg version="1.1" id="undraw_photo_session_re_c0cp"
	 xmlns="http://www.w3.org/2000/svg" xmlns:xlink="http://www.w3.org/1999/xlink" x="0px" y="0px" viewBox="0 0 127 115.4"
	 style="enable-background:new 0 0 127 115.4;" xml:space="preserve">
<style type="text/css">
	.st0{fill:#FFF1F1;}
	.st1{fill:#FF5757;}
	.st2{fill:#FFFFFF;}
	.st3{fill:#3F3D56;}
	.st4{fill:#E6E6E6;}
	.st5{fill:#0B0C0E;}
	.st6{fill:#A0616A;}
	.st7{fill:#2F2E41;}
	.st8{fill:#15171B;}
	.st9{fill:#1E2127;}
</style>
<path id="Path_674" class="st0" d="M122.1,59.5c0,32.8-20,30.7-52.8,30.7c-7.3,0-20.9,27.4-27.4,25l0,0c-0.2-0.1-0.5-0.2-0.7-0.3
	c-0.1,0-0.1-0.1-0.2-0.1c-0.4-0.1-0.7-0.3-1.1-0.4c-0.8-0.3-1.5-0.6-2.2-1c-0.4-0.2-0.8-0.4-1.1-0.5c-3.5-1.7-6.8-3.8-9.9-6.1
	c-1.5-1.2-3-2.4-4.5-3.8c-1.2-1.1-2.3-2.2-3.4-3.4c-0.3-0.4-0.7-0.7-1-1.1c-0.1-0.2-0.3-0.3-0.4-0.5c-0.9-1.1-1.8-2.2-2.7-3.4
	c-0.3-0.4-0.5-0.8-0.8-1.1C-5,66.6,1.6,29.5,28.5,10.7s64-12.2,82.8,14.7C118.3,35.4,122.1,47.3,122.1,59.5z"/>
<circle id="Ellipse_79" class="st1" cx="116.6" cy="42.6" r="10.4"/>
<g id="Group_483" transform="translate(67.513 39.979)">
	<path id="Path_688" class="st2" d="M49.7,41.8H3.4c-1.9,0-3.4-1.5-3.4-3.4v-35C0,1.5,1.5,0,3.4,0h46.3c1.9,0,3.4,1.5,3.4,3.4v35
		C53.1,40.3,51.6,41.8,49.7,41.8z"/>
	<path id="Path_689" class="st3" d="M49.7,41.8H3.4c-1.9,0-3.4-1.5-3.4-3.4v-35C0,1.5,1.5,0,3.4,0h46.3c1.9,0,3.4,1.5,3.4,3.4v35
		C53.1,40.3,51.6,41.8,49.7,41.8z M3.4,0.6c-1.6,0-2.8,1.3-2.8,2.8v35c0,1.6,1.3,2.8,2.8,2.8h46.3c1.6,0,2.8-1.3,2.8-2.8v-35
		c0-1.6-1.3-2.8-2.8-2.8H3.4z"/>
	<circle id="Ellipse_80" class="st3" cx="44.6" cy="3.4" r="0.8"/>
	<circle id="Ellipse_81" class="st3" cx="46.9" cy="3.4" r="0.8"/>
	<circle id="Ellipse_82" class="st3" cx="49.1" cy="3.4" r="0.8"/>
	<path id="Path_690" class="st4" d="M4.8,17.1c-0.2,0-0.4,0.2-0.4,0.4c0,0,0,0,0,0c0,0.2,0.2,0.4,0.4,0.4h43.8
		c0.2,0,0.4-0.2,0.4-0.4c0,0,0,0,0,0c0-0.2-0.2-0.4-0.4-0.4H4.8z"/>
	<path id="Path_691" class="st1" d="M40.7,16.9v1.1H4.8c-0.3,0-0.6-0.3-0.6-0.6c0-0.3,0.3-0.6,0.6-0.6H40.7z"/>
	<path id="Path_692" class="st4" d="M47.9,14.8h-5.6c-0.6,0-1.1-0.5-1.2-1.1c0-0.6,0.5-1.1,1.1-1.2c0,0,0,0,0.1,0h5.6
		c0.6,0,1.1,0.5,1.2,1.1C49,14.3,48.6,14.8,47.9,14.8C47.9,14.8,47.9,14.8,47.9,14.8z"/>
	<path id="Path_693" class="st4" d="M10.9,8.9H5.2c-0.6,0-1.1-0.5-1.2-1.1c0-0.6,0.5-1.1,1.1-1.2c0,0,0,0,0.1,0h5.6
		c0.6,0,1.1,0.5,1.1,1.2C12,8.4,11.5,8.9,10.9,8.9z"/>
	<path id="Path_694" class="st4" d="M4.8,29.8c-0.2,0-0.4,0.2-0.4,0.4c0,0,0,0,0,0c0,0.2,0.2,0.4,0.4,0.4h43.8
		c0.2,0,0.4-0.2,0.4-0.4c0,0,0,0,0,0c0-0.2-0.2-0.4-0.4-0.4H4.8z"/>
	<path id="Path_695" class="st1" d="M18.9,29.7v1.1H4.8c-0.3,0-0.6-0.3-0.6-0.6c0-0.3,0.3-0.6,0.6-0.6H18.9z"/>
	<path id="Path_696" class="st4" d="M47.9,27.5h-5.6c-0.6,0-1.1-0.5-1.2-1.1c0-0.6,0.5-1.1,1.1-1.2c0,0,0,0,0.1,0h5.6
		c0.6,0,1.1,0.5,1.2,1.1C49,27,48.6,27.5,47.9,27.5C47.9,27.5,47.9,27.5,47.9,27.5z"/>
</g>
<g id="Group_485" transform="translate(0 47.698)">
	<g id="Group_484" transform="translate(12.329 6.51)">
		<path id="uuid-93d248a9-a94b-48d4-94d7-f43ba05ca98d-133" class="st5" d="M29,4.6c1.2-1.6,1.2-3.6,0.2-4.3s-2.8,0-4,1.6
			c-0.5,0.7-0.8,1.4-0.9,2.2l-4.8,7l3.3,2.2l4.4-7.2C28,5.8,28.6,5.3,29,4.6z"/>
		<path id="Path_697" class="st5" d="M0,13.3c3.2,6.8,8.8,17.8,12.6,19c1.3,0.4,2.6-0.5,3.9-2.2c3.7-4.9,6.8-16,7.4-18.4
			c0.1-0.3,0.1-0.4,0.1-0.4l-3.2-2L20.6,9l-4.8,6.6l-1.5,2c0,0,0.1-1,0.2-2.6L7,11.3C4.6,11.7,2.3,12.4,0,13.3L0,13.3z"/>
	</g>
	<circle id="Ellipse_83" class="st6" cx="28.3" cy="10.3" r="8.1"/>
	<path id="Path_698" class="st7" d="M23.9,62.4h-6.1C17.4,62,17,61.5,16.5,61c-0.5-0.5-0.9-1-1.3-1.5c4-0.8,7.2-1.4,7.2-1.4
		s0.1,0.3,0.3,0.7C22.9,59.6,23.4,60.9,23.9,62.4z"/>
	<path id="Path_699" class="st6" d="M30.9,17.5l-3.2,5.7l-9.2-3.4l3.6-7.1L30.9,17.5z"/>
	<path id="Path_700" class="st8" d="M36.5,10l1.7-0.2l0.4-1.1h1.8l0.1,0.6l2.8,0.6l-0.6,8.1l-1.3,1.3l-3.6-0.4l-0.4-6.4h-0.9
		L36.5,10z"/>
	<path id="Path_701" class="st8" d="M42.3,12.3l15.8-0.6l0.4,7.3l-16.7-0.9L42.3,12.3z"/>
	<path id="Path_702" class="st9" d="M31.4,9.5l0.6,2.6l1-2.6l1.3-1.2l0.5-2c0,0,3.2,3,2.8,0.8S36.9,2.9,35,2.7S31.8,3,30.9,2.5
		s-0.9-3.4-2.6-2.3s-2.1,1.9-3.4,2.1s-6-1.5-5.8,2.4s1.9,5.1,1.3,7.9c-0.6,2.8,4.7,3.2,4.7,3.2s1.9,0,1.9-2.6S31.4,9.5,31.4,9.5z"/>
	<path id="Path_703" class="st5" d="M29,42.9L29,42.9l-3.3,4.5l0,2.6l-0.1,7.7l-2.8,1.2l-1,3.5h-4.5c-0.2-0.3-0.3-0.2-0.2,0H0
		c0.6-2.3,1.8-7.3,2.9-12.5C4.5,42.8,6,35.5,6,35.5s2.4-13.3,5.1-15c0.4-0.3,0.8-0.5,1.3-0.7c0.7-0.3,1.5-0.6,2.3-0.8
		c0.4-0.1,0.8-0.2,1.2-0.3c0.3-0.1,0.5-0.1,0.8-0.2l0.4-0.1c0.2-0.1,0.5-0.1,0.7-0.2l0.2,0l0.2,0l0.2,0l0.2,0l0.2,0l0.2,0l0.1,0
		l0.1,0l0.2,0c0,0,0.1,0,0.1,0l0.1,0l0.1,0.1l0,0l7.5,3.7l1.2,0.6l0,0l0.1,0.1l0.3,0.1l0,1.1l0.3,13.1L29,42.9L29,42.9z"/>
	<path id="uuid-b31af06e-cfe4-4dea-b567-d6fb9c146d99-134" class="st6" d="M43.7,17.6c-0.2-2-1.4-3.5-2.7-3.4s-2.1,1.8-1.9,3.8
		c0.1,0.8,0.3,1.6,0.8,2.2l0.9,8.5l4-0.5L43.4,20C43.7,19.2,43.8,18.4,43.7,17.6L43.7,17.6z"/>
	<path id="Path_704" class="st5" d="M26.9,23.9c0,0,5.8-2.8,8.1,2.6s4.7,10.1,4.7,10.1L40.5,26h4.1c0,0,7.2,22.4,1.6,23.9
		S20.4,37.3,20.4,37.3L26.9,23.9z"/>
</g>
</svg>
