<?xml version="1.0" encoding="utf-8"?>
<!-- Generator: Adobe Illustrator 26.0.0, SVG Export Plug-In . SVG Version: 6.00 Build 0)  -->
<svg version="1.1" id="Layer_1" xmlns="http://www.w3.org/2000/svg" xmlns:xlink="http://www.w3.org/1999/xlink" x="0px" y="0px"
	 viewBox="0 0 42 50" style="enable-background:new 0 0 42 50;" xml:space="preserve">
<style type="text/css">
	.st0{fill:none;}
	.st1{fill:#FF5757;}
	.st2{fill:#FFFFFF;}
	.st3{fill:none;stroke:#707070;}
</style>
<g id="Group_422" transform="translate(6173 2051.211)">
	<rect id="Rectangle_179" x="-6173" y="-2051.2" class="st0" width="42" height="50"/>
	<g id="Group_424" transform="translate(-273.5 227.295)">
		<g id="Group_443" transform="translate(-5899.5 -2278.506)">
			<g id="Group_442" transform="translate(10.169)">
				<g id="Group_441">
					<path id="Path_611" class="st1" d="M25.9,10.6h-0.4c-0.9,0-1.8-0.3-2.4-0.9c-0.8-0.7-1.2-1.7-1.2-2.7V0H2C0.9,0,0,0.9,0,2
						C0,2,0,2,0,2v35.3c0,1.1,0.9,2,2,2c0,0,0,0,0.1,0h27.8c1.1,0,2-0.9,2-2c0,0,0,0,0-0.1V9.9L25.9,10.6z"/>
					<path id="Path_612" class="st1" d="M25.7,8.9l5.1-0.5l-7.3-7.3v5.8c0,0.6,0.2,1.1,0.6,1.5C24.5,8.7,25.1,8.9,25.7,8.9L25.7,8.9
						z"/>
				</g>
			</g>
			<g id="Rectangle_180" transform="translate(6.343 22.089)">
				<rect x="0" y="0" class="st2" width="20" height="17"/>
				<rect x="0.5" y="0.5" class="st3" width="19" height="16"/>
			</g>
			<path id="Path_613" d="M32.9,17.1c0-0.4-0.4-0.8-0.8-0.8c-5.5,0.2-10.8-1.6-15.1-5c-0.3-0.3-0.7-0.3-1,0c-4.3,3.4-9.6,5.2-15.1,5
				c-0.4,0-0.8,0.3-0.8,0.8c-0.3,8-0.1,18.2,3.4,22.9c3.6,5,11.3,9.3,13.1,9.9c1.8-0.6,9.4-4.9,13.1-9.9
				C33.1,35.3,33.2,25.2,32.9,17.1L32.9,17.1z M23.5,26.6l-8.1,8.9c-0.2,0.2-0.5,0.4-0.9,0.4h0c-0.3,0-0.6-0.1-0.9-0.4l-4.2-4.3
				C9,30.8,9,30.1,9.4,29.6c0.4-0.5,1.2-0.6,1.7-0.1c0.1,0,0.1,0.1,0.1,0.1l3.3,3.4l7.2-8l0,0c0.4-0.5,1.2-0.5,1.7-0.1
				C23.9,25.3,24,26.1,23.5,26.6L23.5,26.6z"/>
		</g>
	</g>
</g>
</svg>
