<?xml version="1.0" encoding="utf-8"?>
<!-- Generator: Adobe Illustrator 26.0.0, SVG Export Plug-In . SVG Version: 6.00 Build 0)  -->
<svg version="1.1" id="Layer_1" xmlns="http://www.w3.org/2000/svg" xmlns:xlink="http://www.w3.org/1999/xlink" x="0px" y="0px"
	 viewBox="0 0 42 42" style="enable-background:new 0 0 42 42;" xml:space="preserve">
<style type="text/css">
	.st0{fill:#FFF1F1;}
	.st1{fill:none;}
	.st2{fill:#FF8139;}
</style>
<g id="Group_202" transform="translate(-526.5 -1367)">
	<circle id="Ellipse_58" class="st0" cx="547.5" cy="1388" r="21"/>
	<g id="question_mark_black_24dp" transform="translate(535.5 1376)">
		<g id="Group_204">
			<rect id="Rectangle_138" class="st1" width="24" height="24"/>
			<rect id="Rectangle_139" class="st1" width="24" height="24"/>
		</g>
		<g id="Group_205">
			<path id="Path_397" class="st2" d="M7.9,7.5C7.2,7.2,6.9,6.4,7.2,5.7c0-0.1,0.1-0.1,0.1-0.2C8.3,3.9,10.1,3,12,3
				c1.9-0.1,3.7,0.8,4.8,2.4c0.9,1.5,0.9,3.4,0,4.9c-1.2,1.8-2.4,2.3-3,3.4c-0.2,0.3-0.3,0.6-0.3,0.9c-0.1,0.7-0.7,1.3-1.4,1.3
				c-0.8,0-1.5-0.6-1.5-1.5c0-0.1,0-0.1,0-0.2c0-0.5,0.2-1.1,0.5-1.5c0.8-1.4,2.2-2.2,3.1-3.4c0.7-1.1,0.5-2.5-0.6-3.3
				c-0.5-0.3-1-0.5-1.6-0.4c-1,0-1.9,0.5-2.4,1.3C9.2,7.6,8.5,7.8,7.9,7.5z M14,20c0,1.1-0.9,2-2,2s-2-0.9-2-2s0.9-2,2-2
				C13.1,18,14,18.9,14,20z"/>
		</g>
	</g>
</g>
</svg>
