<?xml version="1.0" encoding="utf-8"?>
<!-- Generator: Adobe Illustrator 26.0.0, SVG Export Plug-In . SVG Version: 6.00 Build 0)  -->
<svg version="1.1" id="Layer_1" xmlns="http://www.w3.org/2000/svg" xmlns:xlink="http://www.w3.org/1999/xlink" x="0px" y="0px"
	 viewBox="0 0 42 42" style="enable-background:new 0 0 42 42;" xml:space="preserve">
<style type="text/css">
	.st0{fill:#FFF1F1;}
	.st1{fill:none;}
	.st2{fill:#FF8139;}
</style>
<g id="Group_207" transform="translate(-526.5 -1367)">
	<circle id="Ellipse_58" class="st0" cx="547.5" cy="1388" r="21"/>
	<g id="done_all_black_24dp" transform="translate(535.5 1376)">
		<path id="Path_400" class="st1" d="M-2,0h24v24H-2V0z"/>
		<path id="Path_401" class="st2" d="M22.3,9.3c-0.4-0.4-1-0.4-1.4,0L12.4,18c0,0-0.7,0.8,0,1.4c0.4,0.3,1,0.3,1.4,0l8.5-8.7
			C22.7,10.3,22.7,9.7,22.3,9.3z M19.5,6.3l-9.9,9.9l-3.5-3.5c-0.4-0.4-1.1-0.3-1.4,0.1c-0.3,0.4-0.3,0.9,0,1.3L9,18.3
			c0.4,0.4,1,0.4,1.4,0L21,7.7c0.4-0.4,0.4-1,0-1.4C20.6,5.9,19.9,5.9,19.5,6.3L19.5,6.3z"/>
	</g>
</g>
</svg>
