<?xml version="1.0" encoding="utf-8"?>
<!-- Generator: Adobe Illustrator 26.0.0, SVG Export Plug-In . SVG Version: 6.00 Build 0)  -->
<svg version="1.1" id="Group_375" xmlns="http://www.w3.org/2000/svg" xmlns:xlink="http://www.w3.org/1999/xlink" x="0px" y="0px"
	 viewBox="0 0 19.8 22" style="enable-background:new 0 0 19.8 22;" xml:space="preserve">
<style type="text/css">
	.st0{fill:#FF5757;}
	.st1{fill:#707070;}
	.st2{font-family:'ArialMT';}
	.st3{font-size:11px;}
</style>
<path id="calendar_today_FILL0_wght400_GRAD0_opsz48" class="st0" d="M1.7,22C0.7,22,0,21.3,0,20.4v-17c0-0.9,0.7-1.6,1.7-1.7h1.8
	V0.8c0-0.2,0.1-0.4,0.2-0.6C3.9,0.1,4.1,0,4.3,0C4.6,0,4.8,0.1,5,0.2c0.2,0.2,0.3,0.4,0.3,0.6v0.8h9.4V0.8c0-0.2,0.1-0.4,0.2-0.6
	C15,0.1,15.2,0,15.5,0c0.2,0,0.5,0.1,0.6,0.2c0.2,0.2,0.3,0.4,0.3,0.6v0.8h1.8c0.9,0,1.6,0.7,1.6,1.7v17c0,0.9-0.7,1.6-1.6,1.6H1.7z
	 M1.7,20.4h16.5V8.5H1.7V20.4z M1.7,6.9h16.5V3.3H1.7V6.9z M1.7,6.9L1.7,6.9z"/>
<text transform="matrix(1 0 0 1 6.8 18)" class="st1 st2 st3">₹</text>
</svg>
