<svg xmlns="http://www.w3.org/2000/svg" width="68.882" height="71" viewBox="0 0 68.882 71">
  <path id="auto_awesome_FILL0_wght400_GRAD0_opsz48" d="M62.491,23.5a1.43,1.43,0,0,1-.72-.169,1.132,1.132,0,0,1-.466-.593L58.848,16.98l-6.185-2.711a1.132,1.132,0,0,1-.593-.466,1.615,1.615,0,0,1,0-1.44,1.132,1.132,0,0,1,.593-.466L58.848,9.27l2.457-5.507a1.132,1.132,0,0,1,.466-.593,1.615,1.615,0,0,1,1.44,0,1.132,1.132,0,0,1,.466.593L66.134,9.27,72.319,11.9a1.132,1.132,0,0,1,.593.466,1.615,1.615,0,0,1,0,1.44,1.132,1.132,0,0,1-.593.466L66.134,16.98l-2.457,5.761a1.132,1.132,0,0,1-.466.593A1.43,1.43,0,0,1,62.491,23.5Zm0,50.5a1.5,1.5,0,0,1-.678-.169,1.071,1.071,0,0,1-.508-.593L58.848,67.73l-6.1-2.626a1.132,1.132,0,0,1-.593-.466,1.615,1.615,0,0,1,0-1.44,1.132,1.132,0,0,1,.593-.466l6.1-2.626,2.457-5.846a1.132,1.132,0,0,1,.466-.593,1.615,1.615,0,0,1,1.44,0,1.132,1.132,0,0,1,.466.593l2.457,5.846,6.1,2.626a1.132,1.132,0,0,1,.593.466,1.615,1.615,0,0,1,0,1.44,1.132,1.132,0,0,1-.593.466l-6.1,2.626-2.457,5.507a1.071,1.071,0,0,1-.508.593A1.5,1.5,0,0,1,62.491,74ZM25.3,59.342a2.609,2.609,0,0,1-2.288-1.44L17.5,46.125,5.64,40.788a2.55,2.55,0,0,1,0-4.575L17.5,30.875l5.507-11.692a2.443,2.443,0,0,1,.974-1.144,2.55,2.55,0,0,1,3.6,1.059l5.592,11.777,11.777,5.338a2.443,2.443,0,0,1,1.144.974,2.452,2.452,0,0,1,0,2.626,2.443,2.443,0,0,1-1.144.974L33.176,46.125,27.584,57.9A2.21,2.21,0,0,1,26.61,59a2.757,2.757,0,0,1-1.313.339Zm0-9.066,4.067-8.134,8.3-3.643-8.3-3.643L25.3,26.723l-3.982,8.134L12.927,38.5l8.388,3.643ZM25.3,38.5Z" transform="translate(-4.2 -3)" fill="#e8f35c"/>
</svg>
