<?xml version="1.0" encoding="utf-8"?>
<!-- Generator: Adobe Illustrator 26.0.0, SVG Export Plug-In . SVG Version: 6.00 Build 0)  -->
<svg version="1.1" id="Layer_1" xmlns="http://www.w3.org/2000/svg" xmlns:xlink="http://www.w3.org/1999/xlink" x="0px" y="0px"
	 viewBox="0 0 42.6 50" style="enable-background:new 0 0 42.6 50;" xml:space="preserve">
<style type="text/css">
	.st0{fill-rule:evenodd;clip-rule:evenodd;fill:#FF5757;}
</style>
<g id="Group_418" transform="translate(5847.796 2327.593)">
	<g id="Group_417" transform="translate(-5847.796 -2327.593)">
		<path id="noun-chat-5276130" class="st0" d="M29,0c-7.5,0-13.6,6.1-13.6,13.6c0,2,0.5,4,1.3,5.9l-1.1,5.4C15.4,25.9,16,26.8,17,27
			c0.2,0,0.4,0,0.7,0l5.6-1.1c6.8,3.2,14.9,0.2,18-6.6c3.2-6.8,0.2-14.9-6.6-18C32.9,0.4,30.9,0,29,0z"/>
		<path id="Path_592" d="M37.5,22.5c-0.1,0-0.1,0-0.2,0c-0.2-1.1-1.1-1.9-2.2-2.1c-0.3-7.9-6.9-14-14.8-13.7
			C12.9,6.9,6.9,12.9,6.6,20.3c-1.1,0.2-2.1,1-2.3,2.2c-0.1,0-0.1,0-0.2,0c-2.3,0-4.1,3-4.1,6.8s1.8,6.8,4.1,6.8c0.1,0,0.1,0,0.2,0
			c0.2,1.1,1.1,2,2.2,2.2c0,2.6,0,5.3,1.4,7.3c1.4,2,3.8,2.3,6.2,2.3c0.4,0,0.8,0,1.2,0c0.2,0,0.4,0,0.6,0c0.3,1.2,1.4,2.1,2.7,2.1
			h4.9c1.6,0,2.8-1.2,2.9-2.8s-1.2-2.8-2.8-2.9c0,0-0.1,0-0.1,0h-4.9c-1.4,0-2.6,1-2.8,2.4c-0.2,0-0.4,0-0.6,0
			c-2.5,0-5.1,0.1-6.4-1.8c-1.2-1.7-1.2-4.1-1.2-6.7c1.3-0.3,2.2-1.4,2.2-2.7V23c0-1.2-0.8-2.3-2-2.7C8,13.1,14.1,7.5,21.4,7.7
			C28.2,8,33.7,13.5,34,20.4c-1.3,0.3-2.2,1.4-2.2,2.7v12.6c0,1.5,1.2,2.8,2.8,2.7c1.3,0,2.5-0.9,2.7-2.2c0.1,0,0.1,0,0.2,0
			c2.3,0,4.1-3,4.1-6.8S39.8,22.5,37.5,22.5L37.5,22.5z"/>
	</g>
</g>
</svg>
