<?xml version="1.0" encoding="utf-8"?>
<!-- Generator: Adobe Illustrator 26.0.0, SVG Export Plug-In . SVG Version: 6.00 Build 0)  -->
<svg version="1.1" id="Layer_1" xmlns="http://www.w3.org/2000/svg" xmlns:xlink="http://www.w3.org/1999/xlink" x="0px" y="0px"
	 viewBox="0 0 42 50" style="enable-background:new 0 0 42 50;" xml:space="preserve">
<style type="text/css">
	.st0{fill:none;}
	.st1{fill:#FF5757;}
	.st2{fill:#FFFFFF;}
</style>
<g id="Group_449" transform="translate(6173 2051.208)">
	<g id="Group_448">
		<g id="Group_422">
			<rect id="Rectangle_179" x="-6173" y="-2051.2" class="st0" width="42" height="50"/>
			<g id="Group_447" transform="translate(54.038 162.795)">
				<g id="Group_445" transform="translate(-6227.038 -2214)">
					<path id="Path_614" class="st1" d="M25.2,17.9H25c-0.7,0-1.4-0.3-2-0.7c-0.6-0.6-1-1.4-1-2.2V6.1H3.1C1.4,6.1,0,7.5,0,9.2
						c0,0,0,0,0,0v37.6C0,48.6,1.4,50,3.1,50h26.8c1.7,0,3.1-1.4,3.1-3.1c0,0,0,0,0,0V17.1L25.2,17.9z"/>
					<path id="Path_615" d="M34.1,10.1l6.9-0.7l-8.1-8.3v7.7c0,0.3,0.1,0.7,0.4,0.9C33.4,10,33.7,10.1,34.1,10.1L34.1,10.1z"/>
					<path id="Path_616" class="st1" d="M25.5,16.2l6.9-0.7l-8.2-8.3v7.7c0,0.3,0.1,0.7,0.4,0.9C24.8,16.1,25.1,16.2,25.5,16.2
						L25.5,16.2z"/>
					<path id="Path_617" d="M34.3,11.8H34c-0.7,0-1.4-0.3-2-0.7c-0.6-0.6-1-1.4-1-2.2V0H10.1C8.4,0,7,1.4,7,3.1c0,0,0,0,0,0v1.1
						h16.1l11.3,11.5v28.1h4.4c1.7,0,3.1-1.4,3.1-3.1c0,0,0,0,0,0V11L34.3,11.8z"/>
				</g>
			</g>
		</g>
		<path id="Rectangle_181" class="st2" d="M-6164-2017.2h16c1.1,0,2,0.9,2,2l0,0c0,1.1-0.9,2-2,2h-16c-1.1,0-2-0.9-2-2l0,0
			C-6166-2016.3-6165.1-2017.2-6164-2017.2z"/>
		<path id="Rectangle_182" class="st2" d="M-6164-2011.2h16c1.1,0,2,0.9,2,2l0,0c0,1.1-0.9,2-2,2h-16c-1.1,0-2-0.9-2-2l0,0
			C-6166-2010.3-6165.1-2011.2-6164-2011.2z"/>
	</g>
</g>
</svg>
