<svg version="1.2" xmlns="http://www.w3.org/2000/svg" viewBox="0 0 28 28" width="28" height="28">
	<title>upload-svg</title>
	<defs>
		<clipPath clipPathUnits="userSpaceOnUse" id="cp1">
			<path d="m0 28v-28h28v28z"/>
		</clipPath>
		<clipPath clipPathUnits="userSpaceOnUse" id="cp2">
			<path d="m1.17 1.17h25.66v25.66h-25.66z"/>
		</clipPath>
	</defs>
	<style>
		.s0 { fill: none;stroke: #00357c;stroke-linecap: round;stroke-linejoin: round } 
	</style>
	<g id="Clip-Path" clip-path="url(#cp1)">
		<g id="Layer">
			<filter id="f0">
				<feFlood flood-color="#238dd8" flood-opacity="1" />
				<feBlend mode="normal" in2="SourceGraphic"/>
				<feComposite in2="SourceAlpha" operator="in" />
			</filter>
			<g id="Clip-Path" clip-path="url(#cp2)" filter="url(#f0)">
				<g id="Layer">
					<path id="Layer" class="s0" d="m18.6 18.2h2.6c0 0 4.6-0.6 4.6-5.2q0-1-0.4-2-0.5-0.9-1.2-1.6-0.8-0.8-1.7-1.1-1-0.4-2-0.4c-0.7-1.4-1.8-2.6-3.3-3.3-1.4-0.7-3-0.9-4.6-0.6-1.5 0.3-2.9 1.1-4 2.3-1 1.2-1.6 2.7-1.7 4.3q-0.9-0.2-1.7 0-0.9 0.2-1.5 0.7-0.7 0.6-1.1 1.4-0.4 0.8-0.4 1.6c0 3.9 4.1 3.9 4.1 3.9h3.1"/>
					<path id="Layer" class="s0" d="m14 12.3v11.7"/>
					<path id="Layer" class="s0" d="m17.2 15.5l-3.2-3.2-3.2 3.2"/>
				</g>
			</g>
		</g>
	</g>
</svg>